<?xml version="1.0" standalone="no"?>
  <!DOCTYPE svg PUBLIC "-//W3C//DTD SVG 1.1//EN" "http://www.w3.org/Graphics/SVG/1.1/DTD/svg11.dtd" >
  <svg>
  <metadata>
  Created by font-carrier
  </metadata>
  <defs>
  <font id="DrukTextWideCyr-Medium" horiz-adv-x="2289" vert-adv-y="2289" >
    <font-face
      
      font-family="Druk Text Wide Cyr"
      
      font-weight="400"
      
      font-stretch="normal"
      
      units-per-em="1000"
      
      ascent="1062"
      
      descent="-206"
      
    />
      <missing-glyph />

      

      
      <glyph glyph-name="uni21" unicode="&#x21;" d="M77 744L142 242L237 242L301 744ZM297 177L82 177L82 0L297 0Z"  horiz-adv-x="378" vert-adv-y="1000"  />

      
      <glyph glyph-name="uni22" unicode="&#x22;" d="M526 744L357 744L357 448L526 448ZM252 744L83 744L83 448L252 448Z"  horiz-adv-x="609" vert-adv-y="1000"  />

      
      <glyph glyph-name="uni23" unicode="&#x23;" d="M453 315L308 315L344 462L487 462ZM378 0L522 0L570 200L683 200L711 315L597 315L633 462L746 462L775 577L660 577L700 744L554 744L514 577L371 577L411 744L266 744L227 577L113 577L85 462L200 462L166 315L51 315L23 200L139 200L92 0L233 0L281 200L425 200Z"  horiz-adv-x="798" vert-adv-y="1000"  />

      
      <glyph glyph-name="uni24" unicode="&#x24;" d="M282 542C282 583 305 606 421 611L421 467C303 472 282 504 282 542ZM664 228C664 185 647 143 518 135L518 306C637 301 664 275 664 228ZM518-89L518-13C829-5 880 116 880 222L880 234C880 361 816 455 547 463L518 464L518 609C628 601 644 559 649 525L864 525L864 536C864 632 823 745 518 753L518 831L421 831L421 753C129 748 68 645 68 544L68 535C68 415 138 317 396 309L421 308L421 136C296 147 284 215 281 245L62 245L62 234C62 148 100-4 421-12L421-89Z"  horiz-adv-x="942" vert-adv-y="1000"  />

      
      <glyph glyph-name="uni25" unicode="&#x25;" d="M311 316C516 316 560 452 560 527L560 545C560 621 516 753 311 753L289 753C84 753 41 621 41 545L41 527C41 452 84 316 289 316ZM933 744L243 0L413 0L1102 744ZM417 532C417 488 387 435 299 435C212 435 183 487 183 534L183 540C183 589 210 635 299 635C387 635 417 589 417 540ZM1057-8C1262-8 1306 129 1306 204L1306 221C1306 297 1262 429 1057 429L1036 429C831 429 787 297 787 221L787 204C787 129 831-8 1036-8ZM1045 311C1133 311 1163 265 1163 217L1163 208C1163 164 1133 111 1045 111C958 111 929 163 929 210L929 217C929 265 956 311 1045 311Z"  horiz-adv-x="1347" vert-adv-y="1000"  />

      
      <glyph glyph-name="uni26" unicode="&#x26;" d="M354 572C354 609 375 638 455 638C546 638 571 607 571 563C571 512 525 481 449 458C389 505 354 535 354 572ZM442 124C309 124 248 179 248 240L248 243C248 292 287 322 320 338L586 142C549 131 499 124 442 124ZM995 155C932 156 891 160 852 172C925 261 954 358 957 437L765 437C765 392 752 318 715 250L531 393C701 425 750 497 750 574L750 579C750 659 707 756 473 756L437 756C220 756 155 666 155 578L155 570C155 495 193 447 248 399C140 378 43 323 43 214L43 204C43 88 146-12 434-12C557-12 653 14 717 50C784 10 846-11 941-11Z"  horiz-adv-x="1015" vert-adv-y="1000"  />

      
      <glyph glyph-name="uni27" unicode="&#x27;" d="M255 744L83 744L83 447L255 447Z"  horiz-adv-x="338" vert-adv-y="1000"  />

      
      <glyph glyph-name="uni28" unicode="&#x28;" d="M213 339C213 530 279 701 346 808L236 808C164 720 55 567 55 339C55 110 163-42 236-131L346-131C279-24 213 148 213 339Z"  horiz-adv-x="369" vert-adv-y="1000"  />

      
      <glyph glyph-name="uni29" unicode="&#x29;" d="M156 339C156 148 90-24 23-131L134-131C207-42 315 110 315 339C315 567 206 720 134 808L23 808C90 701 156 530 156 339Z"  horiz-adv-x="370" vert-adv-y="1000"  />

      
      <glyph glyph-name="uni2a" unicode="&#x2a;" d="M305 476L422 393L472 495L328 541L472 587L422 689L305 607L329 744L199 744L224 607L106 689L54 587L198 541L54 495L106 393L224 476L199 339L329 339Z"  horiz-adv-x="526" vert-adv-y="1000"  />

      
      <glyph glyph-name="uni2b" unicode="&#x2b;" d="M599 254L599 386L412 386L412 576L262 576L262 386L74 386L74 254L262 254L262 63L412 63L412 254Z"  horiz-adv-x="673" vert-adv-y="1000"  />

      
      <glyph glyph-name="uni2c" unicode="&#x2c;" d="M245-144C269-103 299-30 299 50L299 194L66 194L66 0L170 0C163-43 140-99 115-144Z"  horiz-adv-x="365" vert-adv-y="1000"  />

      
      <glyph glyph-name="uni2d" unicode="&#x2d;" d="M74 381L74 218L403 218L403 381Z"  horiz-adv-x="477" vert-adv-y="1000"  />

      
      <glyph glyph-name="uni2e" unicode="&#x2e;" d="M299 194L66 194L66 0L299 0Z"  horiz-adv-x="365" vert-adv-y="1000"  />

      
      <glyph glyph-name="uni2f" unicode="&#x2f;" d="M459 808L307 808L-15-131L136-131Z"  horiz-adv-x="471" vert-adv-y="1000"  />

      
      <glyph glyph-name="uni30" unicode="&#x30;" d="M478 756C130 756 62 524 62 389L62 359C62 229 130-12 478-12L520-12C867-12 936 229 936 359L936 389C936 521 869 756 520 756ZM722 368C722 300 692 159 500 159C308 159 276 300 276 368L276 382C276 449 302 586 499 586C694 586 722 449 722 382Z"  horiz-adv-x="998" vert-adv-y="1000"  />

      
      <glyph glyph-name="uni31" unicode="&#x31;" d="M225 481L225 0L430 0L430 744L276 744C244 654 198 632 48 632L48 481Z"  horiz-adv-x="525" vert-adv-y="1000"  />

      
      <glyph glyph-name="uni32" unicode="&#x32;" d="M835 0L835 178L247 178C247 194 273 219 420 256C455 265 499 275 539 284C746 332 818 386 818 515L818 523C818 650 736 753 470 753L425 753C125 753 75 584 75 483L75 476L290 476C293 512 305 594 451 594C574 594 600 562 600 522C600 485 574 465 475 436L356 400C76 312 62 214 62 108L62 0Z"  horiz-adv-x="890" vert-adv-y="1000"  />

      
      <glyph glyph-name="uni33" unicode="&#x33;" d="M459-11C774-11 841 128 841 240L841 247C841 348 771 401 707 417C763 436 818 475 818 555L818 562C818 646 761 753 459 753L403 753C98 753 62 588 62 527L62 516L276 516C279 534 286 593 441 593C596 593 613 555 613 520C613 489 595 460 522 460L285 460L285 309L523 309C599 309 623 283 623 244C623 206 602 155 443 155C285 155 275 233 272 253L52 253L52 244C52 167 102-11 417-11Z"  horiz-adv-x="898" vert-adv-y="1000"  />

      
      <glyph glyph-name="uni34" unicode="&#x34;" d="M54 162L529 162L529 0L733 0L733 162L891 162L891 322L733 322L733 749L461 749L54 293ZM529 322L274 322L529 609Z"  horiz-adv-x="932" vert-adv-y="1000"  />

      
      <glyph glyph-name="uni35" unicode="&#x35;" d="M470-11C756-11 827 139 827 252L827 264C827 374 766 495 507 495L497 495C363 495 296 445 288 437L288 575L775 575L775 744L84 744L84 284L288 284C291 303 319 342 452 342C584 342 622 306 622 253L622 247C622 197 581 155 452 155C315 155 293 205 290 222L73 222L73 208C73 146 119-11 430-11Z"  horiz-adv-x="884" vert-adv-y="1000"  />

      
      <glyph glyph-name="uni36" unicode="&#x36;" d="M505-11C824-11 879 143 879 241L879 258C879 371 794 470 550 470L528 470C355 470 291 414 272 398L272 405C272 466 292 594 475 594C615 594 633 546 641 527L857 527L857 528C857 621 795 753 486 753L456 753C116 753 62 496 62 376L62 353C62 219 112-11 456-11ZM300 241C300 277 328 325 482 325C642 325 667 277 667 241L667 235C667 202 647 147 482 147C330 147 300 200 300 236Z"  horiz-adv-x="939" vert-adv-y="1000"  />

      
      <glyph glyph-name="uni37" unicode="&#x37;" d="M63 744L63 453L266 453L266 582L638 582C638 569 557 490 469 391C333 241 330 176 330 65L330 0L555 0L555 24C555 114 560 200 658 351C725 455 785 539 820 588L820 744Z"  horiz-adv-x="870" vert-adv-y="1000"  />

      
      <glyph glyph-name="uni38" unicode="&#x38;" d="M482-12C823-12 866 130 866 211L866 224C866 315 789 374 698 390C773 403 848 457 848 539L848 551C848 627 815 751 482 751L440 751C109 751 75 627 75 551L75 539C75 451 152 403 224 390C136 374 57 315 57 224L57 211C57 130 97-12 440-12ZM630 529C630 499 609 462 461 462C315 462 292 499 292 529L292 533C292 561 313 600 461 600C609 600 630 561 630 533ZM649 227C649 191 625 146 461 146C298 146 274 191 274 227L274 230C274 266 297 310 461 310C625 310 649 266 649 230Z"  horiz-adv-x="923" vert-adv-y="1000"  />

      
      <glyph glyph-name="uni39" unicode="&#x39;" d="M639 501C639 465 611 417 457 417C297 417 272 465 272 501L272 507C272 538 292 595 457 595C609 595 639 541 639 506ZM487-11C828-11 877 238 877 366L877 389C877 519 826 753 491 753L430 753C118 753 60 600 60 501L60 485C60 370 145 272 389 272L411 272C584 272 648 328 667 344L667 337C667 276 646 148 464 148C317 148 301 201 298 214L83 214L83 213C83 129 141-11 450-11Z"  horiz-adv-x="939" vert-adv-y="1000"  />

      
      <glyph glyph-name="uni3a" unicode="&#x3a;" d="M304 194L71 194L71 0L304 0ZM304 531L71 531L71 337L304 337Z"  horiz-adv-x="375" vert-adv-y="1000"  />

      
      <glyph glyph-name="uni3b" unicode="&#x3b;" d="M250-144C274-103 304-30 304 50L304 194L71 194L71 0L175 0C168-43 145-99 120-144ZM304 531L71 531L71 337L304 337Z"  horiz-adv-x="375" vert-adv-y="1000"  />

      
      <glyph glyph-name="uni3c" unicode="&#x3c;" d="M526 75L526 223L241 319L526 416L526 566L79 391L79 248Z"  horiz-adv-x="605" vert-adv-y="1000"  />

      
      <glyph glyph-name="uni3d" unicode="&#x3d;" d="M79 490L79 364L587 364L587 490ZM79 278L79 152L587 152L587 278Z"  horiz-adv-x="666" vert-adv-y="1000"  />

      
      <glyph glyph-name="uni3e" unicode="&#x3e;" d="M79 75L526 248L526 391L79 566L79 416L364 319L79 223Z"  horiz-adv-x="605" vert-adv-y="1000"  />

      
      <glyph glyph-name="uni3f" unicode="&#x3f;" d="M469 242L469 255C469 300 486 312 537 331L586 348C716 393 760 451 760 541L760 548C760 652 687 753 428 753L372 753C71 753 40 604 40 516L40 504L251 504C254 533 252 602 400 602C533 602 551 573 551 542C551 515 536 499 471 474L423 456C301 411 275 374 275 292L275 242ZM480 177L265 177L265 0L480 0Z"  horiz-adv-x="806" vert-adv-y="1000"  />

      
      <glyph glyph-name="uni40" unicode="&#x40;" d="M625-161C908-161 1034-105 1074-81L1042 20C1003-3 892-61 625-61C268-61 188 116 188 289L188 301C188 491 269 643 609 643L620 643C1039 643 1050 482 1050 352L1050 349C1050 215 996 135 924 135C901 135 892 153 895 174L934 530L744 530L737 465C716 489 664 542 544 542L531 542C384 542 324 443 313 344L308 294C295 175 351 38 520 38L533 38C644 38 701 96 717 115C728 87 761 38 864 38L878 38C1106 38 1171 207 1171 344L1171 355C1171 495 1147 743 620 743L609 743C189 743 59 539 59 303L59 291C59 67 165-161 625-161ZM594 168C513 168 491 232 496 291L498 313C503 368 533 413 613 413C690 413 725 369 721 301L720 284C715 221 682 168 594 168Z"  horiz-adv-x="1230" vert-adv-y="1000"  />

      
      <glyph glyph-name="uni41" unicode="&#x41;" d="M611 291L345 291L476 594ZM741 0L962 0L617 744L341 744L11 0L218 0L278 138L680 138Z"  horiz-adv-x="973" vert-adv-y="1000"  />

      
      <glyph glyph-name="uni42" unicode="&#x42;" d="M92 0L638 0C877 0 938 114 938 215L938 226C938 346 848 396 764 410C820 418 901 463 901 557L901 568C901 651 848 744 635 744L92 744ZM605 589C666 589 686 559 686 523L686 521C686 486 668 456 605 456L298 456L298 589ZM621 310C693 310 714 279 714 242L714 238C714 201 693 163 621 163L298 163L298 310Z"  horiz-adv-x="990" vert-adv-y="1000"  />

      
      <glyph glyph-name="uni43" unicode="&#x43;" d="M535-11C851-11 951 152 951 288L951 291L739 291C736 267 711 160 513 160C332 160 273 277 273 369L273 383C273 483 330 585 512 585C708 585 736 480 739 459L951 459L951 461C951 602 847 755 535 755L489 755C149 755 59 544 59 389L59 359C59 207 149-11 489-11Z"  horiz-adv-x="1007" vert-adv-y="1000"  />

      
      <glyph glyph-name="uni44" unicode="&#x44;" d="M92 0L474 0C882 0 950 212 950 368L950 398C950 549 861 744 473 744L92 744ZM298 579L464 579C712 579 736 462 736 378L736 372C736 288 714 166 464 166L298 166Z"  horiz-adv-x="1007" vert-adv-y="1000"  />

      
      <glyph glyph-name="uni45" unicode="&#x45;" d="M92 744L92 0L779 0L779 164L295 164L295 293L758 293L758 461L295 461L295 582L773 582L773 744Z"  horiz-adv-x="852" vert-adv-y="1000"  />

      
      <glyph glyph-name="uni46" unicode="&#x46;" d="M92 744L92 0L297 0L297 276L756 276L756 446L297 446L297 579L770 579L770 744Z"  horiz-adv-x="838" vert-adv-y="1000"  />

      
      <glyph glyph-name="uni47" unicode="&#x47;" d="M506-11C681-11 759 82 775 103C786 79 797 27 800 0L964 0L964 406L535 406L535 273L737 273C734 251 695 157 519 157C335 157 273 273 273 370L273 383C273 483 329 586 512 586C705 586 734 507 742 488L955 488L955 490C955 613 852 754 528 754L494 754C155 754 59 546 59 388L59 361C59 194 162-11 490-11Z"  horiz-adv-x="1044" vert-adv-y="1000"  />

      
      <glyph glyph-name="uni48" unicode="&#x48;" d="M92 0L298 0L298 299L713 299L713 0L919 0L919 744L713 744L713 468L298 468L298 744L92 744Z"  horiz-adv-x="1011" vert-adv-y="1000"  />

      
      <glyph glyph-name="uni49" unicode="&#x49;" d="M298 744L92 744L92 0L298 0Z"  horiz-adv-x="390" vert-adv-y="1000"  />

      
      <glyph glyph-name="uni4a" unicode="&#x4a;" d="M424-12C729-12 781 211 781 346L781 744L575 744L575 346C575 251 540 164 409 164L405 164C278 164 257 267 254 319L41 319L41 313C41 192 102-12 391-12Z"  horiz-adv-x="868" vert-adv-y="1000"  />

      
      <glyph glyph-name="uni4b" unicode="&#x4b;" d="M298 0L298 350L656 0L925 0L516 403L908 744L646 744L298 438L298 744L92 744L92 0Z"  horiz-adv-x="923" vert-adv-y="1000"  />

      
      <glyph glyph-name="uni4c" unicode="&#x4c;" d="M92 744L92 0L753 0L753 175L298 175L298 744Z"  horiz-adv-x="802" vert-adv-y="1000"  />

      
      <glyph glyph-name="uni4d" unicode="&#x4d;" d="M92 0L290 0L290 487L516 0L677 0L903 487L903 0L1104 0L1104 744L847 744L603 240L366 744L92 744Z"  horiz-adv-x="1196" vert-adv-y="1000"  />

      
      <glyph glyph-name="uni4e" unicode="&#x4e;" d="M737 0L939 0L939 744L739 744L739 265L304 744L92 744L92 0L293 0L293 482Z"  horiz-adv-x="1031" vert-adv-y="1000"  />

      
      <glyph glyph-name="uni4f" unicode="&#x4f;" d="M506 756C158 756 59 551 59 389L59 359C59 199 158-12 506-12L550-12C898-12 997 199 997 359L997 389C997 552 898 756 550 756ZM783 367C783 277 737 159 528 159C323 159 273 277 273 367L273 381C273 473 320 586 528 586C738 586 783 473 783 381Z"  horiz-adv-x="1056" vert-adv-y="1000"  />

      
      <glyph glyph-name="uni50" unicode="&#x50;" d="M596 238C828 238 904 345 904 486L904 497C904 641 831 744 596 744L92 744L92 0L298 0L298 238ZM298 578L581 578C657 578 690 545 690 493L690 489C690 436 657 404 581 404L298 404Z"  horiz-adv-x="956" vert-adv-y="1000"  />

      
      <glyph glyph-name="uni51" unicode="&#x51;" d="M446-155L774-155L660-4C929 36 999 223 999 359L999 389C999 542 912 756 551 756L507 756C144 756 59 544 59 389L59 359C59 216 138 14 446-10ZM785 367C785 277 740 159 529 159C320 159 273 279 273 367L273 381C273 473 318 586 529 586C742 586 785 468 785 381Z"  horiz-adv-x="1058" vert-adv-y="1000"  />

      
      <glyph glyph-name="uni52" unicode="&#x52;" d="M298 580L585 580C669 580 692 546 692 503L692 501C692 458 669 422 585 422L298 422ZM751 358C844 379 908 442 908 535L908 545C908 626 876 744 593 744L92 744L92 0L298 0L298 253L566 253C670 253 705 209 705 113L705 52C705 19 709 5 712 0L925 0L925 5C918 17 913 32 913 88L913 165C913 274 852 335 751 358Z"  horiz-adv-x="981" vert-adv-y="1000"  />

      
      <glyph glyph-name="uni53" unicode="&#x53;" d="M480-13C813-13 863 126 863 235L863 247C863 368 799 454 534 465L431 469C314 474 287 502 287 540C287 581 318 606 450 606L460 606C604 606 622 557 627 524L848 524L848 535C848 633 803 753 474 753L440 753C132 753 70 649 70 533L70 524C70 412 148 315 392 307L491 304C614 299 643 272 643 227C643 184 623 138 468 138L461 138C303 138 289 212 286 245L62 245L62 234C62 145 102-13 451-13Z"  horiz-adv-x="925" vert-adv-y="1000"  />

      
      <glyph glyph-name="uni54" unicode="&#x54;" d="M334 0L539 0L539 574L827 574L827 744L46 744L46 574L334 574Z"  horiz-adv-x="873" vert-adv-y="1000"  />

      
      <glyph glyph-name="uni55" unicode="&#x55;" d="M523-11C875-11 927 217 927 366L927 744L722 744L722 371C722 286 700 164 511 164L506 164C317 164 293 286 293 371L293 744L87 744L87 366C87 218 129-11 494-11Z"  horiz-adv-x="1014" vert-adv-y="1000"  />

      
      <glyph glyph-name="uni56" unicode="&#x56;" d="M629 0L962 744L738 744L495 180L253 744L13 744L358 0Z"  horiz-adv-x="975" vert-adv-y="1000"  />

      
      <glyph glyph-name="uni57" unicode="&#x57;" d="M513 0L671 521L829 0L1075 0L1322 744L1119 744L956 207L799 744L559 744L403 209L239 744L18 744L274 0Z"  horiz-adv-x="1340" vert-adv-y="1000"  />

      
      <glyph glyph-name="uni58" unicode="&#x58;" d="M681 0L930 0L603 380L916 744L679 744L478 513L276 744L15 744L338 378L10 0L252 0L468 242Z"  horiz-adv-x="940" vert-adv-y="1000"  />

      
      <glyph glyph-name="uni59" unicode="&#x59;" d="M367 0L573 0L573 271L929 744L699 744L476 449L253 744L-2 744L367 272Z"  horiz-adv-x="927" vert-adv-y="1000"  />

      
      <glyph glyph-name="uni5a" unicode="&#x5a;" d="M835 0L835 170L356 170L831 601L831 744L77 744L77 576L530 576L74 143L74 0Z"  horiz-adv-x="908" vert-adv-y="1000"  />

      
      <glyph glyph-name="uni5b" unicode="&#x5b;" d="M82-131L358-131L358-24L236-24L236 701L358 701L358 808L82 808Z"  horiz-adv-x="401" vert-adv-y="1000"  />

      
      <glyph glyph-name="uni5c" unicode="&#x5c;" d="M486-131L164 808L12 808L335-131Z"  horiz-adv-x="471" vert-adv-y="1000"  />

      
      <glyph glyph-name="uni5d" unicode="&#x5d;" d="M43-131L319-131L319 808L43 808L43 701L166 701L166-24L43-24Z"  horiz-adv-x="401" vert-adv-y="1000"  />

      
      <glyph glyph-name="uni5e" unicode="&#x5e;" d="M457 388L633 388L419 744L231 744L18 388L195 388L326 606Z"  horiz-adv-x="651" vert-adv-y="1000"  />

      
      <glyph glyph-name="uni5f" unicode="&#x5f;" d="M39-168L689-168L689-29L39-29Z"  horiz-adv-x="728" vert-adv-y="1000"  />

      
      <glyph glyph-name="uni60" unicode="&#x60;" d="M414 766L196 766L307 617L502 617Z"  horiz-adv-x="700" vert-adv-y="1000"  />

      
      <glyph glyph-name="uni61" unicode="&#x61;" d="M343 111C275 111 250 137 250 172L250 174C250 213 280 226 374 242C430 251 479 261 496 268L496 225C496 183 457 111 343 111ZM502 77C510 41 537 0 595 0L753 0L753 149L732 149C693 149 686 163 686 198L686 381C686 455 669 568 394 568L363 568C90 568 68 439 68 384L68 382L268 382C268 403 278 443 380 443C488 443 496 415 496 389C496 366 485 356 454 353L302 340C114 324 53 265 53 169L53 165C53 73 117-11 272-11L288-11C418-11 478 48 502 77Z"  horiz-adv-x="783" vert-adv-y="1000"  />

      
      <glyph glyph-name="uni62" unicode="&#x62;" d="M509-11C721-11 792 149 792 272L792 289C792 422 723 566 511 566L498 566C369 566 303 511 278 486L278 757L83 757L83 0L251 0C254 24 259 50 267 74C291 50 360-11 495-11ZM590 277C590 220 562 136 440 136L430 136C313 136 276 216 276 277L276 280C276 344 313 421 430 421L440 421C562 421 590 340 590 280Z"  horiz-adv-x="847" vert-adv-y="1000"  />

      
      <glyph glyph-name="uni63" unicode="&#x63;" d="M545 218C545 205 528 130 412 130L402 130C289 130 256 212 256 281L256 282C256 349 283 428 398 428L408 428C523 428 542 359 545 343L749 343L749 344C749 424 696 570 428 570L382 570C103 570 54 389 54 284L54 270C54 165 106-15 383-15L432-15C699-15 749 134 749 218Z"  horiz-adv-x="801" vert-adv-y="1000"  />

      
      <glyph glyph-name="uni64" unicode="&#x64;" d="M418 421C534 421 571 344 571 280L571 277C571 216 534 136 418 136L407 136C285 136 257 220 257 277L257 280C257 340 285 421 407 421ZM569 757L569 496C545 518 481 566 354 566L342 566C138 566 56 426 56 287L56 270C56 129 141-11 344-11L357-11C488-11 551 50 570 72L570 0L764 0L764 757Z"  horiz-adv-x="847" vert-adv-y="1000"  />

      
      <glyph glyph-name="uni65" unicode="&#x65;" d="M404 440C529 440 549 382 549 341L255 341C265 399 303 440 404 440ZM553 173C548 164 534 120 421 120C302 120 261 172 253 236L758 236L758 254C758 409 707 567 423 567L379 567C116 567 54 409 54 284L54 270C54 137 122-13 396-13L433-13C720-13 756 127 756 173Z"  horiz-adv-x="811" vert-adv-y="1000"  />

      
      <glyph glyph-name="uni66" unicode="&#x66;" d="M481 757L334 757C195 757 161 696 161 600L161 555L38 555L38 415L161 415L161 0L355 0L355 415L481 415L481 555L355 555L355 590C355 623 368 636 399 636L481 636Z"  horiz-adv-x="520" vert-adv-y="1000"  />

      
      <glyph glyph-name="uni67" unicode="&#x67;" d="M419 422C531 422 571 354 571 295L571 291C571 235 535 165 420 165L408 165C290 165 257 237 257 292L257 295C257 351 286 422 408 422ZM439-206C685-206 763-86 763 62L763 555L569 555L569 498C545 519 484 566 351 566L340 566C131 566 56 428 56 303L56 286C56 167 124 19 343 19L357 19C493 19 549 74 570 95L570 54C570-13 535-63 427-63L416-63C314-63 302-36 294-20L87-20L87-24C87-88 117-206 405-206Z"  horiz-adv-x="846" vert-adv-y="1000"  />

      
      <glyph glyph-name="uni68" unicode="&#x68;" d="M83 0L278 0L278 282C278 350 326 415 419 415C515 415 552 353 552 289L552 0L747 0L747 360C747 459 674 568 511 568L501 568C375 568 302 497 278 468L278 757L83 757Z"  horiz-adv-x="828" vert-adv-y="1000"  />

      
      <glyph glyph-name="uni69" unicode="&#x69;" d="M280 757L81 757L81 617L280 617ZM278 555L83 555L83 0L278 0Z"  horiz-adv-x="361" vert-adv-y="1000"  />

      
      <glyph glyph-name="uni6a" unicode="&#x6a;" d="M280 757L81 757L81 617L280 617ZM-16-46L-16-191L162-191C239-191 278-141 278-49L278 555L83 555L83-2C83-34 73-46 44-46Z"  horiz-adv-x="361" vert-adv-y="1000"  />

      
      <glyph glyph-name="uni6b" unicode="&#x6b;" d="M278 0L278 257L494 0L726 0L469 306L701 555L476 555L278 333L278 757L83 757L83 0Z"  horiz-adv-x="726" vert-adv-y="1000"  />

      
      <glyph glyph-name="uni6c" unicode="&#x6c;" d="M278 757L83 757L83 0L278 0Z"  horiz-adv-x="361" vert-adv-y="1000"  />

      
      <glyph glyph-name="uni6d" unicode="&#x6d;" d="M278 0L278 282C278 350 319 415 406 415C495 415 528 353 528 289L528 0L722 0L722 282C722 350 763 415 849 415C938 415 971 353 971 289L971 0L1166 0L1166 338C1166 447 1109 568 935 568L926 568C809 568 734 511 694 457C662 520 600 568 495 568L487 568C366 568 299 499 276 465L276 555L83 555L83 0Z"  horiz-adv-x="1247" vert-adv-y="1000"  />

      
      <glyph glyph-name="uni6e" unicode="&#x6e;" d="M83 0L278 0L278 282C278 350 326 415 419 415C515 415 552 353 552 289L552 0L747 0L747 360C747 459 674 568 511 568L501 568C374 568 301 497 276 467L276 555L83 555Z"  horiz-adv-x="828" vert-adv-y="1000"  />

      
      <glyph glyph-name="uni6f" unicode="&#x6f;" d="M429-15C738-15 774 167 774 267L774 283C774 381 738 570 430 570L397 570C99 570 53 382 53 282L53 268C53 167 99-15 398-15ZM408 131C280 131 254 219 254 280C254 343 280 427 408 427L419 427C542 427 573 343 573 280C573 219 542 131 419 131Z"  horiz-adv-x="827" vert-adv-y="1000"  />

      
      <glyph glyph-name="uni70" unicode="&#x70;" d="M591 277C591 220 563 136 441 136L431 136C314 136 277 216 277 277L277 280C277 344 314 421 431 421L441 421C563 421 591 340 591 280ZM83-191L278-191L278 71C302 47 370-11 497-11L511-11C722-11 793 151 793 272L793 289C793 421 724 566 512 566L499 566C373 566 300 510 276 484L276 555L83 555Z"  horiz-adv-x="848" vert-adv-y="1000"  />

      
      <glyph glyph-name="uni71" unicode="&#x71;" d="M338 566C135 566 56 422 56 289L56 272C56 136 136-11 342-11L355-11C486-11 552 50 570 71L570-191L764-191L764 555L593 555C591 530 586 507 578 484C552 510 486 566 350 566ZM418 421C534 421 571 344 571 280L571 277C571 216 534 136 418 136L407 136C285 136 257 220 257 277L257 280C257 340 285 421 407 421Z"  horiz-adv-x="847" vert-adv-y="1000"  />

      
      <glyph glyph-name="uni72" unicode="&#x72;" d="M278 0L278 295C278 367 310 415 371 415C432 415 450 373 450 297L450 289L651 289C652 313 652 328 652 352C652 482 594 567 463 567L457 567C343 567 289 491 276 464L276 555L83 555L83 0Z"  horiz-adv-x="697" vert-adv-y="1000"  />

      
      <glyph glyph-name="uni73" unicode="&#x73;" d="M376-13C643-13 683 84 683 177L683 184C683 277 628 340 428 348L352 351C272 354 252 372 252 403C252 431 274 449 358 449L361 449C452 449 461 415 467 395L671 395L671 398C671 470 639 568 370 568L343 568C108 568 56 489 56 394L56 388C56 296 121 233 300 222L376 216C469 211 482 191 482 163C482 136 462 110 375 110L373 110C274 110 265 150 262 169L53 169L53 164C53 117 77-13 350-13Z"  horiz-adv-x="737" vert-adv-y="1000"  />

      
      <glyph glyph-name="uni74" unicode="&#x74;" d="M480 149L411 149C364 149 353 168 353 211L353 415L480 415L480 555L353 555L353 724L159 724L159 555L38 555L38 415L159 415L159 150C159 50 212 0 303 0L480 0Z"  horiz-adv-x="534" vert-adv-y="1000"  />

      
      <glyph glyph-name="uni75" unicode="&#x75;" d="M739 555L544 555L544 273C544 205 497 141 406 141C311 141 276 201 276 266L276 555L81 555L81 195C81 96 154-13 314-13L323-13C448-13 524 58 546 88L546 0L739 0Z"  horiz-adv-x="822" vert-adv-y="1000"  />

      
      <glyph glyph-name="uni76" unicode="&#x76;" d="M264 0L512 0L745 555L547 555L390 154L234 555L18 555Z"  horiz-adv-x="763" vert-adv-y="1000"  />

      
      <glyph glyph-name="uni77" unicode="&#x77;" d="M466 0L582 360L704 0L933 0L1129 555L944 555L821 170L697 555L477 555L362 170L229 555L22 555L239 0Z"  horiz-adv-x="1152" vert-adv-y="1000"  />

      
      <glyph glyph-name="uni78" unicode="&#x78;" d="M525 0L750 0L496 282L735 555L520 555L383 400L241 555L2 555L259 278L10 0L231 0L376 159Z"  horiz-adv-x="752" vert-adv-y="1000"  />

      
      <glyph glyph-name="uni79" unicode="&#x79;" d="M123-191L302-191C394-191 442-147 481-56L735 555L539 555L386 157L232 555L18 555L256 26C271-5 274-16 274-28L274-29C274-44 264-52 245-52L123-52Z"  horiz-adv-x="753" vert-adv-y="1000"  />

      
      <glyph glyph-name="uni7a" unicode="&#x7a;" d="M680 0L680 152L313 152L667 424L667 555L61 555L61 409L403 409L59 134L59 0Z"  horiz-adv-x="738" vert-adv-y="1000"  />

      
      <glyph glyph-name="uni7b" unicode="&#x7b;" d="M349-131L349-24L271-24C240-24 226-4 226 24C226 71 282 188 282 252C282 303 258 330 195 342C258 355 282 385 282 445C282 504 226 615 226 662C226 688 239 701 265 701L349 701L349 808L225 808C118 808 74 766 74 687C74 607 148 486 148 430C148 407 137 397 109 397L41 397L41 285L109 285C137 285 148 273 148 244C148 191 74 65 74-17C74-97 125-131 225-131Z"  horiz-adv-x="392" vert-adv-y="1000"  />

      
      <glyph glyph-name="uni7c" unicode="&#x7c;" d="M258 808L117 808L117-131L258-131Z"  horiz-adv-x="375" vert-adv-y="1000"  />

      
      <glyph glyph-name="uni7d" unicode="&#x7d;" d="M167-131C267-131 318-97 318-17C318 65 244 191 244 244C244 273 255 285 283 285L351 285L351 397L283 397C255 397 244 407 244 430C244 486 318 607 318 687C318 766 274 808 167 808L43 808L43 701L127 701C153 701 166 688 166 662C166 615 110 504 110 445C110 385 134 355 197 342C134 330 110 303 110 252C110 188 166 71 166 24C166-4 152-24 121-24L43-24L43-131Z"  horiz-adv-x="392" vert-adv-y="1000"  />

      
      <glyph glyph-name="uni7e" unicode="&#x7e;" d="M496 224C584 224 621 298 621 361L621 553L470 553L470 425C470 404 463 393 449 393C432 393 406 415 369 444C308 491 266 522 199 522C103 522 72 453 72 385L72 199L223 199L223 319C223 341 230 352 244 352C263 352 279 339 323 304C390 253 432 224 496 224Z"  horiz-adv-x="693" vert-adv-y="1000"  />

      
      <glyph glyph-name="unia1" unicode="&#xa1;" d="M301-189L236 313L141 313L77-189ZM81 378L296 378L296 555L81 555Z"  horiz-adv-x="378" vert-adv-y="1000"  />

      
      <glyph glyph-name="unia2" unicode="&#xa2;" d="M254 282C254 341 270 415 370 431L370 127C274 143 254 225 254 281ZM464-96L464-15C732-7 770 146 770 219L569 219C566 205 554 142 464 126L464 430C550 416 566 358 569 345L770 345L770 346C770 421 722 562 464 570L464 651L370 651L370 570C101 559 54 384 54 284L54 270C54 168 99-4 370-15L370-96Z"  horiz-adv-x="822" vert-adv-y="1000"  />

      
      <glyph glyph-name="unia3" unicode="&#xa3;" d="M812 269L608 269L608 153L302 153C325 168 351 205 351 276C351 291 350 305 349 321L636 321L636 422L338 422C335 445 334 466 334 483C334 541 351 601 463 601C584 601 585 516 588 487L800 487L800 489C800 582 778 753 480 753L444 753C200 753 140 623 140 518L140 510C140 482 144 453 151 422L54 422L54 321L176 321C184 288 190 258 190 234L190 232C190 176 160 153 116 153L54 153L54 0L812 0Z"  horiz-adv-x="875" vert-adv-y="1000"  />

      
      <glyph glyph-name="unia5" unicode="&#xa5;" d="M326 0L528 0L528 146L757 146L757 235L528 235L528 297L757 297L757 386L579 386L845 744L624 744L432 476L244 744L0 744L276 386L97 386L97 297L326 297L326 235L97 235L97 146L326 146Z"  horiz-adv-x="845" vert-adv-y="1000"  />

      
      <glyph glyph-name="unia7" unicode="&#xa7;" d="M581 185C557 193 531 198 336 235C268 248 251 278 251 313C251 344 265 367 282 378C303 370 329 363 530 328C595 316 613 286 613 251C613 223 600 198 581 185ZM455-209C692-209 755-111 755-8L755 2C755 58 734 109 683 142C738 158 805 197 805 283L805 293C805 389 758 449 572 481L401 511C309 527 299 548 299 575L299 577C299 605 313 628 429 628L436 628C562 628 569 571 572 547L764 547L764 550C764 641 734 756 456 756L420 756C177 756 108 683 108 574L108 564C108 495 139 449 183 422C115 404 58 362 58 286L58 277C58 188 106 115 294 81L462 51C554 35 561 11 561-17L561-19C561-46 545-77 442-77L435-77C294-77 280-13 280 20L86 20L86 17C86-54 106-209 418-209Z"  horiz-adv-x="863" vert-adv-y="1000"  />

      
      <glyph glyph-name="unia8" unicode="&#xa8;" d="M320 757L129 757L129 617L320 617ZM571 757L380 757L380 617L571 617Z"  horiz-adv-x="700" vert-adv-y="1000"  />

      
      <glyph glyph-name="unia9" unicode="&#xa9;" d="M1020 387C1020 575 909 755 552 755L527 755C170 755 59 575 59 387L59 359C59 166 170-11 526-11L553-11C909-11 1020 166 1020 359ZM529 75C248 75 166 219 166 366L166 378C166 541 246 669 529 669L550 669C833 669 913 541 913 378L913 366C913 219 830 75 550 75ZM554 147C798 147 828 271 828 329L828 333L672 333C669 318 652 260 543 260C435 260 407 321 407 373L407 381C407 437 434 487 542 487C649 487 669 433 672 420L827 420L827 423C827 478 802 600 554 600L531 600C291 600 257 467 257 384L257 367C257 285 297 147 531 147Z"  horiz-adv-x="1079" vert-adv-y="1000"  />

      
      <glyph glyph-name="uniaa" unicode="&#xaa;" d="M282 402C235 402 214 422 214 447C214 472 227 488 270 495L401 517L401 502C401 447 357 402 282 402ZM407 377C415 346 433 315 481 315L606 315L606 436L589 436C558 436 554 447 554 474L554 616C554 677 533 751 328 751L289 751C92 751 70 659 70 614L70 613L220 613C220 625 227 653 306 653L313 653C390 653 401 632 401 615C401 600 395 594 375 591L228 578C119 567 61 532 61 452L61 447C61 375 109 308 233 308L241 308C343 308 392 354 407 377Z"  horiz-adv-x="647" vert-adv-y="1000"  />

      
      <glyph glyph-name="uniab" unicode="&#xab;" d="M598 105L473 288L603 468L439 468L311 288L437 105ZM330 105L203 288L331 468L166 468L39 288L168 105Z"  horiz-adv-x="641" vert-adv-y="1000"  />

      
      <glyph glyph-name="uniae" unicode="&#xae;" d="M411 230C647 230 726 368 726 485L726 502C726 613 672 756 413 756L375 756C116 756 58 613 58 504L58 485C58 368 122 230 375 230ZM394 298C165 298 140 405 140 494C140 587 165 688 394 688L396 688C620 688 647 584 647 500C647 412 617 298 396 298ZM336 516L336 567L432 567C455 567 460 556 460 541C460 526 455 516 432 516ZM336 448L426 448C453 448 460 437 460 410L460 382C460 367 465 363 469 359L571 359L571 364C567 369 565 378 565 391L565 440C565 468 547 493 508 501C532 505 561 523 561 560L561 564C561 600 537 629 457 629L233 629L233 359L336 359Z"  horiz-adv-x="784" vert-adv-y="1000"  />

      
      <glyph glyph-name="uniaf" unicode="&#xaf;" d="M167 630L533 630L533 748L167 748Z"  horiz-adv-x="700" vert-adv-y="1000"  />

      
      <glyph glyph-name="unib0" unicode="&#xb0;" d="M266 350C389 350 476 442 476 555C476 667 389 756 266 756C137 756 50 667 50 555C50 442 137 350 266 350ZM264 462C207 462 171 499 171 554C171 605 207 644 264 644C319 644 356 605 356 554C356 499 319 462 264 462Z"  horiz-adv-x="526" vert-adv-y="1000"  />

      
      <glyph glyph-name="unib4" unicode="&#xb4;" d="M198 617L393 617L504 766L286 766Z"  horiz-adv-x="700" vert-adv-y="1000"  />

      
      <glyph glyph-name="unib6" unicode="&#xb6;" d="M337 0L472 0L472 626L561 626L561 0L697 0L697 626L771 626L771 744L298 744C112 744 52 659 52 546L52 527C52 412 131 328 296 328L337 328Z"  horiz-adv-x="808" vert-adv-y="1000"  />

      
      <glyph glyph-name="unib7" unicode="&#xb7;" d="M299 405L66 405L66 211L299 211Z"  horiz-adv-x="365" vert-adv-y="1000"  />

      
      <glyph glyph-name="unib8" unicode="&#xb8;" d="M343-258C472-258 500-209 500-154L500-151C500-89 472-50 343-50L338-50L338 0L227 0L227-123L307-123C335-123 342-133 342-146C342-159 335-168 307-168L198-168L198-258Z"  horiz-adv-x="701" vert-adv-y="1000"  />

      
      <glyph glyph-name="uniba" unicode="&#xba;" d="M317 751C120 751 60 636 60 538L60 524C60 427 120 308 317 308L357 308C557 308 611 427 611 524L611 538C608 635 558 751 357 751ZM337 426C254 426 227 479 227 532C227 588 254 635 337 635C417 635 446 587 446 532C446 479 419 426 337 426Z"  horiz-adv-x="671" vert-adv-y="1000"  />

      
      <glyph glyph-name="unibb" unicode="&#xbb;" d="M204 105L330 288L202 468L38 468L167 288L43 105ZM473 105L601 288L475 468L310 468L437 288L311 105Z"  horiz-adv-x="640" vert-adv-y="1000"  />

      
      <glyph glyph-name="unibf" unicode="&#xbf;" d="M337 313L337 300C337 255 320 243 269 224L220 207C90 162 46 104 46 14L46 7C46-97 119-198 378-198L434-198C735-198 766-49 766 39L766 51L555 51C552 22 554-47 406-47C273-47 255-18 255 13C255 40 270 56 335 81L383 99C505 144 531 181 531 263L531 313ZM326 378L541 378L541 555L326 555Z"  horiz-adv-x="806" vert-adv-y="1000"  />

      
      <glyph glyph-name="unic0" unicode="&#xc0;" d="M611 291L345 291L476 594ZM741 0L962 0L617 744L341 744L11 0L218 0L278 138L680 138ZM376 805L583 805L492 953L270 953Z"  horiz-adv-x="973" vert-adv-y="1000"  />

      
      <glyph glyph-name="unic1" unicode="&#xc1;" d="M611 291L345 291L476 594ZM741 0L962 0L617 744L341 744L11 0L218 0L278 138L680 138ZM582 805L688 953L466 953L375 805Z"  horiz-adv-x="973" vert-adv-y="1000"  />

      
      <glyph glyph-name="unic2" unicode="&#xc2;" d="M611 291L345 291L476 594ZM741 0L962 0L617 744L341 744L11 0L218 0L278 138L680 138ZM595 953L366 953L226 803L416 803L479 866L542 803L735 803Z"  horiz-adv-x="973" vert-adv-y="1000"  />

      
      <glyph glyph-name="unic3" unicode="&#xc3;" d="M611 291L345 291L476 594ZM741 0L962 0L617 744L341 744L11 0L218 0L278 138L680 138ZM393 840C393 852 396 862 407 862C418 862 433 855 464 842C515 821 551 806 588 806L590 806C661 806 677 862 677 904L677 982L565 982L565 942C565 930 562 920 551 920C540 920 525 927 494 940C443 961 407 976 370 976L368 976C297 976 281 920 281 878L281 800L393 800Z"  horiz-adv-x="973" vert-adv-y="1000"  />

      
      <glyph glyph-name="unic4" unicode="&#xc4;" d="M611 291L345 291L476 594ZM741 0L962 0L617 744L341 744L11 0L218 0L278 138L680 138ZM448 945L254 945L254 805L448 805ZM704 945L510 945L510 805L704 805Z"  horiz-adv-x="973" vert-adv-y="1000"  />

      
      <glyph glyph-name="unic5" unicode="&#xc5;" d="M611 291L345 291L476 594ZM741 0L962 0L617 744L341 744L11 0L218 0L278 138L680 138ZM311 926C311 859 352 796 479 796C607 796 648 859 648 926C648 997 605 1056 479 1056C354 1056 311 997 311 926ZM547 926C547 897 526 870 479 870C432 870 412 897 412 926C412 957 432 981 479 981C526 981 547 957 547 926Z"  horiz-adv-x="973" vert-adv-y="1000"  />

      
      <glyph glyph-name="unic6" unicode="&#xc6;" d="M568 281L375 281L568 601ZM568 0L1200 0L1200 164L771 164L771 293L1178 293L1178 461L771 461L771 582L1192 582L1192 744L451 744L-14 0L205 0L287 135L568 135Z"  horiz-adv-x="1273" vert-adv-y="1000"  />

      
      <glyph glyph-name="unic7" unicode="&#xc7;" d="M673-151C673-89 645-50 516-50L511-50L511-11L535-11C851-11 951 152 951 288L951 291L739 291C736 267 711 160 513 160C332 160 273 277 273 369L273 383C273 483 330 585 512 585C708 585 736 480 739 459L951 459L951 461C951 602 847 755 535 755L489 755C149 755 59 544 59 389L59 359C59 220 132 30 400-5L400-123L480-123C508-123 515-133 515-146C515-159 508-168 480-168L371-168L371-258L516-258C645-258 673-209 673-154Z"  horiz-adv-x="1007" vert-adv-y="1000"  />

      
      <glyph glyph-name="unic8" unicode="&#xc8;" d="M92 744L92 0L779 0L779 164L295 164L295 293L758 293L758 461L295 461L295 582L773 582L773 744ZM355 805L562 805L471 953L249 953Z"  horiz-adv-x="852" vert-adv-y="1000"  />

      
      <glyph glyph-name="unic9" unicode="&#xc9;" d="M92 744L92 0L779 0L779 164L295 164L295 293L758 293L758 461L295 461L295 582L773 582L773 744ZM537 805L643 953L421 953L330 805Z"  horiz-adv-x="852" vert-adv-y="1000"  />

      
      <glyph glyph-name="unica" unicode="&#xca;" d="M92 744L92 0L779 0L779 164L295 164L295 293L758 293L758 461L295 461L295 582L773 582L773 744ZM550 953L321 953L181 803L371 803L434 866L497 803L690 803Z"  horiz-adv-x="852" vert-adv-y="1000"  />

      
      <glyph glyph-name="unicb" unicode="&#xcb;" d="M92 744L92 0L779 0L779 164L295 164L295 293L758 293L758 461L295 461L295 582L773 582L773 744ZM403 945L209 945L209 805L403 805ZM659 945L465 945L465 805L659 805Z"  horiz-adv-x="852" vert-adv-y="1000"  />

      
      <glyph glyph-name="unicc" unicode="&#xcc;" d="M298 744L92 744L92 0L298 0ZM92 805L299 805L208 953L-14 953Z"  horiz-adv-x="390" vert-adv-y="1000"  />

      
      <glyph glyph-name="unicd" unicode="&#xcd;" d="M298 744L92 744L92 0L298 0ZM298 805L404 953L182 953L91 805Z"  horiz-adv-x="390" vert-adv-y="1000"  />

      
      <glyph glyph-name="unice" unicode="&#xce;" d="M298 744L92 744L92 0L298 0ZM311 953L82 953L-58 803L132 803L195 866L258 803L451 803Z"  horiz-adv-x="390" vert-adv-y="1000"  />

      
      <glyph glyph-name="unicf" unicode="&#xcf;" d="M298 744L92 744L92 0L298 0ZM164 945L-30 945L-30 805L164 805ZM420 945L226 945L226 805L420 805Z"  horiz-adv-x="390" vert-adv-y="1000"  />

      
      <glyph glyph-name="unid1" unicode="&#xd1;" d="M737 0L939 0L939 744L739 744L739 265L304 744L92 744L92 0L293 0L293 482ZM439 840C439 852 442 862 453 862C464 862 479 855 510 842C561 821 597 806 634 806L636 806C707 806 723 862 723 904L723 982L611 982L611 942C611 930 608 920 597 920C586 920 571 927 540 940C489 961 453 976 416 976L414 976C343 976 327 920 327 878L327 800L439 800Z"  horiz-adv-x="1031" vert-adv-y="1000"  />

      
      <glyph glyph-name="unid2" unicode="&#xd2;" d="M506 756C158 756 59 551 59 389L59 359C59 199 158-12 506-12L550-12C898-12 997 199 997 359L997 389C997 552 898 756 550 756ZM783 367C783 277 737 159 528 159C323 159 273 277 273 367L273 381C273 473 320 586 528 586C738 586 783 473 783 381ZM425 805L632 805L541 953L319 953Z"  horiz-adv-x="1056" vert-adv-y="1000"  />

      
      <glyph glyph-name="unid3" unicode="&#xd3;" d="M506 756C158 756 59 551 59 389L59 359C59 199 158-12 506-12L550-12C898-12 997 199 997 359L997 389C997 552 898 756 550 756ZM783 367C783 277 737 159 528 159C323 159 273 277 273 367L273 381C273 473 320 586 528 586C738 586 783 473 783 381ZM631 805L737 953L515 953L424 805Z"  horiz-adv-x="1056" vert-adv-y="1000"  />

      
      <glyph glyph-name="unid4" unicode="&#xd4;" d="M506 756C158 756 59 551 59 389L59 359C59 199 158-12 506-12L550-12C898-12 997 199 997 359L997 389C997 552 898 756 550 756ZM783 367C783 277 737 159 528 159C323 159 273 277 273 367L273 381C273 473 320 586 528 586C738 586 783 473 783 381ZM644 953L415 953L275 803L465 803L528 866L591 803L784 803Z"  horiz-adv-x="1056" vert-adv-y="1000"  />

      
      <glyph glyph-name="unid5" unicode="&#xd5;" d="M506 756C158 756 59 551 59 389L59 359C59 199 158-12 506-12L550-12C898-12 997 199 997 359L997 389C997 552 898 756 550 756ZM783 367C783 277 737 159 528 159C323 159 273 277 273 367L273 381C273 473 320 586 528 586C738 586 783 473 783 381ZM442 840C442 852 445 862 456 862C467 862 482 855 513 842C564 821 600 806 637 806L639 806C710 806 726 862 726 904L726 982L614 982L614 942C614 930 611 920 600 920C589 920 574 927 543 940C492 961 456 976 419 976L417 976C346 976 330 920 330 878L330 800L442 800Z"  horiz-adv-x="1056" vert-adv-y="1000"  />

      
      <glyph glyph-name="unid6" unicode="&#xd6;" d="M506 756C158 756 59 551 59 389L59 359C59 199 158-12 506-12L550-12C898-12 997 199 997 359L997 389C997 552 898 756 550 756ZM783 367C783 277 737 159 528 159C323 159 273 277 273 367L273 381C273 473 320 586 528 586C738 586 783 473 783 381ZM497 945L303 945L303 805L497 805ZM753 945L559 945L559 805L753 805Z"  horiz-adv-x="1056" vert-adv-y="1000"  />

      
      <glyph glyph-name="unid8" unicode="&#xd8;" d="M547-12C914-12 993 213 993 359L993 389C993 465 971 558 901 633L1022 744L839 744L797 706C734 737 655 756 547 756L505 756C139 756 55 537 59 389L59 359C59 283 81 190 154 112L33 0L215 0L258 38C322 7 398-12 505-12ZM268 382C268 473 314 588 526 588C579 588 619 584 652 573L301 248C278 285 268 329 268 368ZM527 158C476 158 436 164 404 172L755 498C776 461 784 419 784 382L784 368C784 277 738 158 527 158Z"  horiz-adv-x="1052" vert-adv-y="1000"  />

      
      <glyph glyph-name="unid9" unicode="&#xd9;" d="M523-11C875-11 927 217 927 366L927 744L722 744L722 371C722 286 700 164 511 164L506 164C317 164 293 286 293 371L293 744L87 744L87 366C87 218 129-11 494-11ZM405 805L612 805L521 953L299 953Z"  horiz-adv-x="1014" vert-adv-y="1000"  />

      
      <glyph glyph-name="unida" unicode="&#xda;" d="M523-11C875-11 927 217 927 366L927 744L722 744L722 371C722 286 700 164 511 164L506 164C317 164 293 286 293 371L293 744L87 744L87 366C87 218 129-11 494-11ZM610 805L716 953L494 953L403 805Z"  horiz-adv-x="1014" vert-adv-y="1000"  />

      
      <glyph glyph-name="unidb" unicode="&#xdb;" d="M523-11C875-11 927 217 927 366L927 744L722 744L722 371C722 286 700 164 511 164L506 164C317 164 293 286 293 371L293 744L87 744L87 366C87 218 129-11 494-11ZM624 953L395 953L255 803L445 803L508 866L571 803L764 803Z"  horiz-adv-x="1014" vert-adv-y="1000"  />

      
      <glyph glyph-name="unidc" unicode="&#xdc;" d="M523-11C875-11 927 217 927 366L927 744L722 744L722 371C722 286 700 164 511 164L506 164C317 164 293 286 293 371L293 744L87 744L87 366C87 218 129-11 494-11ZM477 945L283 945L283 805L477 805ZM733 945L539 945L539 805L733 805Z"  horiz-adv-x="1014" vert-adv-y="1000"  />

      
      <glyph glyph-name="unidf" unicode="&#xdf;" d="M606 438C663 454 728 500 728 585L728 591C728 675 670 772 418 772L412 772C109 772 83 638 83 541L83 0L278 0L278 523C278 587 303 632 406 632L412 632C522 632 537 590 537 555L537 553C537 521 526 473 442 473L347 473L347 332L456 332C560 332 577 286 577 239L577 238C577 190 560 141 456 141L347 141L347 0L469 0C713 0 777 102 777 232L777 244C777 384 665 427 606 438Z"  horiz-adv-x="830" vert-adv-y="1000"  />

      
      <glyph glyph-name="unie0" unicode="&#xe0;" d="M343 111C275 111 250 137 250 172L250 174C250 213 280 226 374 242C430 251 479 261 496 268L496 225C496 183 457 111 343 111ZM502 77C510 41 537 0 595 0L753 0L753 149L732 149C693 149 686 163 686 198L686 381C686 455 669 568 394 568L363 568C90 568 68 439 68 384L68 382L268 382C268 403 278 443 380 443C488 443 496 415 496 389C496 366 485 356 454 353L302 340C114 324 53 265 53 169L53 165C53 73 117-11 272-11L288-11C418-11 478 48 502 77ZM391 766L173 766L284 617L479 617Z"  horiz-adv-x="783" vert-adv-y="1000"  />

      
      <glyph glyph-name="unie1" unicode="&#xe1;" d="M343 111C275 111 250 137 250 172L250 174C250 213 280 226 374 242C430 251 479 261 496 268L496 225C496 183 457 111 343 111ZM502 77C510 41 537 0 595 0L753 0L753 149L732 149C693 149 686 163 686 198L686 381C686 455 669 568 394 568L363 568C90 568 68 439 68 384L68 382L268 382C268 403 278 443 380 443C488 443 496 415 496 389C496 366 485 356 454 353L302 340C114 324 53 265 53 169L53 165C53 73 117-11 272-11L288-11C418-11 478 48 502 77ZM282 616L477 616L588 765L370 765Z"  horiz-adv-x="783" vert-adv-y="1000"  />

      
      <glyph glyph-name="unie2" unicode="&#xe2;" d="M343 111C275 111 250 137 250 172L250 174C250 213 280 226 374 242C430 251 479 261 496 268L496 225C496 183 457 111 343 111ZM502 77C510 41 537 0 595 0L753 0L753 149L732 149C693 149 686 163 686 198L686 381C686 455 669 568 394 568L363 568C90 568 68 439 68 384L68 382L268 382C268 403 278 443 380 443C488 443 496 415 496 389C496 366 485 356 454 353L302 340C114 324 53 265 53 169L53 165C53 73 117-11 272-11L288-11C418-11 478 48 502 77ZM497 766L266 766L130 616L321 616L380 681L439 616L634 616Z"  horiz-adv-x="783" vert-adv-y="1000"  />

      
      <glyph glyph-name="unie3" unicode="&#xe3;" d="M343 111C275 111 250 137 250 172L250 174C250 213 280 226 374 242C430 251 479 261 496 268L496 225C496 183 457 111 343 111ZM502 77C510 41 537 0 595 0L753 0L753 149L732 149C693 149 686 163 686 198L686 381C686 455 669 568 394 568L363 568C90 568 68 439 68 384L68 382L268 382C268 403 278 443 380 443C488 443 496 415 496 389C496 366 485 356 454 353L302 340C114 324 53 265 53 169L53 165C53 73 117-11 272-11L288-11C418-11 478 48 502 77ZM567 797L455 797L455 757C455 742 450 735 441 735C430 735 420 741 391 756C344 780 318 791 281 791L279 791C209 791 193 734 193 693L193 614L305 614L305 654C305 669 310 676 319 676C330 676 340 670 369 655C416 631 442 620 479 620L481 620C551 620 567 677 567 718Z"  horiz-adv-x="783" vert-adv-y="1000"  />

      
      <glyph glyph-name="unie4" unicode="&#xe4;" d="M343 111C275 111 250 137 250 172L250 174C250 213 280 226 374 242C430 251 479 261 496 268L496 225C496 183 457 111 343 111ZM502 77C510 41 537 0 595 0L753 0L753 149L732 149C693 149 686 163 686 198L686 381C686 455 669 568 394 568L363 568C90 568 68 439 68 384L68 382L268 382C268 403 278 443 380 443C488 443 496 415 496 389C496 366 485 356 454 353L302 340C114 324 53 265 53 169L53 165C53 73 117-11 272-11L288-11C418-11 478 48 502 77ZM350 757L159 757L159 617L350 617ZM601 757L410 757L410 617L601 617Z"  horiz-adv-x="783" vert-adv-y="1000"  />

      
      <glyph glyph-name="unie5" unicode="&#xe5;" d="M343 111C275 111 250 137 250 172L250 174C250 213 280 226 374 242C430 251 479 261 496 268L496 225C496 183 457 111 343 111ZM502 77C510 41 537 0 595 0L753 0L753 149L732 149C693 149 686 163 686 198L686 381C686 455 669 568 394 568L363 568C90 568 68 439 68 384L68 382L268 382C268 403 278 443 380 443C488 443 496 415 496 389C496 366 485 356 454 353L302 340C114 324 53 265 53 169L53 165C53 73 117-11 272-11L288-11C418-11 478 48 502 77ZM212 741C212 672 253 611 380 611C508 611 549 672 549 741C549 810 506 870 380 870C255 870 212 810 212 741ZM313 741C313 772 333 795 380 795C427 795 448 772 448 741C448 712 427 685 380 685C333 685 313 712 313 741Z"  horiz-adv-x="783" vert-adv-y="1000"  />

      
      <glyph glyph-name="unie6" unicode="&#xe6;" d="M833 441C953 441 976 381 976 338L687 338C698 397 734 441 833 441ZM338 111C274 111 250 137 250 172L250 174C250 211 280 226 369 242C420 251 469 261 486 268L486 225C486 183 446 111 338 111ZM979 167C976 162 959 120 850 120C734 120 696 172 685 236L1185 236L1185 254C1185 409 1131 567 852 567L809 567C716 567 648 547 609 516C572 548 502 568 389 568L358 568C90 568 68 440 68 384L68 382L268 382C268 403 279 443 375 443C476 443 486 415 486 389C486 366 475 356 444 353L297 340C112 324 53 265 53 169L53 165C53 73 113-11 276-11L292-11C438-11 508 49 539 96C579 43 662-13 826-13L861-13C1144-13 1183 128 1183 167Z"  horiz-adv-x="1237" vert-adv-y="1000"  />

      
      <glyph glyph-name="unie7" unicode="&#xe7;" d="M567-151C567-89 539-50 410-50L405-50L405-15L432-15C699-15 749 134 749 218L545 218C545 205 528 130 412 130L402 130C289 130 256 212 256 281L256 282C256 349 283 428 398 428L408 428C523 428 542 359 545 343L749 343L749 344C749 424 696 570 428 570L382 570C103 570 54 389 54 284L54 270C54 177 94 27 294-8L294-123L374-123C402-123 409-133 409-146C409-159 402-168 374-168L265-168L265-258L410-258C539-258 567-209 567-154Z"  horiz-adv-x="801" vert-adv-y="1000"  />

      
      <glyph glyph-name="unie8" unicode="&#xe8;" d="M404 440C529 440 549 382 549 341L255 341C265 399 303 440 404 440ZM553 173C548 164 534 120 421 120C302 120 261 172 253 236L758 236L758 254C758 409 707 567 423 567L379 567C116 567 54 409 54 284L54 270C54 137 122-13 396-13L433-13C720-13 756 127 756 173ZM413 766L195 766L306 617L501 617Z"  horiz-adv-x="811" vert-adv-y="1000"  />

      
      <glyph glyph-name="unie9" unicode="&#xe9;" d="M404 440C529 440 549 382 549 341L255 341C265 399 303 440 404 440ZM553 173C548 164 534 120 421 120C302 120 261 172 253 236L758 236L758 254C758 409 707 567 423 567L379 567C116 567 54 409 54 284L54 270C54 137 122-13 396-13L433-13C720-13 756 127 756 173ZM304 617L499 617L610 766L392 766Z"  horiz-adv-x="811" vert-adv-y="1000"  />

      
      <glyph glyph-name="uniea" unicode="&#xea;" d="M404 440C529 440 549 382 549 341L255 341C265 399 303 440 404 440ZM553 173C548 164 534 120 421 120C302 120 261 172 253 236L758 236L758 254C758 409 707 567 423 567L379 567C116 567 54 409 54 284L54 270C54 137 122-13 396-13L433-13C720-13 756 127 756 173ZM519 766L288 766L152 616L343 616L402 681L461 616L656 616Z"  horiz-adv-x="811" vert-adv-y="1000"  />

      
      <glyph glyph-name="unieb" unicode="&#xeb;" d="M404 440C529 440 549 382 549 341L255 341C265 399 303 440 404 440ZM553 173C548 164 534 120 421 120C302 120 261 172 253 236L758 236L758 254C758 409 707 567 423 567L379 567C116 567 54 409 54 284L54 270C54 137 122-13 396-13L433-13C720-13 756 127 756 173ZM372 757L181 757L181 617L372 617ZM623 757L432 757L432 617L623 617Z"  horiz-adv-x="811" vert-adv-y="1000"  />

      
      <glyph glyph-name="uniec" unicode="&#xec;" d="M188 766L-26 766L81 617L276 617ZM278 555L83 555L83 0L278 0Z"  horiz-adv-x="361" vert-adv-y="1000"  />

      
      <glyph glyph-name="unied" unicode="&#xed;" d="M85 617L280 617L387 766L173 766ZM278 555L83 555L83 0L278 0Z"  horiz-adv-x="361" vert-adv-y="1000"  />

      
      <glyph glyph-name="uniee" unicode="&#xee;" d="M297 766L66 766L-50 616L130 616L180 684L230 616L414 616ZM278 555L83 555L83 0L278 0Z"  horiz-adv-x="361" vert-adv-y="1000"  />

      
      <glyph glyph-name="unief" unicode="&#xef;" d="M152 757L-20 757L-20 617L152 617ZM380 757L208 757L208 617L380 617ZM278 555L83 555L83 0L278 0Z"  horiz-adv-x="361" vert-adv-y="1000"  />

      
      <glyph glyph-name="unif1" unicode="&#xf1;" d="M83 0L278 0L278 282C278 350 326 415 419 415C515 415 552 353 552 289L552 0L747 0L747 360C747 459 674 568 511 568L501 568C374 568 301 497 276 467L276 555L83 555ZM603 797L491 797L491 757C491 742 486 735 477 735C466 735 456 741 427 756C380 780 354 791 317 791L315 791C245 791 229 734 229 693L229 614L341 614L341 654C341 669 346 676 355 676C366 676 376 670 405 655C452 631 478 620 515 620L517 620C587 620 603 677 603 718Z"  horiz-adv-x="828" vert-adv-y="1000"  />

      
      <glyph glyph-name="unif2" unicode="&#xf2;" d="M429-15C738-15 774 167 774 267L774 283C774 381 738 570 430 570L397 570C99 570 53 382 53 282L53 268C53 167 99-15 398-15ZM408 131C280 131 254 219 254 280C254 343 280 427 408 427L419 427C542 427 573 343 573 280C573 219 542 131 419 131ZM425 766L207 766L318 617L513 617Z"  horiz-adv-x="827" vert-adv-y="1000"  />

      
      <glyph glyph-name="unif3" unicode="&#xf3;" d="M429-15C738-15 774 167 774 267L774 283C774 381 738 570 430 570L397 570C99 570 53 382 53 282L53 268C53 167 99-15 398-15ZM408 131C280 131 254 219 254 280C254 343 280 427 408 427L419 427C542 427 573 343 573 280C573 219 542 131 419 131ZM316 617L511 617L622 766L404 766Z"  horiz-adv-x="827" vert-adv-y="1000"  />

      
      <glyph glyph-name="unif4" unicode="&#xf4;" d="M429-15C738-15 774 167 774 267L774 283C774 381 738 570 430 570L397 570C99 570 53 382 53 282L53 268C53 167 99-15 398-15ZM408 131C280 131 254 219 254 280C254 343 280 427 408 427L419 427C542 427 573 343 573 280C573 219 542 131 419 131ZM531 766L300 766L164 616L355 616L414 681L473 616L668 616Z"  horiz-adv-x="827" vert-adv-y="1000"  />

      
      <glyph glyph-name="unif5" unicode="&#xf5;" d="M429-15C738-15 774 167 774 267L774 283C774 381 738 570 430 570L397 570C99 570 53 382 53 282L53 268C53 167 99-15 398-15ZM408 131C280 131 254 219 254 280C254 343 280 427 408 427L419 427C542 427 573 343 573 280C573 219 542 131 419 131ZM601 797L489 797L489 757C489 742 484 735 475 735C464 735 454 741 425 756C378 780 352 791 315 791L313 791C243 791 227 734 227 693L227 614L339 614L339 654C339 669 344 676 353 676C364 676 374 670 403 655C450 631 476 620 513 620L515 620C585 620 601 677 601 718Z"  horiz-adv-x="827" vert-adv-y="1000"  />

      
      <glyph glyph-name="unif6" unicode="&#xf6;" d="M429-15C738-15 774 167 774 267L774 283C774 381 738 570 430 570L397 570C99 570 53 382 53 282L53 268C53 167 99-15 398-15ZM408 131C280 131 254 219 254 280C254 343 280 427 408 427L419 427C542 427 573 343 573 280C573 219 542 131 419 131ZM384 757L193 757L193 617L384 617ZM635 757L444 757L444 617L635 617Z"  horiz-adv-x="827" vert-adv-y="1000"  />

      
      <glyph glyph-name="unif7" unicode="&#xf7;" d="M438 614L235 614L235 456L438 456ZM74 386L74 254L599 254L599 386ZM438 181L235 181L235 22L438 22Z"  horiz-adv-x="673" vert-adv-y="1000"  />

      
      <glyph glyph-name="unif8" unicode="&#xf8;" d="M426-15C742-15 768 170 768 267L768 283C768 334 760 409 707 468L808 555L659 555L627 528C576 556 515 570 427 570L394 570C90 570 53 378 53 282L53 268C53 211 66 144 117 89L14 0L161 0L195 30C244 3 306-15 395-15ZM240 280C240 347 272 430 406 430L417 430C454 430 481 424 501 420L252 206C245 225 240 248 240 279ZM406 128C370 128 344 132 323 139L571 351C578 332 582 312 582 280L582 279C582 213 548 128 417 128Z"  horiz-adv-x="821" vert-adv-y="1000"  />

      
      <glyph glyph-name="unif9" unicode="&#xf9;" d="M739 555L544 555L544 273C544 205 497 141 406 141C311 141 276 201 276 266L276 555L81 555L81 195C81 96 154-13 314-13L323-13C448-13 524 58 546 88L546 0L739 0ZM421 766L203 766L314 617L509 617Z"  horiz-adv-x="822" vert-adv-y="1000"  />

      
      <glyph glyph-name="unifa" unicode="&#xfa;" d="M739 555L544 555L544 273C544 205 497 141 406 141C311 141 276 201 276 266L276 555L81 555L81 195C81 96 154-13 314-13L323-13C448-13 524 58 546 88L546 0L739 0ZM311 617L506 617L617 766L399 766Z"  horiz-adv-x="822" vert-adv-y="1000"  />

      
      <glyph glyph-name="unifb" unicode="&#xfb;" d="M739 555L544 555L544 273C544 205 497 141 406 141C311 141 276 201 276 266L276 555L81 555L81 195C81 96 154-13 314-13L323-13C448-13 524 58 546 88L546 0L739 0ZM527 766L296 766L160 616L351 616L410 681L469 616L664 616Z"  horiz-adv-x="822" vert-adv-y="1000"  />

      
      <glyph glyph-name="unifc" unicode="&#xfc;" d="M739 555L544 555L544 273C544 205 497 141 406 141C311 141 276 201 276 266L276 555L81 555L81 195C81 96 154-13 314-13L323-13C448-13 524 58 546 88L546 0L739 0ZM380 757L189 757L189 617L380 617ZM631 757L440 757L440 617L631 617Z"  horiz-adv-x="822" vert-adv-y="1000"  />

      
      <glyph glyph-name="uniff" unicode="&#xff;" d="M123-191L302-191C394-191 442-147 481-56L735 555L539 555L386 157L232 555L18 555L256 26C271-5 274-16 274-28L274-29C274-44 264-52 245-52L123-52ZM356 757L165 757L165 617L356 617ZM607 757L416 757L416 617L607 617Z"  horiz-adv-x="753" vert-adv-y="1000"  />

      
      <glyph glyph-name="uni0131" unicode="&#x0131;" d="M278 555L83 555L83 0L278 0Z"  horiz-adv-x="361" vert-adv-y="1000"  />

      
      <glyph glyph-name="uni0152" unicode="&#x0152;" d="M534 744C146 744 57 550 57 391L57 361C57 202 136 0 533 0L1288 0L1288 164L858 164L858 293L1266 293L1266 461L858 461L858 582L1279 582L1279 744ZM543 164C302 164 271 283 271 372L271 378C271 466 300 582 543 582L652 582L652 164Z"  horiz-adv-x="1361" vert-adv-y="1000"  />

      
      <glyph glyph-name="uni0153" unicode="&#x0153;" d="M913 441C1033 441 1054 381 1054 338L766 338C777 397 813 441 913 441ZM561 279C561 225 544 131 412 131L403 131C270 131 255 224 255 279L255 280C255 337 270 427 403 427L412 427C544 427 561 337 561 280ZM423-15C540-15 617 10 668 53C720 10 796-13 905-13L940-13C1223-13 1262 128 1262 167L1058 167C1055 162 1038 120 929 120C814 120 773 172 765 236L1264 236L1264 254C1264 409 1210 567 931 567L888 567C784 567 713 539 665 502C614 542 537 570 424 570L391 570C91 570 53 378 53 282L53 268C53 170 91-15 392-15Z"  horiz-adv-x="1316" vert-adv-y="1000"  />

      
      <glyph glyph-name="uni0178" unicode="&#x0178;" d="M367 0L573 0L573 271L929 744L699 744L476 449L253 744L-2 744L367 272ZM445 945L251 945L251 805L445 805ZM701 945L507 945L507 805L701 805Z"  horiz-adv-x="927" vert-adv-y="1000"  />

      
      <glyph glyph-name="uni02C6" unicode="&#x02C6;" d="M465 766L234 766L98 616L289 616L348 681L407 616L602 616Z"  horiz-adv-x="700" vert-adv-y="1000"  />

      
      <glyph glyph-name="uni02C7" unicode="&#x02C7;" d="M235 617L466 617L602 766L411 766L352 702L293 766L98 766Z"  horiz-adv-x="700" vert-adv-y="1000"  />

      
      <glyph glyph-name="uni02D8" unicode="&#x02D8;" d="M366 612C511 612 551 720 551 772L551 775L406 775C406 762 399 722 352 722C302 722 296 762 296 775L149 775L149 772C149 720 177 612 336 612Z"  horiz-adv-x="700" vert-adv-y="1000"  />

      
      <glyph glyph-name="uni02D9" unicode="&#x02D9;" d="M449 757L250 757L250 617L449 617Z"  horiz-adv-x="700" vert-adv-y="1000"  />

      
      <glyph glyph-name="uni02DA" unicode="&#x02DA;" d="M181 741C181 672 222 611 349 611C477 611 518 672 518 741C518 810 475 870 349 870C224 870 181 810 181 741ZM282 741C282 772 302 795 349 795C396 795 417 772 417 741C417 712 396 685 349 685C302 685 282 712 282 741Z"  horiz-adv-x="700" vert-adv-y="1000"  />

      
      <glyph glyph-name="uni02DB" unicode="&#x02DB;" d="M487-193L487-95L442-95C417-95 404-87 404-70C404-47 429-29 476 0L391 0C283-29 214-60 214-115L214-117C214-168 258-193 345-193Z"  horiz-adv-x="701" vert-adv-y="1000"  />

      
      <glyph glyph-name="uni02DC" unicode="&#x02DC;" d="M537 797L425 797L425 757C425 742 420 735 411 735C400 735 390 741 361 756C314 780 288 791 251 791L249 791C179 791 163 734 163 693L163 614L275 614L275 654C275 669 280 676 289 676C300 676 310 670 339 655C386 631 412 620 449 620L451 620C521 620 537 677 537 718Z"  horiz-adv-x="700" vert-adv-y="1000"  />

      
      <glyph glyph-name="uni02DD" unicode="&#x02DD;" d="M346 617L524 617L594 766L411 766ZM105 617L285 617L349 766L167 766Z"  horiz-adv-x="700" vert-adv-y="1000"  />

      
      <glyph glyph-name="uni2013" unicode="&#x2013;" d="M74 370L74 230L730 230L730 370Z"  horiz-adv-x="804" vert-adv-y="1000"  />

      
      <glyph glyph-name="uni2014" unicode="&#x2014;" d="M74 370L74 230L1145 230L1145 370Z"  horiz-adv-x="1219" vert-adv-y="1000"  />

      
      <glyph glyph-name="uni2018" unicode="&#x2018;" d="M111 744C90 708 61 636 61 565L61 437L293 437L293 603L188 603C196 646 219 703 242 744Z"  horiz-adv-x="358" vert-adv-y="1000"  />

      
      <glyph glyph-name="uni2019" unicode="&#x2019;" d="M245 437C264 475 295 544 295 616L295 744L63 744L63 578L168 578C160 535 137 478 114 437Z"  horiz-adv-x="358" vert-adv-y="1000"  />

      
      <glyph glyph-name="uni201A" unicode="&#x201A;" d="M245-141C264-103 295-34 295 38L295 166L63 166L63 0L168 0C160-43 137-100 114-141Z"  horiz-adv-x="358" vert-adv-y="1000"  />

      
      <glyph glyph-name="uni201C" unicode="&#x201C;" d="M424 744C403 708 374 636 374 565L374 437L606 437L606 603L501 603C509 646 532 703 555 744ZM111 744C90 708 61 636 61 565L61 437L293 437L293 603L188 603C196 646 219 703 242 744Z"  horiz-adv-x="671" vert-adv-y="1000"  />

      
      <glyph glyph-name="uni201D" unicode="&#x201D;" d="M558 437C577 475 608 544 608 616L608 744L376 744L376 578L481 578C473 535 450 478 427 437ZM245 437C264 475 295 544 295 616L295 744L63 744L63 578L168 578C160 535 137 478 114 437Z"  horiz-adv-x="671" vert-adv-y="1000"  />

      
      <glyph glyph-name="uni201E" unicode="&#x201E;" d="M558-141C577-103 608-34 608 38L608 166L376 166L376 0L481 0C473-43 450-100 427-141ZM245-141C264-103 295-34 295 38L295 166L63 166L63 0L168 0C160-43 137-100 114-141Z"  horiz-adv-x="671" vert-adv-y="1000"  />

      
      <glyph glyph-name="uni2020" unicode="&#x2020;" d="M182 0L358 0L358 447L498 447L498 586L358 586L358 744L182 744L182 586L42 586L42 447L182 447Z"  horiz-adv-x="540" vert-adv-y="1000"  />

      
      <glyph glyph-name="uni2021" unicode="&#x2021;" d="M363 453L504 453L504 591L363 591L363 744L193 744L193 591L52 591L52 453L193 453L193 294L52 294L52 157L193 157L193 0L363 0L363 157L504 157L504 294L363 294Z"  horiz-adv-x="556" vert-adv-y="1000"  />

      
      <glyph glyph-name="uni2022" unicode="&#x2022;" d="M395 329C395 422 329 493 225 493C124 493 60 422 60 329C60 234 124 166 225 166C329 166 395 234 395 329Z"  horiz-adv-x="455" vert-adv-y="1000"  />

      
      <glyph glyph-name="uni2026" unicode="&#x2026;" d="M1029 194L796 194L796 0L1029 0ZM664 194L431 194L431 0L664 0ZM299 194L66 194L66 0L299 0Z"  horiz-adv-x="1095" vert-adv-y="1000"  />

      
      <glyph glyph-name="uni2030" unicode="&#x2030;" d="M1643-8C1848-8 1892 129 1892 204L1892 221C1892 297 1848 429 1643 429L1622 429C1417 429 1373 297 1373 221L1373 204C1373 129 1417-8 1622-8ZM1631 311C1719 311 1749 265 1749 217L1749 208C1749 164 1719 111 1631 111C1544 111 1515 163 1515 210L1515 217C1515 265 1542 311 1631 311ZM311 316C516 316 560 452 560 527L560 545C560 621 516 753 311 753L289 753C84 753 41 621 41 545L41 527C41 452 84 316 289 316ZM933 744L243 0L413 0L1102 744ZM417 532C417 488 387 435 299 435C212 435 183 487 183 534L183 540C183 589 210 635 299 635C387 635 417 589 417 540ZM1057-8C1262-8 1306 129 1306 204L1306 221C1306 297 1262 429 1057 429L1036 429C831 429 787 297 787 221L787 204C787 129 831-8 1036-8ZM1045 311C1133 311 1163 265 1163 217L1163 208C1163 164 1133 111 1045 111C958 111 929 163 929 210L929 217C929 265 956 311 1045 311Z"  horiz-adv-x="1933" vert-adv-y="1000"  />

      
      <glyph glyph-name="uni2039" unicode="&#x2039;" d="M346 105L212 288L350 468L176 468L39 288L175 105Z"  horiz-adv-x="388" vert-adv-y="1000"  />

      
      <glyph glyph-name="uni203A" unicode="&#x203A;" d="M213 105L349 288L212 468L38 468L176 288L42 105Z"  horiz-adv-x="388" vert-adv-y="1000"  />

      
      <glyph glyph-name="uni2044" unicode="&#x2044;" d="M685 744L0 0L162 0L841 744Z"  horiz-adv-x="841" vert-adv-y="1000"  />

      
      <glyph glyph-name="uni20AC" unicode="&#x20AC;" d="M975 287L763 287C761 272 737 155 552 155C447 155 390 200 359 257L624 257L624 346L334 346C333 354 333 361 333 369L333 383C333 391 333 400 334 408L624 408L624 497L358 497C386 550 443 590 551 590C735 590 760 479 763 463L975 463L975 465C975 598 878 755 578 755L532 755C280 755 173 624 139 497L38 497L38 408L124 408L124 346L38 346L38 257L137 257C172 126 275-11 532-11L578-11C881-11 975 156 975 284Z"  horiz-adv-x="1030" vert-adv-y="1000"  />

      
      <glyph glyph-name="uni2122" unicode="&#x2122;" d="M461 635L461 744L37 744L37 635L177 635L177 345L321 345L321 635ZM530 345L658 345L658 617L770 345L857 345L970 617L970 345L1098 345L1098 744L905 744L819 531L733 744L530 744Z"  horiz-adv-x="1182" vert-adv-y="1000"  />

      
      <glyph glyph-name="uniFB01" unicode="&#xFB01;" d="M477 757L334 757C195 757 161 696 161 600L161 555L38 555L38 415L161 415L161 0L355 0L355 415L477 415L477 555L355 555L355 590C355 623 368 636 399 636L477 636ZM796 757L597 757L597 617L796 617ZM794 555L599 555L599 0L794 0Z"  horiz-adv-x="877" vert-adv-y="1000"  />

      
      <glyph glyph-name="uniFB02" unicode="&#xFB02;" d="M477 757L334 757C195 757 161 696 161 600L161 555L38 555L38 415L161 415L161 0L355 0L355 415L477 415L477 555L355 555L355 590C355 623 368 636 399 636L477 636ZM794 757L599 757L599 0L794 0Z"  horiz-adv-x="877" vert-adv-y="1000"  />

      
      <glyph glyph-name="uni0192" unicode="&#x0192;" d="M502 327L502 466L375 466L380 560C383 596 396 605 428 605L502 605L502 744L369 744C233 744 195 689 190 584L184 466L58 466L58 327L177 327L150-193L340-193L368 327Z"  horiz-adv-x="560" vert-adv-y="1000"  />

      
      <glyph glyph-name="unia6" unicode="&#xa6;" d="M258 808L117 808L117 418L258 418ZM258 297L117 297L117-131L258-131Z"  horiz-adv-x="375" vert-adv-y="1000"  />

      
      <glyph glyph-name="unibc" unicode="&#xbc;" d="M165 559L165 317L312 317L312 744L195 744C177 692 158 665 48 665L48 559ZM786 744L101 0L263 0L942 744ZM611 86L883 86L883 0L1028 0L1028 86L1113 86L1113 189L1028 189L1028 428L863 428L737 300L611 172ZM883 326L883 189L751 189Z"  horiz-adv-x="1159" vert-adv-y="1000"  />

      
      <glyph glyph-name="unibd" unicode="&#xbd;" d="M786 744L101 0L263 0L942 744ZM165 559L165 317L312 317L312 744L195 744C177 692 158 665 48 665L48 559ZM1170 0L1170 115L817 115L817 116C817 128 845 142 953 158C1101 182 1170 208 1170 294L1170 299C1170 371 1135 434 938 434L918 434C714 434 687 336 687 287L687 283L842 283C842 296 854 330 931 330C999 330 1012 317 1012 297C1012 277 997 270 922 254C703 209 681 127 681 50L681 0Z"  horiz-adv-x="1228" vert-adv-y="1000"  />

      
      <glyph glyph-name="unibe" unicode="&#xbe;" d="M982 744L297 0L459 0L1138 744ZM317 311C521 311 561 389 561 460L561 464C561 521 526 553 479 564C522 572 547 600 547 636L547 640C547 686 526 752 309 752L278 752C70 752 53 659 53 621L53 614L204 614C204 622 214 650 298 650C382 650 394 633 394 617L394 616C394 601 387 591 350 591L233 591L233 493L354 493C393 493 401 480 401 464L401 462C401 444 391 421 302 421C213 421 208 459 205 467L48 467L48 463C48 419 69 311 283 311ZM807 85L1079 85L1079-1L1224-1L1224 85L1309 85L1309 188L1224 188L1224 427L1059 427L933 299L807 171ZM1079 325L1079 188L947 188Z"  horiz-adv-x="1355" vert-adv-y="1000"  />

      
      <glyph glyph-name="unid0" unicode="&#xd0;" d="M325 166L325 308L566 308L566 448L325 448L325 579L491 579C739 579 763 462 763 378L763 372C763 288 741 166 491 166ZM119 0L501 0C909 0 977 212 977 368L977 398C977 549 888 744 500 744L119 744L119 448L17 448L17 308L119 308Z"  horiz-adv-x="1034" vert-adv-y="1000"  />

      
      <glyph glyph-name="unid7" unicode="&#xd7;" d="M450 67L548 165L400 310L548 456L450 550L303 405L157 549L56 450L203 307L57 162L155 67L301 212Z"  horiz-adv-x="604" vert-adv-y="1000"  />

      
      <glyph glyph-name="unidd" unicode="&#xdd;" d="M367 0L573 0L573 271L929 744L699 744L476 449L253 744L-2 744L367 272ZM579 805L685 953L463 953L372 805Z"  horiz-adv-x="927" vert-adv-y="1000"  />

      
      <glyph glyph-name="unide" unicode="&#xde;" d="M588 132C817 132 890 237 890 376L890 388C890 527 821 630 588 630L298 630L298 744L92 744L92 0L298 0L298 132ZM298 467L573 467C645 467 676 432 676 384L676 379C676 328 645 295 573 295L298 295Z"  horiz-adv-x="942" vert-adv-y="1000"  />

      
      <glyph glyph-name="unif0" unicode="&#xf0;" d="M427-15C695-15 774 124 774 281L774 297C774 431 729 524 606 633L598 640L706 656L706 733L522 707L465 757L215 757L307 676L170 656L170 578L383 609L497 510C460 530 410 548 334 548L319 548C142 548 53 435 53 282L53 265C53 121 141-15 395-15ZM574 279C574 224 548 131 420 131L409 131C277 131 255 224 255 279L255 280C255 337 277 427 409 427L420 427C548 427 574 337 574 280Z"  horiz-adv-x="827" vert-adv-y="1000"  />

      
      <glyph glyph-name="unifd" unicode="&#xfd;" d="M123-191L302-191C394-191 442-147 481-56L735 555L539 555L386 157L232 555L18 555L256 26C271-5 274-16 274-28L274-29C274-44 264-52 245-52L123-52ZM288 617L483 617L594 766L376 766Z"  horiz-adv-x="753" vert-adv-y="1000"  />

      
      <glyph glyph-name="unife" unicode="&#xfe;" d="M584 277C584 217 558 137 435 137L425 137C306 137 273 214 273 277L273 280C273 344 307 420 425 420L435 420C558 420 584 340 584 280ZM83-191L272-191L272 67C291 45 358-11 476-11L489-11C726-11 786 152 786 272L786 289C786 424 729 566 492 566L480 566C360 566 291 503 272 479L272 757L83 757Z"  horiz-adv-x="841" vert-adv-y="1000"  />

      
      <glyph glyph-name="uni0141" unicode="&#x0141;" d="M114 744L114 353L15 313L15 182L114 220L114 0L775 0L775 175L320 175L320 301L575 401L575 540L320 436L320 744Z"  horiz-adv-x="825" vert-adv-y="1000"  />

      
      <glyph glyph-name="uni0142" unicode="&#x0142;" d="M302 393L392 434L392 560L302 518L302 757L107 757L107 428L17 386L17 263L107 304L107 0L302 0Z"  horiz-adv-x="409" vert-adv-y="1000"  />

      
      <glyph glyph-name="uni0160" unicode="&#x0160;" d="M480-13C813-13 863 126 863 235L863 247C863 368 799 454 534 465L431 469C314 474 287 502 287 540C287 581 318 606 450 606L460 606C604 606 622 557 627 524L848 524L848 535C848 633 803 753 474 753L440 753C132 753 70 649 70 533L70 524C70 412 148 315 392 307L491 304C614 299 643 272 643 227C643 184 623 138 468 138L461 138C303 138 289 212 286 245L62 245L62 234C62 145 102-13 451-13ZM342 805L573 805L713 953L522 953L459 889L396 953L202 953Z"  horiz-adv-x="925" vert-adv-y="1000"  />

      
      <glyph glyph-name="uni0161" unicode="&#x0161;" d="M376-13C643-13 683 84 683 177L683 184C683 277 628 340 428 348L352 351C272 354 252 372 252 403C252 431 274 449 358 449L361 449C452 449 461 415 467 395L671 395L671 398C671 470 639 568 370 568L343 568C108 568 56 489 56 394L56 388C56 296 121 233 300 222L376 216C469 211 482 191 482 163C482 136 462 110 375 110L373 110C274 110 265 150 262 169L53 169L53 164C53 117 77-13 350-13ZM245 617L476 617L612 766L421 766L362 702L303 766L108 766Z"  horiz-adv-x="737" vert-adv-y="1000"  />

      
      <glyph glyph-name="uni017D" unicode="&#x017D;" d="M835 0L835 170L356 170L831 601L831 744L77 744L77 576L530 576L74 143L74 0ZM338 805L569 805L709 953L518 953L455 889L392 953L198 953Z"  horiz-adv-x="908" vert-adv-y="1000"  />

      
      <glyph glyph-name="uni017E" unicode="&#x017E;" d="M680 0L680 152L313 152L667 424L667 555L61 555L61 409L403 409L59 134L59 0ZM249 617L480 617L616 766L425 766L366 702L307 766L112 766Z"  horiz-adv-x="738" vert-adv-y="1000"  />

      
      <glyph glyph-name="uni2212" unicode="&#x2212;" d="M74 388L74 252L582 252L582 388Z"  horiz-adv-x="656" vert-adv-y="1000"  />

      
      <glyph glyph-name="uni0110" unicode="&#x0110;" d="M325 166L325 308L566 308L566 448L325 448L325 579L491 579C739 579 763 462 763 378L763 372C763 288 741 166 491 166ZM119 0L501 0C909 0 977 212 977 368L977 398C977 549 888 744 500 744L119 744L119 448L17 448L17 308L119 308Z"  horiz-adv-x="1034" vert-adv-y="1000"  />

      
      <glyph glyph-name="uni014A" unicode="&#x014A;" d="M602-193L795-193C892-193 940-138 940-38L940 744L740 744L740 269L304 744L92 744L92 0L293 0L293 480L740 0L740-5C740-33 731-44 700-44L602-44Z"  horiz-adv-x="1032" vert-adv-y="1000"  />

      
      <glyph glyph-name="uni0132" unicode="&#x0132;" d="M298 744L92 744L92 0L298 0ZM814-12C1119-12 1171 211 1171 346L1171 744L965 744L965 346C965 251 930 164 799 164L795 164C668 164 647 267 644 319L431 319L431 313C431 192 492-12 781-12Z"  horiz-adv-x="1258" vert-adv-y="1000"  />

      
      <glyph glyph-name="uni0111" unicode="&#x0111;" d="M301 618L857 618L857 705L301 705ZM418 421C534 421 571 344 571 280L571 277C571 216 534 136 418 136L407 136C285 136 257 220 257 277L257 280C257 340 285 421 407 421ZM569 757L569 496C545 518 481 566 354 566L342 566C138 566 56 426 56 287L56 270C56 129 141-11 344-11L357-11C488-11 551 50 570 72L570 0L764 0L764 757Z"  horiz-adv-x="847" vert-adv-y="1000"  />

      
      <glyph glyph-name="uni014B" unicode="&#x014B;" d="M453-46L453-191L631-191C708-191 747-141 747-49L747 360C747 459 674 568 511 568L501 568C374 568 301 497 276 467L276 555L83 555L83 0L278 0L278 282C278 350 326 414 419 414C515 414 552 353 552 289L552-2C552-34 542-46 513-46Z"  horiz-adv-x="828" vert-adv-y="1000"  />

      
      <glyph glyph-name="uni0133" unicode="&#x0133;" d="M280 757L81 757L81 617L280 617ZM278 555L83 555L83 0L278 0ZM641 757L442 757L442 617L641 617ZM345-46L345-191L523-191C600-191 639-141 639-49L639 555L444 555L444-2C444-34 434-46 405-46Z"  horiz-adv-x="722" vert-adv-y="1000"  />

      
      <glyph glyph-name="uni0102" unicode="&#x0102;" d="M611 291L345 291L476 594ZM741 0L962 0L617 744L341 744L11 0L218 0L278 138L680 138ZM494 800C639 800 682 908 682 960L682 963L537 963C534 947 527 910 480 910C430 910 423 947 420 963L274 963L274 960C274 908 305 800 464 800Z"  horiz-adv-x="973" vert-adv-y="1000"  />

      
      <glyph glyph-name="uni0100" unicode="&#x0100;" d="M611 291L345 291L476 594ZM741 0L962 0L617 744L341 744L11 0L218 0L278 138L680 138ZM291 820L668 820L668 938L291 938Z"  horiz-adv-x="973" vert-adv-y="1000"  />

      
      <glyph glyph-name="uni0104" unicode="&#x0104;" d="M611 291L345 291L476 594ZM741 0L962 0L617 744L341 744L11 0L218 0L278 138L680 138ZM973-193L973-95L928-95C903-95 890-87 890-70C890-47 915-29 962 0L877 0C769-29 700-60 700-115L700-117C700-168 744-193 831-193Z"  horiz-adv-x="973" vert-adv-y="1000"  />

      
      <glyph glyph-name="uni01FA" unicode="&#x01FA;" d="M611 291L345 291L476 594ZM741 0L962 0L617 744L341 744L11 0L218 0L278 138L680 138ZM311 926C311 859 352 796 479 796C607 796 648 859 648 926C648 997 605 1056 479 1056C354 1056 311 997 311 926ZM547 926C547 897 526 870 479 870C432 870 412 897 412 926C412 957 432 981 479 981C526 981 547 957 547 926ZM582 1091L688 1239L466 1239L375 1091Z"  horiz-adv-x="973" vert-adv-y="1000"  />

      
      <glyph glyph-name="uni01FC" unicode="&#x01FC;" d="M568 281L375 281L568 601ZM568 0L1200 0L1200 164L771 164L771 293L1178 293L1178 461L771 461L771 582L1192 582L1192 744L451 744L-14 0L205 0L287 135L568 135ZM925 805L1031 953L809 953L718 805Z"  horiz-adv-x="1273" vert-adv-y="1000"  />

      
      <glyph glyph-name="uni0106" unicode="&#x0106;" d="M535-11C851-11 951 152 951 288L951 291L739 291C736 267 711 160 513 160C332 160 273 277 273 369L273 383C273 483 330 585 512 585C708 585 736 480 739 459L951 459L951 461C951 602 847 755 535 755L489 755C149 755 59 544 59 389L59 359C59 207 149-11 489-11ZM615 805L721 953L499 953L408 805Z"  horiz-adv-x="1007" vert-adv-y="1000"  />

      
      <glyph glyph-name="uni010C" unicode="&#x010C;" d="M535-11C851-11 951 152 951 288L951 291L739 291C736 267 711 160 513 160C332 160 273 277 273 369L273 383C273 483 330 585 512 585C708 585 736 480 739 459L951 459L951 461C951 602 847 755 535 755L489 755C149 755 59 544 59 389L59 359C59 207 149-11 489-11ZM396 805L627 805L767 953L576 953L513 889L450 953L256 953Z"  horiz-adv-x="1007" vert-adv-y="1000"  />

      
      <glyph glyph-name="uni0108" unicode="&#x0108;" d="M535-11C851-11 951 152 951 288L951 291L739 291C736 267 711 160 513 160C332 160 273 277 273 369L273 383C273 483 330 585 512 585C708 585 736 480 739 459L951 459L951 461C951 602 847 755 535 755L489 755C149 755 59 544 59 389L59 359C59 207 149-11 489-11ZM628 953L399 953L259 803L449 803L512 866L575 803L768 803Z"  horiz-adv-x="1007" vert-adv-y="1000"  />

      
      <glyph glyph-name="uni010A" unicode="&#x010A;" d="M535-11C851-11 951 152 951 288L951 291L739 291C736 267 711 160 513 160C332 160 273 277 273 369L273 383C273 483 330 585 512 585C708 585 736 480 739 459L951 459L951 461C951 602 847 755 535 755L489 755C149 755 59 544 59 389L59 359C59 207 149-11 489-11ZM612 945L413 945L413 805L612 805Z"  horiz-adv-x="1007" vert-adv-y="1000"  />

      
      <glyph glyph-name="uni010E" unicode="&#x010E;" d="M92 0L474 0C882 0 950 212 950 368L950 398C950 549 861 744 473 744L92 744ZM298 579L464 579C712 579 736 462 736 378L736 372C736 288 714 166 464 166L298 166ZM300 805L531 805L671 953L480 953L417 889L354 953L160 953Z"  horiz-adv-x="1007" vert-adv-y="1000"  />

      
      <glyph glyph-name="uni0114" unicode="&#x0114;" d="M92 744L92 0L779 0L779 164L295 164L295 293L758 293L758 461L295 461L295 582L773 582L773 744ZM449 800C594 800 637 908 637 960L637 963L492 963C489 947 482 910 435 910C385 910 378 947 375 963L229 963L229 960C229 908 260 800 419 800Z"  horiz-adv-x="852" vert-adv-y="1000"  />

      
      <glyph glyph-name="uni011A" unicode="&#x011A;" d="M92 744L92 0L779 0L779 164L295 164L295 293L758 293L758 461L295 461L295 582L773 582L773 744ZM318 805L549 805L689 953L498 953L435 889L372 953L178 953Z"  horiz-adv-x="852" vert-adv-y="1000"  />

      
      <glyph glyph-name="uni0116" unicode="&#x0116;" d="M92 744L92 0L779 0L779 164L295 164L295 293L758 293L758 461L295 461L295 582L773 582L773 744ZM534 945L335 945L335 805L534 805Z"  horiz-adv-x="852" vert-adv-y="1000"  />

      
      <glyph glyph-name="uni0112" unicode="&#x0112;" d="M92 744L92 0L779 0L779 164L295 164L295 293L758 293L758 461L295 461L295 582L773 582L773 744ZM246 820L623 820L623 938L246 938Z"  horiz-adv-x="852" vert-adv-y="1000"  />

      
      <glyph glyph-name="uni0118" unicode="&#x0118;" d="M92 744L92 0L779 0L779 164L295 164L295 293L758 293L758 461L295 461L295 582L773 582L773 744ZM694-193L694-95L649-95C624-95 611-87 611-70C611-47 636-29 683 0L598 0C490-29 421-60 421-115L421-117C421-168 465-193 552-193Z"  horiz-adv-x="852" vert-adv-y="1000"  />

      
      <glyph glyph-name="uni011E" unicode="&#x011E;" d="M506-11C681-11 759 82 775 103C786 79 797 27 800 0L964 0L964 406L535 406L535 273L737 273C734 251 695 157 519 157C335 157 273 273 273 370L273 383C273 483 329 586 512 586C705 586 734 507 742 488L955 488L955 490C955 613 852 754 528 754L494 754C155 754 59 546 59 388L59 361C59 194 162-11 490-11ZM526 800C671 800 714 908 714 960L714 963L569 963C566 947 559 910 512 910C462 910 455 947 452 963L306 963L306 960C306 908 337 800 496 800Z"  horiz-adv-x="1044" vert-adv-y="1000"  />

      
      <glyph glyph-name="uni011C" unicode="&#x011C;" d="M506-11C681-11 759 82 775 103C786 79 797 27 800 0L964 0L964 406L535 406L535 273L737 273C734 251 695 157 519 157C335 157 273 273 273 370L273 383C273 483 329 586 512 586C705 586 734 507 742 488L955 488L955 490C955 613 852 754 528 754L494 754C155 754 59 546 59 388L59 361C59 194 162-11 490-11ZM627 953L398 953L258 803L448 803L511 866L574 803L767 803Z"  horiz-adv-x="1044" vert-adv-y="1000"  />

      
      <glyph glyph-name="uni0122" unicode="&#x0122;" d="M506-11C681-11 759 82 775 103C786 79 797 27 800 0L964 0L964 406L535 406L535 273L737 273C734 251 695 157 519 157C335 157 273 273 273 370L273 383C273 483 329 586 512 586C705 586 734 507 742 488L955 488L955 490C955 613 852 754 528 754L494 754C155 754 59 546 59 388L59 361C59 194 162-11 490-11ZM588-280C601-256 618-210 618-173L618-62L404-62L404-196L508-196C503-225 491-256 479-280Z"  horiz-adv-x="1044" vert-adv-y="1000"  />

      
      <glyph glyph-name="uni0120" unicode="&#x0120;" d="M506-11C681-11 759 82 775 103C786 79 797 27 800 0L964 0L964 406L535 406L535 273L737 273C734 251 695 157 519 157C335 157 273 273 273 370L273 383C273 483 329 586 512 586C705 586 734 507 742 488L955 488L955 490C955 613 852 754 528 754L494 754C155 754 59 546 59 388L59 361C59 194 162-11 490-11ZM611 945L412 945L412 805L611 805Z"  horiz-adv-x="1044" vert-adv-y="1000"  />

      
      <glyph glyph-name="uni0126" unicode="&#x0126;" d="M718 555L718 468L303 468L303 555ZM97 0L303 0L303 299L718 299L718 0L924 0L924 555L1011 555L1011 659L924 659L924 744L718 744L718 659L303 659L303 744L97 744L97 659L10 659L10 555L97 555Z"  horiz-adv-x="1021" vert-adv-y="1000"  />

      
      <glyph glyph-name="uni0124" unicode="&#x0124;" d="M92 0L298 0L298 299L713 299L713 0L919 0L919 744L713 744L713 468L298 468L298 744L92 744ZM621 953L392 953L252 803L442 803L505 866L568 803L761 803Z"  horiz-adv-x="1011" vert-adv-y="1000"  />

      
      <glyph glyph-name="uni012C" unicode="&#x012C;" d="M298 744L92 744L92 0L298 0ZM210 800C355 800 398 908 398 960L398 963L253 963C250 947 243 910 196 910C146 910 139 947 136 963L-10 963L-10 960C-10 908 21 800 180 800Z"  horiz-adv-x="390" vert-adv-y="1000"  />

      
      <glyph glyph-name="uni0130" unicode="&#x0130;" d="M298 744L92 744L92 0L298 0ZM295 945L96 945L96 805L295 805Z"  horiz-adv-x="390" vert-adv-y="1000"  />

      
      <glyph glyph-name="uni012A" unicode="&#x012A;" d="M298 744L92 744L92 0L298 0ZM7 820L384 820L384 938L7 938Z"  horiz-adv-x="390" vert-adv-y="1000"  />

      
      <glyph glyph-name="uni012E" unicode="&#x012E;" d="M298 744L92 744L92 0L298 0ZM309-193L309-95L264-95C239-95 226-87 226-70C226-47 251-29 298 0L213 0C105-29 36-60 36-115L36-117C36-168 80-193 167-193Z"  horiz-adv-x="390" vert-adv-y="1000"  />

      
      <glyph glyph-name="uni0128" unicode="&#x0128;" d="M298 744L92 744L92 0L298 0ZM109 840C109 852 112 862 123 862C134 862 149 855 180 842C231 821 267 806 304 806L306 806C377 806 393 862 393 904L393 982L281 982L281 942C281 930 278 920 267 920C256 920 241 927 210 940C159 961 123 976 86 976L84 976C13 976-3 920-3 878L-3 800L109 800Z"  horiz-adv-x="390" vert-adv-y="1000"  />

      
      <glyph glyph-name="uni0134" unicode="&#x0134;" d="M424-12C729-12 781 211 781 346L781 744L575 744L575 346C575 251 540 164 409 164L405 164C278 164 257 267 254 319L41 319L41 313C41 192 102-12 391-12ZM793 953L564 953L424 803L614 803L677 866L740 803L933 803Z"  horiz-adv-x="868" vert-adv-y="1000"  />

      
      <glyph glyph-name="uni0136" unicode="&#x0136;" d="M298 0L298 350L656 0L925 0L516 403L908 744L646 744L298 438L298 744L92 744L92 0ZM548-280C561-256 578-210 578-173L578-62L364-62L364-196L468-196C463-225 451-256 439-280Z"  horiz-adv-x="923" vert-adv-y="1000"  />

      
      <glyph glyph-name="uni0139" unicode="&#x0139;" d="M92 744L92 0L753 0L753 175L298 175L298 744ZM298 805L404 953L182 953L91 805Z"  horiz-adv-x="802" vert-adv-y="1000"  />

      
      <glyph glyph-name="uni013D" unicode="&#x013D;" d="M92 744L92 0L753 0L753 175L298 175L298 744ZM348 604L501 604L529 753L365 753Z"  horiz-adv-x="803" vert-adv-y="1000"  />

      
      <glyph glyph-name="uni013B" unicode="&#x013B;" d="M92 744L92 0L753 0L753 175L298 175L298 744ZM499-280C512-256 529-210 529-173L529-62L315-62L315-196L419-196C414-225 402-256 390-280Z"  horiz-adv-x="802" vert-adv-y="1000"  />

      
      <glyph glyph-name="uni013F" unicode="&#x013F;" d="M92 744L92 0L753 0L753 175L298 175L298 744ZM726 507L493 507L493 313L726 313Z"  horiz-adv-x="804" vert-adv-y="1000"  />

      
      <glyph glyph-name="uni0143" unicode="&#x0143;" d="M737 0L939 0L939 744L739 744L739 265L304 744L92 744L92 0L293 0L293 482ZM618 805L724 953L502 953L411 805Z"  horiz-adv-x="1031" vert-adv-y="1000"  />

      
      <glyph glyph-name="uni0147" unicode="&#x0147;" d="M737 0L939 0L939 744L739 744L739 265L304 744L92 744L92 0L293 0L293 482ZM404 805L635 805L775 953L584 953L521 889L458 953L264 953Z"  horiz-adv-x="1031" vert-adv-y="1000"  />

      
      <glyph glyph-name="uni0145" unicode="&#x0145;" d="M737 0L939 0L939 744L739 744L739 265L304 744L92 744L92 0L293 0L293 482ZM592-280C605-256 622-210 622-173L622-62L408-62L408-196L512-196C507-225 495-256 483-280Z"  horiz-adv-x="1031" vert-adv-y="1000"  />

      
      <glyph glyph-name="uni014E" unicode="&#x014E;" d="M506 756C158 756 59 551 59 389L59 359C59 199 158-12 506-12L550-12C898-12 997 199 997 359L997 389C997 552 898 756 550 756ZM783 367C783 277 737 159 528 159C323 159 273 277 273 367L273 381C273 473 320 586 528 586C738 586 783 473 783 381ZM543 800C688 800 731 908 731 960L731 963L586 963C583 947 576 910 529 910C479 910 472 947 469 963L323 963L323 960C323 908 354 800 513 800Z"  horiz-adv-x="1056" vert-adv-y="1000"  />

      
      <glyph glyph-name="uni0150" unicode="&#x0150;" d="M506 756C158 756 59 551 59 389L59 359C59 199 158-12 506-12L550-12C898-12 997 199 997 359L997 389C997 552 898 756 550 756ZM783 367C783 277 737 159 528 159C323 159 273 277 273 367L273 381C273 473 320 586 528 586C738 586 783 473 783 381ZM322 805L503 805L567 953L384 953ZM566 805L746 805L818 953L633 953Z"  horiz-adv-x="1056" vert-adv-y="1000"  />

      
      <glyph glyph-name="uni014C" unicode="&#x014C;" d="M506 756C158 756 59 551 59 389L59 359C59 199 158-12 506-12L550-12C898-12 997 199 997 359L997 389C997 552 898 756 550 756ZM783 367C783 277 737 159 528 159C323 159 273 277 273 367L273 381C273 473 320 586 528 586C738 586 783 473 783 381ZM340 820L717 820L717 938L340 938Z"  horiz-adv-x="1056" vert-adv-y="1000"  />

      
      <glyph glyph-name="uni01FE" unicode="&#x01FE;" d="M547-12C914-12 993 213 993 359L993 389C993 465 971 558 901 633L1022 744L839 744L797 706C734 737 655 756 547 756L505 756C139 756 55 537 59 389L59 359C59 283 81 190 154 112L33 0L215 0L258 38C322 7 398-12 505-12ZM268 382C268 473 314 588 526 588C579 588 619 584 652 573L301 248C278 285 268 329 268 368ZM527 158C476 158 436 164 404 172L755 498C776 461 784 419 784 382L784 368C784 277 738 158 527 158ZM630 805L736 953L514 953L423 805Z"  horiz-adv-x="1052" vert-adv-y="1000"  />

      
      <glyph glyph-name="uni0154" unicode="&#x0154;" d="M298 580L585 580C669 580 692 546 692 503L692 501C692 458 669 422 585 422L298 422ZM751 358C844 379 908 442 908 535L908 545C908 626 876 744 593 744L92 744L92 0L298 0L298 253L566 253C670 253 705 209 705 113L705 52C705 19 709 5 712 0L925 0L925 5C918 17 913 32 913 88L913 165C913 274 852 335 751 358ZM584 805L690 953L468 953L377 805Z"  horiz-adv-x="981" vert-adv-y="1000"  />

      
      <glyph glyph-name="uni0158" unicode="&#x0158;" d="M298 580L585 580C669 580 692 546 692 503L692 501C692 458 669 422 585 422L298 422ZM751 358C844 379 908 442 908 535L908 545C908 626 876 744 593 744L92 744L92 0L298 0L298 253L566 253C670 253 705 209 705 113L705 52C705 19 709 5 712 0L925 0L925 5C918 17 913 32 913 88L913 165C913 274 852 335 751 358ZM365 805L596 805L736 953L545 953L482 889L419 953L225 953Z"  horiz-adv-x="981" vert-adv-y="1000"  />

      
      <glyph glyph-name="uni0156" unicode="&#x0156;" d="M298 580L585 580C669 580 692 546 692 503L692 501C692 458 669 422 585 422L298 422ZM751 358C844 379 908 442 908 535L908 545C908 626 876 744 593 744L92 744L92 0L298 0L298 253L566 253C670 253 705 209 705 113L705 52C705 19 709 5 712 0L925 0L925 5C918 17 913 32 913 88L913 165C913 274 852 335 751 358ZM573-280C586-256 603-210 603-173L603-62L389-62L389-196L493-196C488-225 476-256 464-280Z"  horiz-adv-x="981" vert-adv-y="1000"  />

      
      <glyph glyph-name="uni015A" unicode="&#x015A;" d="M480-13C813-13 863 126 863 235L863 247C863 368 799 454 534 465L431 469C314 474 287 502 287 540C287 581 318 606 450 606L460 606C604 606 622 557 627 524L848 524L848 535C848 633 803 753 474 753L440 753C132 753 70 649 70 533L70 524C70 412 148 315 392 307L491 304C614 299 643 272 643 227C643 184 623 138 468 138L461 138C303 138 289 212 286 245L62 245L62 234C62 145 102-13 451-13ZM561 805L667 953L445 953L354 805Z"  horiz-adv-x="925" vert-adv-y="1000"  />

      
      <glyph glyph-name="uni015E" unicode="&#x015E;" d="M619-151C619-89 591-50 462-50L457-50L457-13L480-13C813-13 863 126 863 235L863 247C863 368 799 454 534 465L431 469C314 474 287 502 287 540C287 581 318 606 450 606L460 606C604 606 622 557 627 524L848 524L848 535C848 633 803 753 474 753L440 753C132 753 70 649 70 533L70 524C70 412 148 315 392 307L491 304C614 299 643 272 643 227C643 184 623 138 468 138L461 138C303 138 289 212 286 245L62 245L62 234C62 155 94 21 346-7L346-123L426-123C454-123 461-133 461-146C461-159 454-168 426-168L317-168L317-258L462-258C591-258 619-209 619-154Z"  horiz-adv-x="925" vert-adv-y="1000"  />

      
      <glyph glyph-name="uni015C" unicode="&#x015C;" d="M480-13C813-13 863 126 863 235L863 247C863 368 799 454 534 465L431 469C314 474 287 502 287 540C287 581 318 606 450 606L460 606C604 606 622 557 627 524L848 524L848 535C848 633 803 753 474 753L440 753C132 753 70 649 70 533L70 524C70 412 148 315 392 307L491 304C614 299 643 272 643 227C643 184 623 138 468 138L461 138C303 138 289 212 286 245L62 245L62 234C62 145 102-13 451-13ZM574 953L345 953L205 803L395 803L458 866L521 803L714 803Z"  horiz-adv-x="925" vert-adv-y="1000"  />

      
      <glyph glyph-name="uni0218" unicode="&#x0218;" d="M480-13C813-13 863 126 863 235L863 247C863 368 799 454 534 465L431 469C314 474 287 502 287 540C287 581 318 606 450 606L460 606C604 606 622 557 627 524L848 524L848 535C848 633 803 753 474 753L440 753C132 753 70 649 70 533L70 524C70 412 148 315 392 307L491 304C614 299 643 272 643 227C643 184 623 138 468 138L461 138C303 138 289 212 286 245L62 245L62 234C62 145 102-13 451-13ZM544-280C557-256 574-210 574-173L574-62L360-62L360-196L464-196C459-225 447-256 435-280Z"  horiz-adv-x="925" vert-adv-y="1000"  />

      
      <glyph glyph-name="uni0164" unicode="&#x0164;" d="M334 0L539 0L539 574L827 574L827 744L46 744L46 574L334 574ZM320 805L551 805L691 953L500 953L437 889L374 953L180 953Z"  horiz-adv-x="873" vert-adv-y="1000"  />

      
      <glyph glyph-name="uni0162" unicode="&#x0162;" d="M334 0L539 0L539 574L827 574L827 744L46 744L46 574L334 574ZM513-280C526-256 543-210 543-173L543-62L329-62L329-196L433-196C428-225 416-256 404-280Z"  horiz-adv-x="873" vert-adv-y="1000"  />

      
      <glyph glyph-name="uni021A" unicode="&#x021A;" d="M334 0L539 0L539 574L827 574L827 744L46 744L46 574L334 574ZM513-280C526-256 543-210 543-173L543-62L329-62L329-196L433-196C428-225 416-256 404-280Z"  horiz-adv-x="873" vert-adv-y="1000"  />

      
      <glyph glyph-name="uni0166" unicode="&#x0166;" d="M746 293L746 420L127 420L127 293ZM334 0L539 0L539 574L827 574L827 744L46 744L46 574L334 574Z"  horiz-adv-x="873" vert-adv-y="1000"  />

      
      <glyph glyph-name="uni016C" unicode="&#x016C;" d="M523-11C875-11 927 217 927 366L927 744L722 744L722 371C722 286 700 164 511 164L506 164C317 164 293 286 293 371L293 744L87 744L87 366C87 218 129-11 494-11ZM523 800C668 800 711 908 711 960L711 963L566 963C563 947 556 910 509 910C459 910 452 947 449 963L303 963L303 960C303 908 334 800 493 800Z"  horiz-adv-x="1014" vert-adv-y="1000"  />

      
      <glyph glyph-name="uni0170" unicode="&#x0170;" d="M523-11C875-11 927 217 927 366L927 744L722 744L722 371C722 286 700 164 511 164L506 164C317 164 293 286 293 371L293 744L87 744L87 366C87 218 129-11 494-11ZM295 805L476 805L540 953L357 953ZM539 805L719 805L791 953L606 953Z"  horiz-adv-x="1014" vert-adv-y="1000"  />

      
      <glyph glyph-name="uni016A" unicode="&#x016A;" d="M523-11C875-11 927 217 927 366L927 744L722 744L722 371C722 286 700 164 511 164L506 164C317 164 293 286 293 371L293 744L87 744L87 366C87 218 129-11 494-11ZM320 820L697 820L697 938L320 938Z"  horiz-adv-x="1014" vert-adv-y="1000"  />

      
      <glyph glyph-name="uni0172" unicode="&#x0172;" d="M725-193L725-95L680-95C655-95 642-86 642-69C642-47 669-26 746 22C873 103 927 209 927 366L927 744L722 744L722 371C722 286 700 164 511 164L506 164C317 164 293 286 293 371L293 744L87 744L87 366C87 218 129-11 494-11L523-11C550-11 572-10 595-7C506-36 452-66 452-115L452-117C452-168 496-193 583-193Z"  horiz-adv-x="1014" vert-adv-y="1000"  />

      
      <glyph glyph-name="uni016E" unicode="&#x016E;" d="M523-11C875-11 927 217 927 366L927 744L722 744L722 371C722 286 700 164 511 164L506 164C317 164 293 286 293 371L293 744L87 744L87 366C87 218 129-11 494-11ZM339 902C339 835 380 772 507 772C635 772 676 835 676 902C676 973 633 1032 507 1032C382 1032 339 973 339 902ZM575 902C575 873 554 846 507 846C460 846 440 873 440 902C440 933 460 957 507 957C554 957 575 933 575 902Z"  horiz-adv-x="1014" vert-adv-y="1000"  />

      
      <glyph glyph-name="uni0168" unicode="&#x0168;" d="M523-11C875-11 927 217 927 366L927 744L722 744L722 371C722 286 700 164 511 164L506 164C317 164 293 286 293 371L293 744L87 744L87 366C87 218 129-11 494-11ZM422 840C422 852 425 862 436 862C447 862 462 855 493 842C544 821 580 806 617 806L619 806C690 806 706 862 706 904L706 982L594 982L594 942C594 930 591 920 580 920C569 920 554 927 523 940C472 961 436 976 399 976L397 976C326 976 310 920 310 878L310 800L422 800Z"  horiz-adv-x="1014" vert-adv-y="1000"  />

      
      <glyph glyph-name="uni1E82" unicode="&#x1E82;" d="M513 0L671 521L829 0L1075 0L1322 744L1119 744L956 207L799 744L559 744L403 209L239 744L18 744L274 0ZM782 805L888 953L666 953L575 805Z"  horiz-adv-x="1340" vert-adv-y="1000"  />

      
      <glyph glyph-name="uni0174" unicode="&#x0174;" d="M513 0L671 521L829 0L1075 0L1322 744L1119 744L956 207L799 744L559 744L403 209L239 744L18 744L274 0ZM795 953L566 953L426 803L616 803L679 866L742 803L935 803Z"  horiz-adv-x="1340" vert-adv-y="1000"  />

      
      <glyph glyph-name="uni1E84" unicode="&#x1E84;" d="M513 0L671 521L829 0L1075 0L1322 744L1119 744L956 207L799 744L559 744L403 209L239 744L18 744L274 0ZM648 945L454 945L454 805L648 805ZM904 945L710 945L710 805L904 805Z"  horiz-adv-x="1340" vert-adv-y="1000"  />

      
      <glyph glyph-name="uni1E80" unicode="&#x1E80;" d="M513 0L671 521L829 0L1075 0L1322 744L1119 744L956 207L799 744L559 744L403 209L239 744L18 744L274 0ZM576 805L783 805L692 953L470 953Z"  horiz-adv-x="1340" vert-adv-y="1000"  />

      
      <glyph glyph-name="uni0176" unicode="&#x0176;" d="M367 0L573 0L573 271L929 744L699 744L476 449L253 744L-2 744L367 272ZM592 953L363 953L223 803L413 803L476 866L539 803L732 803Z"  horiz-adv-x="927" vert-adv-y="1000"  />

      
      <glyph glyph-name="uni1EF2" unicode="&#x1EF2;" d="M367 0L573 0L573 271L929 744L699 744L476 449L253 744L-2 744L367 272ZM373 805L580 805L489 953L267 953Z"  horiz-adv-x="927" vert-adv-y="1000"  />

      
      <glyph glyph-name="uni0179" unicode="&#x0179;" d="M835 0L835 170L356 170L831 601L831 744L77 744L77 576L530 576L74 143L74 0ZM557 805L663 953L441 953L350 805Z"  horiz-adv-x="908" vert-adv-y="1000"  />

      
      <glyph glyph-name="uni017B" unicode="&#x017B;" d="M835 0L835 170L356 170L831 601L831 744L77 744L77 576L530 576L74 143L74 0ZM554 945L355 945L355 805L554 805Z"  horiz-adv-x="908" vert-adv-y="1000"  />

      
      <glyph glyph-name="uni0103" unicode="&#x0103;" d="M343 111C275 111 250 137 250 172L250 174C250 213 280 226 374 242C430 251 479 261 496 268L496 225C496 183 457 111 343 111ZM502 77C510 41 537 0 595 0L753 0L753 149L732 149C693 149 686 163 686 198L686 381C686 455 669 568 394 568L363 568C90 568 68 439 68 384L68 382L268 382C268 403 278 443 380 443C488 443 496 415 496 389C496 366 485 356 454 353L302 340C114 324 53 265 53 169L53 165C53 73 117-11 272-11L288-11C418-11 478 48 502 77ZM398 612C543 612 583 720 583 772L583 775L438 775C438 762 431 722 384 722C334 722 328 762 328 775L181 775L181 772C181 720 209 612 368 612Z"  horiz-adv-x="783" vert-adv-y="1000"  />

      
      <glyph glyph-name="uni0101" unicode="&#x0101;" d="M343 111C275 111 250 137 250 172L250 174C250 213 280 226 374 242C430 251 479 261 496 268L496 225C496 183 457 111 343 111ZM502 77C510 41 537 0 595 0L753 0L753 149L732 149C693 149 686 163 686 198L686 381C686 455 669 568 394 568L363 568C90 568 68 439 68 384L68 382L268 382C268 403 278 443 380 443C488 443 496 415 496 389C496 366 485 356 454 353L302 340C114 324 53 265 53 169L53 165C53 73 117-11 272-11L288-11C418-11 478 48 502 77ZM197 630L563 630L563 748L197 748Z"  horiz-adv-x="783" vert-adv-y="1000"  />

      
      <glyph glyph-name="uni0105" unicode="&#x0105;" d="M343 111C275 111 250 137 250 172L250 174C250 213 280 226 374 242C430 251 479 261 496 268L496 225C496 183 457 111 343 111ZM502 77C510 41 537 0 595 0L753 0L753 149L732 149C693 149 686 163 686 198L686 381C686 455 669 568 394 568L363 568C90 568 68 439 68 384L68 382L268 382C268 403 278 443 380 443C488 443 496 415 496 389C496 366 485 356 454 353L302 340C114 324 53 265 53 169L53 165C53 73 117-11 272-11L288-11C418-11 478 48 502 77ZM764-193L764-95L719-95C694-95 681-87 681-70C681-47 706-29 753 0L668 0C560-29 491-60 491-115L491-117C491-168 535-193 622-193Z"  horiz-adv-x="783" vert-adv-y="1000"  />

      
      <glyph glyph-name="uni01FB" unicode="&#x01FB;" d="M343 111C275 111 250 137 250 172L250 174C250 213 280 226 374 242C430 251 479 261 496 268L496 225C496 183 457 111 343 111ZM502 77C510 41 537 0 595 0L753 0L753 149L732 149C693 149 686 163 686 198L686 381C686 455 669 568 394 568L363 568C90 568 68 439 68 384L68 382L268 382C268 403 278 443 380 443C488 443 496 415 496 389C496 366 485 356 454 353L302 340C114 324 53 265 53 169L53 165C53 73 117-11 272-11L288-11C418-11 478 48 502 77ZM212 741C212 672 253 611 380 611C508 611 549 672 549 741C549 810 506 870 380 870C255 870 212 810 212 741ZM313 741C313 772 333 795 380 795C427 795 448 772 448 741C448 712 427 685 380 685C333 685 313 712 313 741ZM282 905L477 905L588 1054L370 1054Z"  horiz-adv-x="783" vert-adv-y="1000"  />

      
      <glyph glyph-name="uni01FD" unicode="&#x01FD;" d="M833 441C953 441 976 381 976 338L687 338C698 397 734 441 833 441ZM338 111C274 111 250 137 250 172L250 174C250 211 280 226 369 242C420 251 469 261 486 268L486 225C486 183 446 111 338 111ZM979 167C976 162 959 120 850 120C734 120 696 172 685 236L1185 236L1185 254C1185 409 1131 567 852 567L809 567C716 567 648 547 609 516C572 548 502 568 389 568L358 568C90 568 68 440 68 384L68 382L268 382C268 403 279 443 375 443C476 443 486 415 486 389C486 366 475 356 444 353L297 340C112 324 53 265 53 169L53 165C53 73 113-11 276-11L292-11C438-11 508 49 539 96C579 43 662-13 826-13L861-13C1144-13 1183 128 1183 167ZM509 617L704 617L815 766L597 766Z"  horiz-adv-x="1237" vert-adv-y="1000"  />

      
      <glyph glyph-name="uni0107" unicode="&#x0107;" d="M545 218C545 205 528 130 412 130L402 130C289 130 256 212 256 281L256 282C256 349 283 428 398 428L408 428C523 428 542 359 545 343L749 343L749 344C749 424 696 570 428 570L382 570C103 570 54 389 54 284L54 270C54 165 106-15 383-15L432-15C699-15 749 134 749 218ZM308 617L503 617L614 766L396 766Z"  horiz-adv-x="801" vert-adv-y="1000"  />

      
      <glyph glyph-name="uni010D" unicode="&#x010D;" d="M545 218C545 205 528 130 412 130L402 130C289 130 256 212 256 281L256 282C256 349 283 428 398 428L408 428C523 428 542 359 545 343L749 343L749 344C749 424 696 570 428 570L382 570C103 570 54 389 54 284L54 270C54 165 106-15 383-15L432-15C699-15 749 134 749 218ZM290 617L521 617L657 766L466 766L407 702L348 766L153 766Z"  horiz-adv-x="801" vert-adv-y="1000"  />

      
      <glyph glyph-name="uni0109" unicode="&#x0109;" d="M545 218C545 205 528 130 412 130L402 130C289 130 256 212 256 281L256 282C256 349 283 428 398 428L408 428C523 428 542 359 545 343L749 343L749 344C749 424 696 570 428 570L382 570C103 570 54 389 54 284L54 270C54 165 106-15 383-15L432-15C699-15 749 134 749 218ZM523 766L292 766L156 616L347 616L406 681L465 616L660 616Z"  horiz-adv-x="801" vert-adv-y="1000"  />

      
      <glyph glyph-name="uni010B" unicode="&#x010B;" d="M545 218C545 205 528 130 412 130L402 130C289 130 256 212 256 281L256 282C256 349 283 428 398 428L408 428C523 428 542 359 545 343L749 343L749 344C749 424 696 570 428 570L382 570C103 570 54 389 54 284L54 270C54 165 106-15 383-15L432-15C699-15 749 134 749 218ZM506 757L307 757L307 617L506 617Z"  horiz-adv-x="801" vert-adv-y="1000"  />

      
      <glyph glyph-name="uni010F" unicode="&#x010F;" d="M418 421C534 421 571 344 571 280L571 277C571 216 534 136 418 136L407 136C285 136 257 220 257 277L257 280C257 340 285 421 407 421ZM569 757L569 496C545 518 481 566 354 566L342 566C138 566 56 426 56 287L56 270C56 129 141-11 344-11L357-11C488-11 551 50 570 72L570 0L764 0L764 757ZM814 617L967 617L995 766L831 766Z"  horiz-adv-x="847" vert-adv-y="1000"  />

      
      <glyph glyph-name="uni0115" unicode="&#x0115;" d="M404 440C529 440 549 382 549 341L255 341C265 399 303 440 404 440ZM553 173C548 164 534 120 421 120C302 120 261 172 253 236L758 236L758 254C758 409 707 567 423 567L379 567C116 567 54 409 54 284L54 270C54 137 122-13 396-13L433-13C720-13 756 127 756 173ZM417 612C562 612 602 720 602 772L602 775L457 775C457 762 450 722 403 722C353 722 347 762 347 775L200 775L200 772C200 720 228 612 387 612Z"  horiz-adv-x="811" vert-adv-y="1000"  />

      
      <glyph glyph-name="uni011B" unicode="&#x011B;" d="M404 440C529 440 549 382 549 341L255 341C265 399 303 440 404 440ZM553 173C548 164 534 120 421 120C302 120 261 172 253 236L758 236L758 254C758 409 707 567 423 567L379 567C116 567 54 409 54 284L54 270C54 137 122-13 396-13L433-13C720-13 756 127 756 173ZM286 617L517 617L653 766L462 766L403 702L344 766L149 766Z"  horiz-adv-x="811" vert-adv-y="1000"  />

      
      <glyph glyph-name="uni0117" unicode="&#x0117;" d="M404 440C529 440 549 382 549 341L255 341C265 399 303 440 404 440ZM553 173C548 164 534 120 421 120C302 120 261 172 253 236L758 236L758 254C758 409 707 567 423 567L379 567C116 567 54 409 54 284L54 270C54 137 122-13 396-13L433-13C720-13 756 127 756 173ZM502 757L303 757L303 617L502 617Z"  horiz-adv-x="811" vert-adv-y="1000"  />

      
      <glyph glyph-name="uni0113" unicode="&#x0113;" d="M404 440C529 440 549 382 549 341L255 341C265 399 303 440 404 440ZM553 173C548 164 534 120 421 120C302 120 261 172 253 236L758 236L758 254C758 409 707 567 423 567L379 567C116 567 54 409 54 284L54 270C54 137 122-13 396-13L433-13C720-13 756 127 756 173ZM219 630L585 630L585 748L219 748Z"  horiz-adv-x="811" vert-adv-y="1000"  />

      
      <glyph glyph-name="uni0119" unicode="&#x0119;" d="M404 442C529 442 549 384 549 343L255 343C265 401 303 442 404 442ZM646-94L601-94C575-94 562-85 562-68C562-44 583-27 646 16C735 80 756 135 756 175L553 175C548 166 534 122 421 122C302 122 261 174 253 238L758 238L758 256C758 411 707 569 423 569L379 569C116 569 54 411 54 286L54 272C54 139 122-11 396-11L433-11C465-11 493-9 520-6C428-33 370-65 370-114L370-116C370-167 414-193 502-193L646-193Z"  horiz-adv-x="811" vert-adv-y="1000"  />

      
      </font>
</defs>
</svg>
