<?xml version="1.0" standalone="no"?>
  <!DOCTYPE svg PUBLIC "-//W3C//DTD SVG 1.1//EN" "http://www.w3.org/Graphics/SVG/1.1/DTD/svg11.dtd" >
  <svg>
  <metadata>
  Created by font-carrier
  </metadata>
  <defs>
  <font id="DrukWideCyr-Medium" horiz-adv-x="2538" vert-adv-y="2538" >
    <font-face
      
      font-family="Druk Wide Cyr"
      
      font-weight="400"
      
      font-stretch="normal"
      
      units-per-em="1000"
      
      ascent="1018"
      
      descent="-196"
      
    />
      <missing-glyph />

      

      
      <glyph glyph-name="uni21" unicode="&#x21;" d="M24 744L93 226L227 226L296 744ZM281 175L39 175L39 0L281 0Z"  horiz-adv-x="320" vert-adv-y="1000"  />

      
      <glyph glyph-name="uni22" unicode="&#x22;" d="M450 744L268 744L268 497L450 497ZM217 744L35 744L35 497L217 497Z"  horiz-adv-x="485" vert-adv-y="1000"  />

      
      <glyph glyph-name="uni23" unicode="&#x23;" d="M441 326L301 326L335 451L475 451ZM351 0L494 0L554 215L680 215L711 326L584 326L619 451L744 451L775 562L650 562L700 744L556 744L506 562L366 562L416 744L272 744L222 562L98 562L67 451L192 451L157 326L33 326L3 215L127 215L68 0L211 0L270 215L410 215Z"  horiz-adv-x="778" vert-adv-y="1000"  />

      
      <glyph glyph-name="uni24" unicode="&#x24;" d="M259 539C259 568 266 601 415 606L415 471C278 479 259 508 259 538ZM692 223C692 188 673 143 508 138L508 302C664 297 692 270 692 227ZM508-75L508-13C865-13 928 112 928 236L928 250C928 397 821 458 552 466L508 467L508 604C650 596 666 543 669 512L903 512L903 522C903 631 827 748 508 753L508 813L415 813L415 753C93 753 27 643 27 532L27 523C27 409 108 314 376 306L415 305L415 140C278 153 252 221 252 264L17 264L17 253C17 156 58-5 415-13L415-75Z"  horiz-adv-x="948" vert-adv-y="1000"  />

      
      <glyph glyph-name="uni25" unicode="&#x25;" d="M334 321C577 321 615 457 615 530L615 547C615 621 576 753 334 753L310 753C67 753 28 621 28 547L28 530C28 457 67 321 310 321ZM1006 744L205 0L402 0L1204 744ZM321 444C222 444 190 491 190 536L190 542C190 590 221 630 321 630C422 630 454 590 454 542L454 534C454 491 421 444 321 444ZM1101-8C1343-8 1382 129 1382 202L1382 219C1382 293 1342 425 1101 425L1076 425C835 425 794 293 794 219L794 202C794 129 835-8 1076-8ZM1088 116C988 116 956 163 956 208L956 214C956 259 987 302 1088 302C1189 302 1221 259 1221 214L1221 206C1221 163 1188 116 1088 116Z"  horiz-adv-x="1410" vert-adv-y="1000"  />

      
      <glyph glyph-name="uni26" unicode="&#x26;" d="M370 577C370 609 391 634 485 634C594 634 619 604 619 561C619 514 562 485 483 461C408 512 370 540 370 577ZM470 132C312 132 254 191 254 247L254 250C254 301 291 329 334 345L634 150C589 138 534 132 470 132ZM1103 152C1038 152 991 157 948 169C1025 262 1049 371 1052 451L833 451C833 405 825 324 783 258L580 395C768 430 823 500 823 578L823 583C823 654 787 760 515 760L462 760C190 760 147 663 147 578L147 570C147 510 182 451 246 403C95 380 16 322 16 223L16 212C16 100 101-13 477-13C610-13 714 11 794 48C859 12 929-11 1041-11Z"  horiz-adv-x="1096" vert-adv-y="1000"  />

      
      <glyph glyph-name="uni27" unicode="&#x27;" d="M217 744L35 744L35 497L217 497Z"  horiz-adv-x="252" vert-adv-y="1000"  />

      
      <glyph glyph-name="uni28" unicode="&#x28;" d="M35 339C35 121 128-31 217-131L339-131C268-12 215 158 215 339C215 520 267 689 339 808L217 808C133 711 35 556 35 339Z"  horiz-adv-x="336" vert-adv-y="1000"  />

      
      <glyph glyph-name="uni29" unicode="&#x29;" d="M119-131C208-31 301 121 301 339C301 557 202 709 119 808L-3 808C69 689 121 520 121 339C121 158 68-12-3-131Z"  horiz-adv-x="336" vert-adv-y="1000"  />

      
      <glyph glyph-name="uni2a" unicode="&#x2a;" d="M271 629L300 744L151 744L181 629L84 711L21 599L149 562L21 524L84 413L181 494L151 378L300 378L271 494L369 413L430 524L300 562L430 599L369 711Z"  horiz-adv-x="451" vert-adv-y="1000"  />

      
      <glyph glyph-name="uni2b" unicode="&#x2b;" d="M585 239L585 377L395 377L395 553L227 553L227 377L38 377L38 239L227 239L227 63L395 63L395 239Z"  horiz-adv-x="623" vert-adv-y="1000"  />

      
      <glyph glyph-name="uni2c" unicode="&#x2c;" d="M229-98C251-66 276-10 276 30L276 175L35 175L35 0L139 0C134-31 119-65 102-98Z"  horiz-adv-x="311" vert-adv-y="1000"  />

      
      <glyph glyph-name="uni2d" unicode="&#x2d;" d="M38 383L38 211L359 211L359 383Z"  horiz-adv-x="397" vert-adv-y="1000"  />

      
      <glyph glyph-name="uni2e" unicode="&#x2e;" d="M276 175L35 175L35 0L276 0Z"  horiz-adv-x="311" vert-adv-y="1000"  />

      
      <glyph glyph-name="uni2f" unicode="&#x2f;" d="M480 808L310 808L-37-131L132-131Z"  horiz-adv-x="470" vert-adv-y="1000"  />

      
      <glyph glyph-name="uni30" unicode="&#x30;" d="M1075 389C1075 521 1014 757 573 757L529 757C89 757 27 521 27 389L27 359C27 228 89-13 529-13L573-13C1015-13 1075 229 1075 359ZM831 368C831 283 778 169 551 169C324 169 271 286 271 370L271 382C271 466 319 576 551 576C779 576 831 466 831 382Z"  horiz-adv-x="1102" vert-adv-y="1000"  />

      
      <glyph glyph-name="uni31" unicode="&#x31;" d="M193 461L193 0L424 0L424 744L242 744C208 666 148 609 20 601L20 461Z"  horiz-adv-x="485" vert-adv-y="1000"  />

      
      <glyph glyph-name="uni32" unicode="&#x32;" d="M937 0L937 272L708 272L708 176L237 176C237 197 257 237 433 269L637 303C881 343 924 414 924 526L924 528C924 646 853 757 503 757L463 757C78 757 42 574 42 489L42 481L285 481C288 518 304 586 491 586C655 586 678 559 678 530C678 507 669 487 568 468L394 432C49 360 29 194 29 84L29 0Z"  horiz-adv-x="971" vert-adv-y="1000"  />

      
      <glyph glyph-name="uni33" unicode="&#x33;" d="M506-13C873-13 952 116 952 241L952 248C952 363 869 414 810 430C858 441 929 481 929 559L929 565C929 645 883 757 485 757L443 757C48 757 18 580 18 512L18 502L261 502C264 518 266 587 465 587C669 587 685 549 685 522C685 497 671 473 588 473L337 473L337 300L600 300C688 300 704 271 704 242C704 212 692 159 480 159C275 159 264 253 261 272L16 272L16 264C16 188 54-13 459-13Z"  horiz-adv-x="972" vert-adv-y="1000"  />

      
      <glyph glyph-name="uni34" unicode="&#x34;" d="M13 295L13 154L558 154L558 0L788 0L788 154L939 154L939 327L788 327L788 747L537 747ZM558 327L285 327L558 561Z"  horiz-adv-x="954" vert-adv-y="1000"  />

      
      <glyph glyph-name="uni35" unicode="&#x35;" d="M503-13C843-13 915 130 915 251L915 257C915 393 848 507 553 507L544 507C362 507 293 449 279 438L279 571L863 571L863 744L50 744L50 287L277 287C279 294 300 347 479 347C650 347 671 297 671 256L671 250C671 209 650 159 479 159C299 159 283 222 280 233L34 233L34 226C34 153 82-13 456-13Z"  horiz-adv-x="936" vert-adv-y="1000"  />

      
      <glyph glyph-name="uni36" unicode="&#x36;" d="M533-15C908-15 970 131 970 240L970 249C970 366 896 479 584 479L571 479C347 479 285 423 262 407L262 411C262 462 285 585 500 585C674 585 693 528 698 520L938 520L938 524C938 623 856 757 520 757L480 757C121 757 29 554 29 383L29 359C29 188 106-15 489-15ZM292 243C292 281 325 323 510 323C701 323 726 278 726 241L726 237C726 202 701 154 510 154C326 154 292 205 292 240Z"  horiz-adv-x="992" vert-adv-y="1000"  />

      
      <glyph glyph-name="uni37" unicode="&#x37;" d="M35 744L35 423L271 423L271 576L691 576C686 560 654 531 545 427C394 284 351 212 351 94L351 0L618 0L618 9C618 128 625 219 739 370C815 470 893 550 924 587L924 744Z"  horiz-adv-x="945" vert-adv-y="1000"  />

      
      <glyph glyph-name="uni38" unicode="&#x38;" d="M928 556C928 625 901 757 506 757L462 757C66 757 38 625 38 556L38 546C38 450 127 403 192 392C116 376 20 322 20 225L20 212C20 129 59-15 462-15L506-15C901-15 947 129 947 212L947 225C947 325 853 379 776 392C835 400 928 450 928 546ZM687 535C687 506 673 463 483 463C295 463 280 506 280 535L280 538C280 566 291 608 483 608C674 608 687 566 687 538ZM707 226C707 194 689 148 483 148C279 148 260 194 260 226L260 229C260 264 275 304 483 304C689 304 707 264 707 229Z"  horiz-adv-x="968" vert-adv-y="1000"  />

      
      <glyph glyph-name="uni39" unicode="&#x39;" d="M700 502C700 466 669 418 482 418C293 418 267 465 267 502L267 505C267 540 293 587 482 587C665 587 700 540 700 505ZM518-15C880-15 964 184 964 359L964 383C964 578 871 757 500 757L456 757C71 757 22 612 22 502L22 493C22 375 109 262 421 262L434 262C642 262 709 318 730 334L730 331C730 280 706 157 493 157C321 157 298 211 295 222L54 222L54 218C54 122 148-15 478-15Z"  horiz-adv-x="992" vert-adv-y="1000"  />

      
      <glyph glyph-name="uni3a" unicode="&#x3a;" d="M277 484L36 484L36 309L277 309ZM277 175L36 175L36 0L277 0Z"  horiz-adv-x="313" vert-adv-y="1000"  />

      
      <glyph glyph-name="uni3b" unicode="&#x3b;" d="M277 484L36 484L36 309L277 309ZM230-98C252-66 277-10 277 30L277 175L36 175L36 0L140 0C135-31 120-65 103-98Z"  horiz-adv-x="313" vert-adv-y="1000"  />

      
      <glyph glyph-name="uni3c" unicode="&#x3c;" d="M504 68L504 219L188 302L504 387L504 539L38 382L38 223Z"  horiz-adv-x="545" vert-adv-y="1000"  />

      
      <glyph glyph-name="uni3d" unicode="&#x3d;" d="M43 472L43 344L549 344L549 472ZM43 274L43 147L549 147L549 274Z"  horiz-adv-x="592" vert-adv-y="1000"  />

      
      <glyph glyph-name="uni3e" unicode="&#x3e;" d="M41 68L507 223L507 382L41 539L41 387L357 302L41 219Z"  horiz-adv-x="545" vert-adv-y="1000"  />

      
      <glyph glyph-name="uni3f" unicode="&#x3f;" d="M490 241L490 248C490 285 493 302 556 318L639 340C779 376 831 444 831 539L831 546C831 643 776 753 460 753L404 753C31 753 20 608 20 515L20 503L248 503C251 532 251 596 432 596C593 596 600 570 600 544C600 522 589 502 507 481L423 460C287 425 262 388 262 316L262 241ZM500 175L259 175L259 0L500 0Z"  horiz-adv-x="851" vert-adv-y="1000"  />

      
      <glyph glyph-name="uni40" unicode="&#x40;" d="M675-161C1014-161 1154-105 1201-81L1163 27C1115 3 990-54 675-54C265-54 177 113 177 289L177 301C177 495 261 638 656 638L669 638C1153 638 1161 485 1161 352L1161 349C1161 213 1102 135 1027 135C999 135 989 153 992 174L1037 530L817 530L808 461C781 485 716 542 565 542L550 542C390 542 320 440 309 344L302 294C286 178 350 38 553 38L568 38C701 38 767 96 786 115C802 83 838 38 956 38L973 38C1229 38 1302 205 1302 344L1302 355C1302 500 1285 743 669 743L656 743C164 743 27 546 27 303L27 291C27 65 142-161 675-161ZM788 282C780 223 746 175 639 175C541 175 512 240 520 292L522 310C527 362 559 407 650 407C749 407 797 362 790 301Z"  horiz-adv-x="1329" vert-adv-y="1000"  />

      
      <glyph glyph-name="uni41" unicode="&#x41;" d="M653 304L371 304L509 583ZM809 0L1060 0L662 744L360 744L-16 0L221 0L288 136L739 136Z"  horiz-adv-x="1044" vert-adv-y="1000"  />

      
      <glyph glyph-name="uni42" unicode="&#x42;" d="M57 0L700 0C941 0 1008 97 1008 214L1008 228C1008 359 899 402 848 415C884 426 966 463 966 560L966 574C966 662 907 744 694 744L57 744ZM654 587C719 587 735 559 735 528L735 526C735 496 719 466 654 466L290 466L290 587ZM674 308C751 308 766 271 766 239L766 235C766 205 751 162 674 162L290 162L290 308Z"  horiz-adv-x="1025" vert-adv-y="1000"  />

      
      <glyph glyph-name="uni43" unicode="&#x43;" d="M566-13C991-13 1065 195 1065 289L1065 300L818 300C812 283 788 168 547 168C330 168 271 284 271 372L271 384C271 477 322 577 545 577C781 577 811 473 817 453L1064 453L1064 464C1064 551 997 757 566 757L525 757C85 757 27 524 27 389L27 360C27 228 94-13 525-13Z"  horiz-adv-x="1089" vert-adv-y="1000"  />

      
      <glyph glyph-name="uni44" unicode="&#x44;" d="M57 0L551 0C986 0 1075 202 1075 362L1075 392C1075 559 981 744 550 744L57 744ZM290 568L532 568C800 568 831 453 831 377L831 371C831 295 796 179 532 179L290 179Z"  horiz-adv-x="1098" vert-adv-y="1000"  />

      
      <glyph glyph-name="uni45" unicode="&#x45;" d="M57 744L57 0L851 0L851 173L287 173L287 295L828 295L828 465L287 465L287 575L841 575L841 744Z"  horiz-adv-x="891" vert-adv-y="1000"  />

      
      <glyph glyph-name="uni46" unicode="&#x46;" d="M57 744L57 0L289 0L289 295L813 295L813 465L289 465L289 575L826 575L826 744Z"  horiz-adv-x="867" vert-adv-y="1000"  />

      
      <glyph glyph-name="uni47" unicode="&#x47;" d="M544-13C774-13 870 79 902 116C915 85 929 27 932 0L1072 0L1072 417L548 417L548 276L840 276L840 274C840 253 773 168 552 168C347 168 271 271 271 368L271 379C271 482 327 580 554 580C786 580 813 491 819 474L1067 474L1067 475C1063 576 990 757 574 757L531 757C103 757 27 534 27 389L27 361C27 212 120-13 523-13Z"  horiz-adv-x="1121" vert-adv-y="1000"  />

      
      <glyph glyph-name="uni48" unicode="&#x48;" d="M57 0L290 0L290 293L790 293L790 0L1023 0L1023 744L790 744L790 473L290 473L290 744L57 744Z"  horiz-adv-x="1080" vert-adv-y="1000"  />

      
      <glyph glyph-name="uni49" unicode="&#x49;" d="M290 744L57 744L57 0L290 0Z"  horiz-adv-x="347" vert-adv-y="1000"  />

      
      <glyph glyph-name="uni4a" unicode="&#x4a;" d="M458-11C775-11 848 198 848 352L848 744L614 744L614 358C614 245 558 174 435 174L423 174C262 174 246 284 243 317L7 317L7 311C7 170 92-11 402-11Z"  horiz-adv-x="896" vert-adv-y="1000"  />

      
      <glyph glyph-name="uni4b" unicode="&#x4b;" d="M290 0L290 351L683 0L987 0L539 404L967 744L671 744L290 434L290 744L57 744L57 0Z"  horiz-adv-x="968" vert-adv-y="1000"  />

      
      <glyph glyph-name="uni4c" unicode="&#x4c;" d="M57 744L57 0L807 0L807 185L290 185L290 744Z"  horiz-adv-x="836" vert-adv-y="1000"  />

      
      <glyph glyph-name="uni4d" unicode="&#x4d;" d="M57 0L281 0L281 515L574 0L699 0L992 515L992 0L1222 0L1222 744L903 744L645 281L388 744L57 744Z"  horiz-adv-x="1279" vert-adv-y="1000"  />

      
      <glyph glyph-name="uni4e" unicode="&#x4e;" d="M57 744L57 0L287 0L287 493L792 0L1022 0L1022 744L792 744L792 276L317 744Z"  horiz-adv-x="1079" vert-adv-y="1000"  />

      
      <glyph glyph-name="uni4f" unicode="&#x4f;" d="M551 757C80 757 27 522 27 389L27 359C27 228 80-13 551-13L594-13C1063-13 1117 228 1117 359L1117 389C1117 522 1062 757 594 757ZM873 368C873 282 822 168 572 168C320 168 271 285 271 370L271 382C271 467 316 577 572 577C824 577 873 467 873 382Z"  horiz-adv-x="1144" vert-adv-y="1000"  />

      
      <glyph glyph-name="uni50" unicode="&#x50;" d="M615 248C881 248 962 359 962 492L962 502C962 638 883 744 615 744L57 744L57 0L290 0L290 248ZM290 575L611 575C686 575 719 547 719 496L719 493C719 442 684 415 611 415L290 415Z"  horiz-adv-x="982" vert-adv-y="1000"  />

      
      <glyph glyph-name="uni51" unicode="&#x51;" d="M483-155L821-155L705-8C1069 28 1117 236 1117 359L1117 389C1117 524 1058 757 594 757L551 757C82 757 27 524 27 389L27 359C27 234 80 9 483-11ZM873 368C873 280 822 168 572 168C320 168 271 282 271 370L271 382C271 472 316 577 572 577C824 577 873 471 873 382Z"  horiz-adv-x="1143" vert-adv-y="1000"  />

      
      <glyph glyph-name="uni52" unicode="&#x52;" d="M290 575L643 575C711 575 737 542 737 503L737 502C737 461 710 429 643 429L290 429ZM290 264L594 264C709 264 749 224 749 133L749 47C749 20 753 9 760 0L997 0L997 5C990 17 983 36 983 96L983 205C983 301 918 354 842 376C891 392 980 432 980 539L980 551C980 658 905 744 657 744L57 744L57 0L290 0Z"  horiz-adv-x="1018" vert-adv-y="1000"  />

      
      <glyph glyph-name="uni53" unicode="&#x53;" d="M523-13C897-13 959 113 959 236L959 250C959 398 846 466 566 471L441 473C289 476 269 505 269 537C269 569 282 601 462 601L478 601C673 601 688 540 693 512L935 512L935 522C935 634 855 757 503 757L434 757C95 757 29 641 29 530L29 521C29 405 114 311 392 303L520 300C692 295 715 268 715 225C715 185 693 146 497 146L483 146C291 146 265 219 262 264L19 264L19 253C19 155 64-13 454-13Z"  horiz-adv-x="981" vert-adv-y="1000"  />

      
      <glyph glyph-name="uni54" unicode="&#x54;" d="M348 0L583 0L583 568L904 568L904 744L28 744L28 568L348 568Z"  horiz-adv-x="932" vert-adv-y="1000"  />

      
      <glyph glyph-name="uni55" unicode="&#x55;" d="M548-11C929-11 1005 243 1005 383L1005 744L772 744L772 397C772 301 728 182 528 182C325 182 282 301 282 397L282 744L48 744L48 383C48 243 113-11 512-11Z"  horiz-adv-x="1053" vert-adv-y="1000"  />

      
      <glyph glyph-name="uni56" unicode="&#x56;" d="M665 0L1025 744L783 744L526 197L252 744L-12 744L375 0Z"  horiz-adv-x="1013" vert-adv-y="1000"  />

      
      <glyph glyph-name="uni57" unicode="&#x57;" d="M551 0L720 498L899 0L1134 0L1435 744L1206 744L1018 247L848 744L600 744L434 232L242 744L-12 744L294 0Z"  horiz-adv-x="1423" vert-adv-y="1000"  />

      
      <glyph glyph-name="uni58" unicode="&#x58;" d="M277 0L503 231L731 0L1024 0L659 381L1016 744L730 744L520 526L310 744L-2 744L360 376L-10 0Z"  horiz-adv-x="1014" vert-adv-y="1000"  />

      
      <glyph glyph-name="uni59" unicode="&#x59;" d="M376 0L609 0L609 288L996 744L733 744L498 470L267 744L-22 744L376 288Z"  horiz-adv-x="974" vert-adv-y="1000"  />

      
      <glyph glyph-name="uni5a" unicode="&#x5a;" d="M42 744L42 572L531 572L34 137L34 0L879 0L879 176L362 176L872 608L872 744Z"  horiz-adv-x="913" vert-adv-y="1000"  />

      
      <glyph glyph-name="uni5b" unicode="&#x5b;" d="M57-131L336-131L336-20L229-20L229 698L336 698L336 808L57 808Z"  horiz-adv-x="350" vert-adv-y="1000"  />

      
      <glyph glyph-name="uni5c" unicode="&#x5c;" d="M339-131L507-131L161 808L-10 808Z"  horiz-adv-x="470" vert-adv-y="1000"  />

      
      <glyph glyph-name="uni5d" unicode="&#x5d;" d="M14-131L293-131L293 808L14 808L14 698L121 698L121-20L14-20Z"  horiz-adv-x="350" vert-adv-y="1000"  />

      
      <glyph glyph-name="uni5e" unicode="&#x5e;" d="M497 428L699 428L459 744L243 744L3 428L207 428L352 617Z"  horiz-adv-x="702" vert-adv-y="1000"  />

      
      <glyph glyph-name="uni5f" unicode="&#x5f;" d="M3-151L818-151L818-20L3-20Z"  horiz-adv-x="821" vert-adv-y="1000"  />

      
      <glyph glyph-name="uni60" unicode="&#x60;" d="M514 590L424 744L192 744L299 590Z"  horiz-adv-x="706" vert-adv-y="1000"  />

      
      <glyph glyph-name="uni61" unicode="&#x61;" d="M522 239C522 175 445 111 326 111C250 111 228 143 228 172L228 173C228 204 252 214 309 223L522 256ZM528 74C536 23 570 0 613 0L794 0L794 146L765 146C742 146 737 157 737 173L737 379C737 457 717 553 405 553L350 553C50 553 29 442 29 371L29 369L236 369C239 387 244 429 377 429L382 429C513 429 522 405 522 385C522 368 513 360 488 357L242 334C81 319 16 272 16 173L16 166C16 74 85-10 266-10L279-10C437-10 505 45 528 74Z"  horiz-adv-x="800" vert-adv-y="1000"  />

      
      <glyph glyph-name="uni62" unicode="&#x62;" d="M47 744L47 0L253 0C256 25 260 55 267 76C288 55 379-13 533-13L550-13C789-13 886 117 886 262L886 281C886 428 801 551 557 551L539 551C378 551 294 482 270 463L270 744ZM270 273C270 342 331 412 464 412L470 412C615 412 658 342 658 273L658 269C658 204 615 129 470 129L464 129C333 129 270 202 270 269Z"  horiz-adv-x="912" vert-adv-y="1000"  />

      
      <glyph glyph-name="uni63" unicode="&#x63;" d="M452-15C796-15 831 150 831 225L831 227L602 227C597 206 575 128 424 128L421 128C292 128 250 200 250 272L250 279C250 347 291 412 421 412L424 412C577 412 597 336 602 315L831 315L831 318C831 390 789 553 453 553L396 553C89 553 22 402 22 282L22 262C22 142 90-15 397-15Z"  horiz-adv-x="850" vert-adv-y="1000"  />

      
      <glyph glyph-name="uni64" unicode="&#x64;" d="M638 268C638 199 568 129 436 129L431 129C300 129 250 203 250 268L250 272C250 342 289 410 429 410L434 410C566 410 638 342 638 272ZM638 744L638 466C613 488 536 551 368 551L352 551C111 551 22 427 22 283L22 264C22 113 122-13 361-13L374-13C547-13 625 61 640 82L640 0L862 0L862 744Z"  horiz-adv-x="909" vert-adv-y="1000"  />

      
      <glyph glyph-name="uni65" unicode="&#x65;" d="M425 428C538 428 590 394 605 337L245 337C262 394 312 428 424 428ZM827 190L607 190C604 177 580 121 432 121L431 121C308 121 254 163 241 226L830 226L830 263C830 394 772 553 456 553L395 553C104 553 22 420 22 282L22 260C22 119 114-15 401-15L458-15C779-15 827 116 827 189Z"  horiz-adv-x="851" vert-adv-y="1000"  />

      
      <glyph glyph-name="uni66" unicode="&#x66;" d="M466 744L304 744C149 744 117 669 117 602L117 538L14 538L14 390L117 390L117 0L337 0L337 390L466 390L466 538L337 538L337 568C337 599 344 612 379 612L466 612Z"  horiz-adv-x="488" vert-adv-y="1000"  />

      
      <glyph glyph-name="uni67" unicode="&#x67;" d="M439 411C579 411 642 353 642 289L642 285C642 223 580 161 439 161L433 161C296 161 249 225 249 286L249 291C249 351 289 411 433 411ZM492-195C822-195 870 1 870 98L870 538L646 538L646 466C617 493 545 551 366 551L345 551C106 551 22 431 22 301L22 281C22 142 121 24 373 24L385 24C554 24 620 81 647 105C647 36 621-50 455-50L452-50C299-50 283-13 280 0L55 0L55-3C55-46 83-195 421-195Z"  horiz-adv-x="917" vert-adv-y="1000"  />

      
      <glyph glyph-name="uni68" unicode="&#x68;" d="M47 0L270 0L270 254C270 342 335 400 435 400C534 400 579 349 579 266L579 0L804 0L804 340C804 444 728 550 542 550L535 550C375 550 294 472 270 448L270 744L47 744Z"  horiz-adv-x="849" vert-adv-y="1000"  />

      
      <glyph glyph-name="uni69" unicode="&#x69;" d="M270 744L47 744L47 590L270 590ZM270 538L47 538L47 0L270 0Z"  horiz-adv-x="317" vert-adv-y="1000"  />

      
      <glyph glyph-name="uni6a" unicode="&#x6a;" d="M270 744L47 744L47 590L270 590ZM-26-31L-26-188L168-188C225-188 270-148 270-49L270 538L47 538L47 7C47-24 38-31 15-31Z"  horiz-adv-x="317" vert-adv-y="1000"  />

      
      <glyph glyph-name="uni6b" unicode="&#x6b;" d="M270 0L270 247L504 0L766 0L481 295L735 538L488 538L270 323L270 744L47 744L47 0Z"  horiz-adv-x="751" vert-adv-y="1000"  />

      
      <glyph glyph-name="uni6c" unicode="&#x6c;" d="M270 744L47 744L47 0L270 0Z"  horiz-adv-x="317" vert-adv-y="1000"  />

      
      <glyph glyph-name="uni6d" unicode="&#x6d;" d="M270 0L270 254C270 338 328 400 424 400C512 400 547 345 547 266L547 0L772 0L772 254C772 338 830 400 926 400C1014 400 1048 345 1048 266L1048 0L1273 0L1273 340C1273 441 1204 550 1025 550L1017 550C873 550 786 483 746 443C713 503 646 550 531 550L524 550C368 550 293 470 268 445L268 538L47 538L47 0Z"  horiz-adv-x="1318" vert-adv-y="1000"  />

      
      <glyph glyph-name="uni6e" unicode="&#x6e;" d="M47 0L270 0L270 254C270 342 335 400 435 400C534 400 579 349 579 266L579 0L804 0L804 340C804 444 730 550 542 550L535 550C375 550 295 473 268 446L268 538L47 538Z"  horiz-adv-x="849" vert-adv-y="1000"  />

      
      <glyph glyph-name="uni6f" unicode="&#x6f;" d="M479-15C811-15 864 139 864 263L864 281C864 403 807 553 479 553L408 553C96 553 22 405 22 281L22 263C22 139 97-15 409-15ZM444 130C292 130 250 206 250 269L250 274C250 342 292 410 444 410L445 410C595 410 638 341 638 274L638 269C638 206 596 130 444 130Z"  horiz-adv-x="886" vert-adv-y="1000"  />

      
      <glyph glyph-name="uni70" unicode="&#x70;" d="M270 273C270 342 330 412 469 412L474 412C618 412 658 342 658 273L658 269C658 204 618 129 474 129L469 129C333 129 270 202 270 269ZM47 538L47-188L270-188L270 76C288 56 378-13 538-13L554-13C802-13 886 121 886 262L886 281C886 429 805 551 561 551L543 551C380 551 294 482 270 461L270 538Z"  horiz-adv-x="908" vert-adv-y="1000"  />

      
      <glyph glyph-name="uni71" unicode="&#x71;" d="M659 538C656 515 651 486 640 465C614 486 535 551 369 551L355 551C112 551 22 426 22 283L22 264C22 114 116-13 367-13L375-13C544-13 616 49 638 74L638-188L861-188L861 538ZM638 269C638 201 570 128 436 128L431 128C295 128 250 203 250 268L250 272C250 342 289 410 429 410L434 410C567 410 638 343 638 273Z"  horiz-adv-x="908" vert-adv-y="1000"  />

      
      <glyph glyph-name="uni72" unicode="&#x72;" d="M270 278C270 347 311 408 386 408L387 408C471 408 501 348 501 279L716 279L716 310C716 449 653 550 497 550L486 550C352 550 287 473 268 443L268 538L47 538L47 0L270 0Z"  horiz-adv-x="735" vert-adv-y="1000"  />

      
      <glyph glyph-name="uni73" unicode="&#x73;" d="M404-15C701-15 759 71 759 170L759 176C759 284 707 340 459 345L363 347C270 350 250 366 250 390L250 392C250 419 271 432 378 432L379 432C499 432 509 397 512 377L739 377L739 384C739 468 674 553 402 553L362 553C66 553 22 468 22 385L22 379C22 300 78 216 312 211L408 209C513 206 526 190 526 162L526 160C526 134 511 109 387 109L385 109C255 109 247 162 247 182L17 182L17 176C17 107 49-15 363-15Z"  horiz-adv-x="779" vert-adv-y="1000"  />

      
      <glyph glyph-name="uni74" unicode="&#x74;" d="M445 0L445 148L384 148C345 148 339 166 339 195L339 390L445 390L445 538L339 538L339 695L119 695L119 538L14 538L14 390L119 390L119 153C119 60 155 0 252 0Z"  horiz-adv-x="474" vert-adv-y="1000"  />

      
      <glyph glyph-name="uni75" unicode="&#x75;" d="M791 538L568 538L568 284C568 196 505 138 408 138C313 138 270 192 270 272L270 538L45 538L45 203C45 102 116-12 301-12L309-12C465-12 543 68 570 93L570 0L791 0Z"  horiz-adv-x="838" vert-adv-y="1000"  />

      
      <glyph glyph-name="uni76" unicode="&#x76;" d="M263 0L531 0L794 538L570 538L402 170L229 538L-11 538Z"  horiz-adv-x="783" vert-adv-y="1000"  />

      
      <glyph glyph-name="uni77" unicode="&#x77;" d="M444 0L576 356L708 0L944 0L1152 538L944 538L825 194L700 538L466 538L345 194L222 538L-10 538L213 0Z"  horiz-adv-x="1142" vert-adv-y="1000"  />

      
      <glyph glyph-name="uni78" unicode="&#x78;" d="M237 0L392 154L550 0L802 0L523 277L793 538L543 538L402 397L261 538L-2 538L270 273L-11 0Z"  horiz-adv-x="791" vert-adv-y="1000"  />

      
      <glyph glyph-name="uni79" unicode="&#x79;" d="M119-188L314-188C411-188 461-137 512-36L794 538L570 538L402 174L229 538L-11 538L246 46C262 15 271 0 271-11C271-22 266-28 245-28L119-28Z"  horiz-adv-x="783" vert-adv-y="1000"  />

      
      <glyph glyph-name="uni7a" unicode="&#x7a;" d="M700 0L700 149L316 149L698 413L698 538L24 538L24 393L389 393L24 130L24 0Z"  horiz-adv-x="724" vert-adv-y="1000"  />

      
      <glyph glyph-name="uni7b" unicode="&#x7b;" d="M351-131L351-20L282-20C247-20 230-1 230 27C230 74 295 188 295 252C295 299 271 327 200 342C271 358 295 389 295 445C295 504 230 612 230 659C230 685 245 698 274 698L351 698L351 808L226 808C102 808 50 766 50 687C50 606 135 490 135 435C135 412 122 397 90 397L27 397L27 285L90 285C122 285 135 268 135 239C135 188 50 65 50-17C50-97 109-131 226-131Z"  horiz-adv-x="365" vert-adv-y="1000"  />

      
      <glyph glyph-name="uni7c" unicode="&#x7c;" d="M271 808L110 808L110-131L271-131Z"  horiz-adv-x="381" vert-adv-y="1000"  />

      
      <glyph glyph-name="uni7d" unicode="&#x7d;" d="M14-131L139-131C256-131 315-97 315-17C315 65 230 188 230 239C230 268 243 285 275 285L338 285L338 397L275 397C243 397 230 412 230 435C230 490 315 606 315 687C315 766 263 808 139 808L14 808L14 698L91 698C120 698 135 685 135 659C135 612 71 504 71 445C71 389 96 358 165 342C94 327 71 299 71 252C71 188 135 74 135 27C135-1 118-20 83-20L14-20Z"  horiz-adv-x="365" vert-adv-y="1000"  />

      
      <glyph glyph-name="uni7e" unicode="&#x7e;" d="M504 258C611 258 645 330 645 396L645 549L478 549L478 457C478 436 470 425 453 425C434 425 406 441 362 464C289 502 246 527 172 527C57 527 27 441 27 368L27 238L194 238L194 324C194 343 202 357 221 357C243 357 253 351 309 322C389 279 428 258 504 258Z"  horiz-adv-x="672" vert-adv-y="1000"  />

      
      <glyph glyph-name="unia1" unicode="&#xa1;" d="M290-206L221 312L87 312L18-206ZM33 363L275 363L275 538L33 538Z"  horiz-adv-x="320" vert-adv-y="1000"  />

      
      <glyph glyph-name="unia2" unicode="&#xa2;" d="M477-77L477-15C805-11 838 152 838 225L838 227L610 227C605 206 587 144 477 131L477 409C588 396 604 335 610 315L838 315L838 318C838 390 797 549 477 553L477 615L377 615L377 553C86 548 22 398 22 282L22 262C22 145 86-7 377-15L377-77ZM250 279C250 339 282 396 377 409L377 131C282 147 250 208 250 272Z"  horiz-adv-x="857" vert-adv-y="1000"  />

      
      <glyph glyph-name="unia3" unicode="&#xa3;" d="M877 258L640 258L640 157L292 157C319 173 361 201 361 270C361 283 359 299 356 318L681 318L681 425L333 425C328 448 325 466 325 480C325 535 351 596 480 596C612 596 627 523 630 486L861 486L861 494C861 586 845 753 495 753L454 753C166 753 98 631 98 526L98 519C98 488 105 456 114 425L18 425L18 318L153 318C164 287 173 258 173 233L173 230C173 175 134 157 69 157L18 157L18 0L877 0Z"  horiz-adv-x="908" vert-adv-y="1000"  />

      
      <glyph glyph-name="unia5" unicode="&#xa5;" d="M362 0L597 0L597 154L864 154L864 242L597 242L597 297L864 297L864 385L663 385L971 744L709 744L485 485L265 744L-22 744L296 385L95 385L95 297L362 297L362 242L95 242L95 154L362 154Z"  horiz-adv-x="949" vert-adv-y="1000"  />

      
      <glyph glyph-name="unia7" unicode="&#xa7;" d="M627 188C601 196 571 200 342 237C263 250 243 278 243 313C243 344 260 365 280 376C305 368 334 361 568 326C645 314 665 286 665 251C665 223 648 200 627 188ZM480-209C765-209 833-111 833-8L833 2C833 58 812 107 756 139C819 157 892 195 892 283L892 293C892 391 835 453 617 485L418 513C309 529 300 549 300 575L300 577C300 605 315 627 451 627L459 627C603 627 614 571 617 547L845 547L845 550C845 642 809 759 481 759L440 759C152 759 74 687 74 576L74 566C74 510 94 458 154 425C82 409 16 366 16 288L16 279C16 188 77 111 294 79L489 49C597 33 604 9 604-18L604-20C604-46 585-74 465-74L458-74C292-74 280-13 277 20L48 20L48 17C48-54 73-209 438-209Z"  horiz-adv-x="912" vert-adv-y="1000"  />

      
      <glyph glyph-name="unia8" unicode="&#xa8;" d="M593 744L377 744L377 590L593 590ZM327 744L112 744L112 590L327 590Z"  horiz-adv-x="706" vert-adv-y="1000"  />

      
      <glyph glyph-name="unia9" unicode="&#xa9;" d="M598-11C1027-11 1138 166 1138 359L1138 387C1138 575 1028 755 597 755L568 755C137 755 27 575 27 387L27 359C27 166 138-11 567-11ZM151 378C151 541 243 664 570 664L595 664C922 664 1014 541 1014 378L1014 366C1014 219 921 80 595 80L570 80C244 80 151 219 151 366ZM599 147C893 147 923 277 923 336L923 342L731 342C728 329 715 265 586 265C463 265 434 323 434 373L434 381C434 435 461 482 585 482C712 482 728 423 731 412L922 412L922 417C922 472 896 600 599 600L573 600C286 600 248 467 248 384L248 367C248 285 290 147 573 147Z"  horiz-adv-x="1165" vert-adv-y="1000"  />

      
      <glyph glyph-name="uniaa" unicode="&#xaa;" d="M235 466C192 466 176 481 176 500C176 519 189 527 226 534L355 554L355 548C355 505 312 466 235 466ZM369 440C373 404 395 386 426 386L551 386L551 488L531 488C515 488 513 495 513 506L513 638C513 689 493 751 286 751L247 751C37 751 27 679 27 632L27 630L180 630C180 642 184 666 263 666L271 666C347 666 355 653 355 640C355 630 349 625 336 624L184 610C75 599 18 568 18 501L18 496C18 436 61 379 190 379L199 379C306 379 350 419 369 440Z"  horiz-adv-x="569" vert-adv-y="1000"  />

      
      <glyph glyph-name="uniab" unicode="&#xab;" d="M180 287L302 455L139 455L14 287L138 117L299 117ZM404 287L524 455L361 455L238 287L357 117L518 117Z"  horiz-adv-x="540" vert-adv-y="1000"  />

      
      <glyph glyph-name="uniae" unicode="&#xae;" d="M310 754C71 754 18 641 18 554L18 539C18 447 75 339 310 339L342 339C558 339 632 447 632 539L632 553C632 641 582 754 344 754ZM326 396C117 396 92 477 92 547C92 622 115 697 326 697L328 697C533 697 558 618 558 551C558 482 533 396 328 396ZM273 565L273 602L361 602C381 602 388 595 388 584C388 573 381 565 361 565ZM273 510L357 510C380 510 388 502 388 479L388 458C388 447 392 444 395 441L489 441L489 444C485 449 483 453 483 465L483 504C483 527 468 545 433 552C454 555 480 570 480 599L480 601C480 629 458 654 385 654L179 654L179 441L273 441Z"  horiz-adv-x="650" vert-adv-y="1000"  />

      
      <glyph glyph-name="uniaf" unicode="&#xaf;" d="M142 601L564 601L564 723L142 723Z"  horiz-adv-x="706" vert-adv-y="1000"  />

      
      <glyph glyph-name="unib0" unicode="&#xb0;" d="M205 383C315 383 401 459 401 569C401 679 315 755 205 755C95 755 9 679 9 569C9 459 95 383 205 383ZM205 488C157 488 122 522 122 570C122 618 157 652 205 652C254 652 288 618 288 570C288 522 254 488 205 488Z"  horiz-adv-x="410" vert-adv-y="1000"  />

      
      <glyph glyph-name="unib4" unicode="&#xb4;" d="M193 590L406 590L513 744L283 744Z"  horiz-adv-x="706" vert-adv-y="1000"  />

      
      <glyph glyph-name="unib6" unicode="&#xb6;" d="M311 0L449 0L449 635L549 635L549 0L687 0L687 635L765 635L765 744L258 744C61 744 14 659 14 546L14 527C14 412 80 328 256 328L311 328Z"  horiz-adv-x="778" vert-adv-y="1000"  />

      
      <glyph glyph-name="unib7" unicode="&#xb7;" d="M276 385L35 385L35 210L276 210Z"  horiz-adv-x="311" vert-adv-y="1000"  />

      
      <glyph glyph-name="unib8" unicode="&#xb8;" d="M181-258L342-258C493-258 525-209 525-154L525-151C525-89 492-50 343-50L343 0L216 0L216-123L287-123C319-123 327-133 327-146C327-159 319-168 287-168L181-168Z"  horiz-adv-x="706" vert-adv-y="1000"  />

      
      <glyph glyph-name="uniba" unicode="&#xba;" d="M324 376C549 376 585 477 585 560L585 571C585 654 545 751 324 751L278 751C65 751 16 654 16 571L16 560C16 477 65 376 278 376ZM300 478C211 478 184 521 184 564L184 567C184 611 211 651 300 651L301 651C388 651 417 611 417 567L417 564C417 521 391 478 300 478Z"  horiz-adv-x="601" vert-adv-y="1000"  />

      
      <glyph glyph-name="unibb" unicode="&#xbb;" d="M136 287L22 117L183 117L302 287L179 455L16 455ZM402 117L526 287L401 455L238 455L360 287L241 117Z"  horiz-adv-x="540" vert-adv-y="1000"  />

      
      <glyph glyph-name="unibf" unicode="&#xbf;" d="M348 297L348 290C348 253 345 236 282 220L199 198C59 162 7 94 7-1L7-8C7-105 62-215 378-215L434-215C807-215 818-70 818 23L818 35L590 35C587 6 587-58 406-58C245-58 238-32 238-6C238 16 249 36 331 57L415 78C551 113 576 150 576 222L576 297ZM338 363L579 363L579 538L338 538Z"  horiz-adv-x="838" vert-adv-y="1000"  />

      
      <glyph glyph-name="unic0" unicode="&#xc0;" d="M653 304L371 304L509 583ZM809 0L1060 0L662 744L360 744L-16 0L221 0L288 136L739 136ZM531 946L291 946L396 796L621 796Z"  horiz-adv-x="1044" vert-adv-y="1000"  />

      
      <glyph glyph-name="unic1" unicode="&#xc1;" d="M653 304L371 304L509 583ZM809 0L1060 0L662 744L360 744L-16 0L221 0L288 136L739 136ZM402 796L627 796L732 946L492 946Z"  horiz-adv-x="1044" vert-adv-y="1000"  />

      
      <glyph glyph-name="unic2" unicode="&#xc2;" d="M653 304L371 304L509 583ZM809 0L1060 0L662 744L360 744L-16 0L221 0L288 136L739 136ZM636 946L385 946L228 796L445 796L510 854L576 796L796 796Z"  horiz-adv-x="1044" vert-adv-y="1000"  />

      
      <glyph glyph-name="unic3" unicode="&#xc3;" d="M653 304L371 304L509 583ZM809 0L1060 0L662 744L360 744L-16 0L221 0L288 136L739 136ZM640 802C724 802 740 858 740 900L740 980L594 980L594 950C594 938 588 929 576 929C560 929 542 935 515 944C456 964 428 973 387 973L381 973C298 973 281 917 281 875L281 794L427 794L427 825C427 836 432 846 445 846C460 846 481 840 506 831C570 810 596 802 634 802Z"  horiz-adv-x="1044" vert-adv-y="1000"  />

      
      <glyph glyph-name="unic4" unicode="&#xc4;" d="M653 304L371 304L509 583ZM809 0L1060 0L662 744L360 744L-16 0L221 0L288 136L739 136ZM759 946L537 946L537 796L759 796ZM485 946L263 946L263 796L485 796Z"  horiz-adv-x="1044" vert-adv-y="1000"  />

      
      <glyph glyph-name="unic5" unicode="&#xc5;" d="M653 304L371 304L509 583ZM809 0L1060 0L662 744L360 744L-16 0L221 0L288 136L739 136ZM320 902C320 838 363 784 513 784C659 784 702 835 702 902C702 966 659 1018 513 1018C366 1018 320 966 320 902ZM435 902C435 929 457 947 513 947C568 947 588 929 588 902C588 874 568 855 513 855C457 855 435 874 435 902Z"  horiz-adv-x="1044" vert-adv-y="1000"  />

      
      <glyph glyph-name="unic6" unicode="&#xc6;" d="M649 298L436 298L649 576ZM649 0L1433 0L1433 173L879 173L879 295L1410 295L1410 465L879 465L879 575L1423 575L1423 744L536 744L-31 0L208 0L308 130L649 130Z"  horiz-adv-x="1473" vert-adv-y="1000"  />

      
      <glyph glyph-name="unic7" unicode="&#xc7;" d="M566-13C991-13 1065 195 1065 289L1065 300L818 300C812 283 788 168 547 168C330 168 271 284 271 372L271 384C271 477 322 577 545 577C781 577 811 473 817 453L1064 453L1064 464C1064 551 997 757 566 757L525 757C85 757 27 524 27 389L27 360C27 228 94-13 525-13ZM374-258L535-258C686-258 718-209 718-154L718-151C718-89 685-50 536-50L536 0L409 0L409-123L480-123C512-123 520-133 520-146C520-159 512-168 480-168L374-168Z"  horiz-adv-x="1089" vert-adv-y="1000"  />

      
      <glyph glyph-name="unic8" unicode="&#xc8;" d="M57 744L57 0L851 0L851 173L287 173L287 295L828 295L828 465L287 465L287 575L841 575L841 744ZM507 946L267 946L372 796L597 796Z"  horiz-adv-x="891" vert-adv-y="1000"  />

      
      <glyph glyph-name="unic9" unicode="&#xc9;" d="M57 744L57 0L851 0L851 173L287 173L287 295L828 295L828 465L287 465L287 575L841 575L841 744ZM334 796L559 796L664 946L424 946Z"  horiz-adv-x="891" vert-adv-y="1000"  />

      
      <glyph glyph-name="unica" unicode="&#xca;" d="M57 744L57 0L851 0L851 173L287 173L287 295L828 295L828 465L287 465L287 575L841 575L841 744ZM583 946L332 946L175 796L392 796L457 854L523 796L743 796Z"  horiz-adv-x="891" vert-adv-y="1000"  />

      
      <glyph glyph-name="unicb" unicode="&#xcb;" d="M57 744L57 0L851 0L851 173L287 173L287 295L828 295L828 465L287 465L287 575L841 575L841 744ZM707 946L485 946L485 796L707 796ZM433 946L211 946L211 796L433 796Z"  horiz-adv-x="891" vert-adv-y="1000"  />

      
      <glyph glyph-name="unicc" unicode="&#xcc;" d="M290 744L57 744L57 0L290 0ZM196 946L-44 946L61 796L286 796Z"  horiz-adv-x="347" vert-adv-y="1000"  />

      
      <glyph glyph-name="unicd" unicode="&#xcd;" d="M290 744L57 744L57 0L290 0ZM64 796L289 796L394 946L154 946Z"  horiz-adv-x="347" vert-adv-y="1000"  />

      
      <glyph glyph-name="unice" unicode="&#xce;" d="M290 744L57 744L57 0L290 0ZM297 946L46 946L-111 796L106 796L171 854L237 796L457 796Z"  horiz-adv-x="347" vert-adv-y="1000"  />

      
      <glyph glyph-name="unicf" unicode="&#xcf;" d="M290 744L57 744L57 0L290 0ZM421 946L199 946L199 796L421 796ZM147 946L-75 946L-75 796L147 796Z"  horiz-adv-x="347" vert-adv-y="1000"  />

      
      <glyph glyph-name="unid1" unicode="&#xd1;" d="M57 744L57 0L287 0L287 493L792 0L1022 0L1022 744L792 744L792 276L317 744ZM677 802C761 802 777 858 777 900L777 980L631 980L631 950C631 938 625 929 613 929C597 929 579 935 552 944C493 964 465 973 424 973L418 973C335 973 318 917 318 875L318 794L464 794L464 825C464 836 469 846 482 846C497 846 518 840 543 831C607 810 633 802 671 802Z"  horiz-adv-x="1079" vert-adv-y="1000"  />

      
      <glyph glyph-name="unid2" unicode="&#xd2;" d="M551 757C80 757 27 522 27 389L27 359C27 228 80-13 551-13L594-13C1063-13 1117 228 1117 359L1117 389C1117 522 1062 757 594 757ZM873 368C873 282 822 168 572 168C320 168 271 285 271 370L271 382C271 467 316 577 572 577C824 577 873 467 873 382ZM596 946L356 946L461 796L686 796Z"  horiz-adv-x="1144" vert-adv-y="1000"  />

      
      <glyph glyph-name="unid3" unicode="&#xd3;" d="M551 757C80 757 27 522 27 389L27 359C27 228 80-13 551-13L594-13C1063-13 1117 228 1117 359L1117 389C1117 522 1062 757 594 757ZM873 368C873 282 822 168 572 168C320 168 271 285 271 370L271 382C271 467 316 577 572 577C824 577 873 467 873 382ZM463 796L688 796L793 946L553 946Z"  horiz-adv-x="1144" vert-adv-y="1000"  />

      
      <glyph glyph-name="unid4" unicode="&#xd4;" d="M551 757C80 757 27 522 27 389L27 359C27 228 80-13 551-13L594-13C1063-13 1117 228 1117 359L1117 389C1117 522 1062 757 594 757ZM873 368C873 282 822 168 572 168C320 168 271 285 271 370L271 382C271 467 316 577 572 577C824 577 873 467 873 382ZM696 946L445 946L288 796L505 796L570 854L636 796L856 796Z"  horiz-adv-x="1144" vert-adv-y="1000"  />

      
      <glyph glyph-name="unid5" unicode="&#xd5;" d="M551 757C80 757 27 522 27 389L27 359C27 228 80-13 551-13L594-13C1063-13 1117 228 1117 359L1117 389C1117 522 1062 757 594 757ZM873 368C873 282 822 168 572 168C320 168 271 285 271 370L271 382C271 467 316 577 572 577C824 577 873 467 873 382ZM701 802C785 802 801 858 801 900L801 980L655 980L655 950C655 938 649 929 637 929C621 929 603 935 576 944C517 964 489 973 448 973L442 973C359 973 342 917 342 875L342 794L488 794L488 825C488 836 493 846 506 846C521 846 542 840 567 831C631 810 657 802 695 802Z"  horiz-adv-x="1144" vert-adv-y="1000"  />

      
      <glyph glyph-name="unid6" unicode="&#xd6;" d="M551 757C80 757 27 522 27 389L27 359C27 228 80-13 551-13L594-13C1063-13 1117 228 1117 359L1117 389C1117 522 1062 757 594 757ZM873 368C873 282 822 168 572 168C320 168 271 285 271 370L271 382C271 467 316 577 572 577C824 577 873 467 873 382ZM820 946L598 946L598 796L820 796ZM546 946L324 946L324 796L546 796Z"  horiz-adv-x="1144" vert-adv-y="1000"  />

      
      <glyph glyph-name="unid8" unicode="&#xd8;" d="M595-13C1062-13 1117 226 1117 359L1117 389C1117 481 1086 567 1010 635L1149 744L935 744L888 708C815 739 720 757 595 757L551 757C80 757 27 524 27 389L27 359C27 268 56 179 133 110C90 77 56 49 32 30L-6 0L207 0L254 37C329 6 426-13 551-13ZM271 382C271 470 316 576 572 576C627 576 671 573 708 566L310 251C279 288 271 331 271 370ZM572 169C516 169 472 173 435 180L836 497C867 462 873 421 873 382L873 368C873 280 822 169 572 169Z"  horiz-adv-x="1144" vert-adv-y="1000"  />

      
      <glyph glyph-name="unid9" unicode="&#xd9;" d="M548-11C929-11 1005 243 1005 383L1005 744L772 744L772 397C772 301 728 182 528 182C325 182 282 301 282 397L282 744L48 744L48 383C48 243 113-11 512-11ZM565 944L325 944L430 794L655 794Z"  horiz-adv-x="1053" vert-adv-y="1000"  />

      
      <glyph glyph-name="unida" unicode="&#xda;" d="M548-11C929-11 1005 243 1005 383L1005 744L772 744L772 397C772 301 728 182 528 182C325 182 282 301 282 397L282 744L48 744L48 383C48 243 113-11 512-11ZM399 796L624 796L729 946L489 946Z"  horiz-adv-x="1053" vert-adv-y="1000"  />

      
      <glyph glyph-name="unidb" unicode="&#xdb;" d="M548-11C929-11 1005 243 1005 383L1005 744L772 744L772 397C772 301 728 182 528 182C325 182 282 301 282 397L282 744L48 744L48 383C48 243 113-11 512-11ZM650 946L399 946L242 796L459 796L524 854L590 796L810 796Z"  horiz-adv-x="1053" vert-adv-y="1000"  />

      
      <glyph glyph-name="unidc" unicode="&#xdc;" d="M548-11C929-11 1005 243 1005 383L1005 744L772 744L772 397C772 301 728 182 528 182C325 182 282 301 282 397L282 744L48 744L48 383C48 243 113-11 512-11ZM774 946L552 946L552 796L774 796ZM500 946L278 946L278 796L500 796Z"  horiz-adv-x="1053" vert-adv-y="1000"  />

      
      <glyph glyph-name="unidf" unicode="&#xdf;" d="M670 431C736 442 792 492 792 563L792 569C792 646 763 744 438 744L378 744C82 744 47 613 47 522L47 0L270 0L270 504C270 566 302 596 411 596L424 596C560 596 570 564 570 532L570 531C570 499 554 470 463 470L337 470L337 312L477 312C589 312 613 281 613 236L613 235C613 190 589 158 477 158L337 158L337 0L520 0C791 0 851 116 851 227L851 239C851 359 768 410 670 431Z"  horiz-adv-x="871" vert-adv-y="1000"  />

      
      <glyph glyph-name="unie0" unicode="&#xe0;" d="M522 239C522 175 445 111 326 111C250 111 228 143 228 172L228 173C228 204 252 214 309 223L522 256ZM528 74C536 23 570 0 613 0L794 0L794 146L765 146C742 146 737 157 737 173L737 379C737 457 717 553 405 553L350 553C50 553 29 442 29 371L29 369L236 369C239 387 244 429 377 429L382 429C513 429 522 405 522 385C522 368 513 360 488 357L242 334C81 319 16 272 16 173L16 166C16 74 85-10 266-10L279-10C437-10 505 45 528 74ZM489 590L399 744L167 744L274 590Z"  horiz-adv-x="800" vert-adv-y="1000"  />

      
      <glyph glyph-name="unie1" unicode="&#xe1;" d="M522 239C522 175 445 111 326 111C250 111 228 143 228 172L228 173C228 204 252 214 309 223L522 256ZM528 74C536 23 570 0 613 0L794 0L794 146L765 146C742 146 737 157 737 173L737 379C737 457 717 553 405 553L350 553C50 553 29 442 29 371L29 369L236 369C239 387 244 429 377 429L382 429C513 429 522 405 522 385C522 368 513 360 488 357L242 334C81 319 16 272 16 173L16 166C16 74 85-10 266-10L279-10C437-10 505 45 528 74ZM272 590L485 590L592 744L362 744Z"  horiz-adv-x="800" vert-adv-y="1000"  />

      
      <glyph glyph-name="unie2" unicode="&#xe2;" d="M522 239C522 175 445 111 326 111C250 111 228 143 228 172L228 173C228 204 252 214 309 223L522 256ZM528 74C536 23 570 0 613 0L794 0L794 146L765 146C742 146 737 157 737 173L737 379C737 457 717 553 405 553L350 553C50 553 29 442 29 371L29 369L236 369C239 387 244 429 377 429L382 429C513 429 522 405 522 385C522 368 513 360 488 357L242 334C81 319 16 272 16 173L16 166C16 74 85-10 266-10L279-10C437-10 505 45 528 74ZM501 745L254 745L104 590L316 590L377 654L438 590L653 590Z"  horiz-adv-x="800" vert-adv-y="1000"  />

      
      <glyph glyph-name="unie3" unicode="&#xe3;" d="M522 239C522 175 445 111 326 111C250 111 228 143 228 172L228 173C228 204 252 214 309 223L522 256ZM528 74C536 23 570 0 613 0L794 0L794 146L765 146C742 146 737 157 737 173L737 379C737 457 717 553 405 553L350 553C50 553 29 442 29 371L29 369L236 369C239 387 244 429 377 429L382 429C513 429 522 405 522 385C522 368 513 360 488 357L242 334C81 319 16 272 16 173L16 166C16 74 85-10 266-10L279-10C437-10 505 45 528 74ZM502 594C583 594 598 650 598 692L598 768L454 768L454 739C454 727 450 717 438 717C423 717 408 723 381 732C317 753 298 760 257 760L252 760C172 760 155 704 155 663L155 587L299 587L299 616C299 628 302 637 315 637C330 637 345 631 372 622C436 601 461 594 496 594Z"  horiz-adv-x="800" vert-adv-y="1000"  />

      
      <glyph glyph-name="unie4" unicode="&#xe4;" d="M522 239C522 175 445 111 326 111C250 111 228 143 228 172L228 173C228 204 252 214 309 223L522 256ZM528 74C536 23 570 0 613 0L794 0L794 146L765 146C742 146 737 157 737 173L737 379C737 457 717 553 405 553L350 553C50 553 29 442 29 371L29 369L236 369C239 387 244 429 377 429L382 429C513 429 522 405 522 385C522 368 513 360 488 357L242 334C81 319 16 272 16 173L16 166C16 74 85-10 266-10L279-10C437-10 505 45 528 74ZM619 744L403 744L403 590L619 590ZM353 744L138 744L138 590L353 590Z"  horiz-adv-x="800" vert-adv-y="1000"  />

      
      <glyph glyph-name="unie5" unicode="&#xe5;" d="M522 239C522 175 445 111 326 111C250 111 228 143 228 172L228 173C228 204 252 214 309 223L522 256ZM528 74C536 23 570 0 613 0L794 0L794 146L765 146C742 146 737 157 737 173L737 379C737 457 717 553 405 553L350 553C50 553 29 442 29 371L29 369L236 369C239 387 244 429 377 429L382 429C513 429 522 405 522 385C522 368 513 360 488 357L242 334C81 319 16 272 16 173L16 166C16 74 85-10 266-10L279-10C437-10 505 45 528 74ZM188 699C188 635 231 581 379 581C523 581 566 632 566 699C566 763 523 815 379 815C234 815 188 763 188 699ZM303 699C303 726 326 744 379 744C431 744 452 726 452 699C452 671 431 652 379 652C326 652 303 671 303 699Z"  horiz-adv-x="800" vert-adv-y="1000"  />

      
      <glyph glyph-name="unie6" unicode="&#xe6;" d="M916 428C1029 428 1081 394 1094 337L736 337C753 394 802 428 914 428ZM325 110C251 110 227 145 227 174L227 175C227 204 249 216 305 224L516 256L516 239C516 175 441 110 325 110ZM1314 190L1096 190C1096 177 1070 121 922 121L921 121C798 121 744 163 732 226L1316 226L1316 263C1316 392 1264 553 948 553L884 553C745 553 678 519 653 502C629 521 565 553 401 553L346 553C45 553 29 442 29 371L29 369L235 369C238 388 240 428 371 428L378 428C506 428 516 407 516 387C516 370 508 361 493 359L240 336C84 321 16 272 16 173L16 166C16 74 83-10 282-10L295-10C464-10 542 77 563 106C614 39 710-15 890-15L949-15C1273-15 1314 117 1314 189Z"  horiz-adv-x="1337" vert-adv-y="1000"  />

      
      <glyph glyph-name="unie7" unicode="&#xe7;" d="M452-15C796-15 831 150 831 225L831 227L602 227C597 206 575 128 424 128L421 128C292 128 250 200 250 272L250 279C250 347 291 412 421 412L424 412C577 412 597 336 602 315L831 315L831 318C831 390 789 553 453 553L396 553C89 553 22 402 22 282L22 262C22 142 90-15 397-15ZM253-258L414-258C565-258 597-209 597-154L597-151C597-89 564-50 415-50L415 0L288 0L288-123L359-123C391-123 399-133 399-146C399-159 391-168 359-168L253-168Z"  horiz-adv-x="850" vert-adv-y="1000"  />

      
      <glyph glyph-name="unie8" unicode="&#xe8;" d="M425 428C538 428 590 394 605 337L245 337C262 394 312 428 424 428ZM827 190L607 190C604 177 580 121 432 121L431 121C308 121 254 163 241 226L830 226L830 263C830 394 772 553 456 553L395 553C104 553 22 420 22 282L22 260C22 119 114-15 401-15L458-15C779-15 827 116 827 189ZM530 590L440 744L208 744L315 590Z"  horiz-adv-x="851" vert-adv-y="1000"  />

      
      <glyph glyph-name="unie9" unicode="&#xe9;" d="M425 428C538 428 590 394 605 337L245 337C262 394 312 428 424 428ZM827 190L607 190C604 177 580 121 432 121L431 121C308 121 254 163 241 226L830 226L830 263C830 394 772 553 456 553L395 553C104 553 22 420 22 282L22 260C22 119 114-15 401-15L458-15C779-15 827 116 827 189ZM320 590L533 590L640 744L410 744Z"  horiz-adv-x="851" vert-adv-y="1000"  />

      
      <glyph glyph-name="uniea" unicode="&#xea;" d="M425 428C538 428 590 394 605 337L245 337C262 394 312 428 424 428ZM827 190L607 190C604 177 580 121 432 121L431 121C308 121 254 163 241 226L830 226L830 263C830 394 772 553 456 553L395 553C104 553 22 420 22 282L22 260C22 119 114-15 401-15L458-15C779-15 827 116 827 189ZM549 745L302 745L152 590L364 590L425 654L486 590L701 590Z"  horiz-adv-x="851" vert-adv-y="1000"  />

      
      <glyph glyph-name="unieb" unicode="&#xeb;" d="M425 428C538 428 590 394 605 337L245 337C262 394 312 428 424 428ZM827 190L607 190C604 177 580 121 432 121L431 121C308 121 254 163 241 226L830 226L830 263C830 394 772 553 456 553L395 553C104 553 22 420 22 282L22 260C22 119 114-15 401-15L458-15C779-15 827 116 827 189ZM667 744L451 744L451 590L667 590ZM401 744L186 744L186 590L401 590Z"  horiz-adv-x="851" vert-adv-y="1000"  />

      
      <glyph glyph-name="uniec" unicode="&#xec;" d="M270 538L47 538L47 0L270 0ZM265 590L175 744L-57 744L50 590Z"  horiz-adv-x="317" vert-adv-y="1000"  />

      
      <glyph glyph-name="unied" unicode="&#xed;" d="M270 538L47 538L47 0L270 0ZM54 590L267 590L374 744L144 744Z"  horiz-adv-x="317" vert-adv-y="1000"  />

      
      <glyph glyph-name="uniee" unicode="&#xee;" d="M271 744L44 744L-62 590L112 590L157 654L202 590L379 590ZM270 538L47 538L47 0L270 0Z"  horiz-adv-x="317" vert-adv-y="1000"  />

      
      <glyph glyph-name="unief" unicode="&#xef;" d="M354 744L179 744L179 590L354 590ZM137 744L-37 744L-37 590L137 590ZM270 538L47 538L47 0L270 0Z"  horiz-adv-x="317" vert-adv-y="1000"  />

      
      <glyph glyph-name="unif1" unicode="&#xf1;" d="M40 0L263 0L263 254C263 342 328 400 428 400C527 400 572 349 572 266L572 0L797 0L797 340C797 444 723 550 535 550L528 550C368 550 288 473 261 446L261 538L40 538ZM543 594C624 594 639 650 639 692L639 768L495 768L495 739C495 727 491 717 479 717C464 717 449 723 422 732C358 753 339 760 298 760L293 760C213 760 196 704 196 663L196 587L340 587L340 616C340 628 343 637 356 637C371 637 386 631 413 622C477 601 502 594 537 594Z"  horiz-adv-x="849" vert-adv-y="1000"  />

      
      <glyph glyph-name="unif2" unicode="&#xf2;" d="M479-15C811-15 864 139 864 263L864 281C864 403 807 553 479 553L408 553C96 553 22 405 22 281L22 263C22 139 97-15 409-15ZM444 130C292 130 250 206 250 269L250 274C250 342 292 410 444 410L445 410C595 410 638 341 638 274L638 269C638 206 596 130 444 130ZM551 590L461 744L229 744L336 590Z"  horiz-adv-x="886" vert-adv-y="1000"  />

      
      <glyph glyph-name="unif3" unicode="&#xf3;" d="M479-15C811-15 864 139 864 263L864 281C864 403 807 553 479 553L408 553C96 553 22 405 22 281L22 263C22 139 97-15 409-15ZM444 130C292 130 250 206 250 269L250 274C250 342 292 410 444 410L445 410C595 410 638 341 638 274L638 269C638 206 596 130 444 130ZM337 590L550 590L657 744L427 744Z"  horiz-adv-x="886" vert-adv-y="1000"  />

      
      <glyph glyph-name="unif4" unicode="&#xf4;" d="M479-15C811-15 864 139 864 263L864 281C864 403 807 553 479 553L408 553C96 553 22 405 22 281L22 263C22 139 97-15 409-15ZM444 130C292 130 250 206 250 269L250 274C250 342 292 410 444 410L445 410C595 410 638 341 638 274L638 269C638 206 596 130 444 130ZM566 745L319 745L169 590L381 590L442 654L503 590L718 590Z"  horiz-adv-x="886" vert-adv-y="1000"  />

      
      <glyph glyph-name="unif5" unicode="&#xf5;" d="M479-15C811-15 864 139 864 263L864 281C864 403 807 553 479 553L408 553C96 553 22 405 22 281L22 263C22 139 97-15 409-15ZM444 130C292 130 250 206 250 269L250 274C250 342 292 410 444 410L445 410C595 410 638 341 638 274L638 269C638 206 596 130 444 130ZM568 594C649 594 664 650 664 692L664 768L520 768L520 739C520 727 516 717 504 717C489 717 474 723 447 732C383 753 364 760 323 760L318 760C238 760 221 704 221 663L221 587L365 587L365 616C365 628 368 637 381 637C396 637 411 631 438 622C502 601 527 594 562 594Z"  horiz-adv-x="886" vert-adv-y="1000"  />

      
      <glyph glyph-name="unif6" unicode="&#xf6;" d="M479-15C811-15 864 139 864 263L864 281C864 403 807 553 479 553L408 553C96 553 22 405 22 281L22 263C22 139 97-15 409-15ZM444 130C292 130 250 206 250 269L250 274C250 342 292 410 444 410L445 410C595 410 638 341 638 274L638 269C638 206 596 130 444 130ZM684 744L468 744L468 590L684 590ZM418 744L203 744L203 590L418 590Z"  horiz-adv-x="886" vert-adv-y="1000"  />

      
      <glyph glyph-name="unif7" unicode="&#xf7;" d="M408 585L216 585L216 433L408 433ZM38 377L38 239L586 239L586 377ZM408 182L216 182L216 30L408 30Z"  horiz-adv-x="624" vert-adv-y="1000"  />

      
      <glyph glyph-name="unif8" unicode="&#xf8;" d="M479-15C810-15 864 142 864 263L864 281C864 357 832 414 787 454L905 538L732 538L696 513C652 532 579 553 478 553L408 553C97 553 22 405 22 281L22 263C22 184 57 126 101 86L-18 0L153 0L191 27C246 0 322-15 409-15ZM246 274C246 342 288 410 444 410L445 410C483 410 515 406 541 398L264 201C251 222 246 246 246 269ZM444 130C409 130 379 134 353 141L626 337C637 318 641 297 641 274L641 269C641 206 600 130 444 130Z"  horiz-adv-x="886" vert-adv-y="1000"  />

      
      <glyph glyph-name="unif9" unicode="&#xf9;" d="M791 538L568 538L568 284C568 196 505 138 408 138C313 138 270 192 270 272L270 538L45 538L45 203C45 102 116-12 301-12L309-12C465-12 543 68 570 93L570 0L791 0ZM528 590L438 744L206 744L313 590Z"  horiz-adv-x="838" vert-adv-y="1000"  />

      
      <glyph glyph-name="unifa" unicode="&#xfa;" d="M791 538L568 538L568 284C568 196 505 138 408 138C313 138 270 192 270 272L270 538L45 538L45 203C45 102 116-12 301-12L309-12C465-12 543 68 570 93L570 0L791 0ZM307 590L520 590L627 744L397 744Z"  horiz-adv-x="838" vert-adv-y="1000"  />

      
      <glyph glyph-name="unifb" unicode="&#xfb;" d="M791 538L568 538L568 284C568 196 505 138 408 138C313 138 270 192 270 272L270 538L45 538L45 203C45 102 116-12 301-12L309-12C465-12 543 68 570 93L570 0L791 0ZM541 745L294 745L144 590L356 590L417 654L478 590L693 590Z"  horiz-adv-x="838" vert-adv-y="1000"  />

      
      <glyph glyph-name="unifc" unicode="&#xfc;" d="M791 538L568 538L568 284C568 196 505 138 408 138C313 138 270 192 270 272L270 538L45 538L45 203C45 102 116-12 301-12L309-12C465-12 543 68 570 93L570 0L791 0ZM659 744L443 744L443 590L659 590ZM393 744L178 744L178 590L393 590Z"  horiz-adv-x="838" vert-adv-y="1000"  />

      
      <glyph glyph-name="uniff" unicode="&#xff;" d="M119-188L314-188C411-188 461-137 512-36L794 538L570 538L402 174L229 538L-11 538L246 46C262 15 271 0 271-11C271-22 266-28 245-28L119-28ZM642 744L426 744L426 590L642 590ZM376 744L161 744L161 590L376 590Z"  horiz-adv-x="783" vert-adv-y="1000"  />

      
      <glyph glyph-name="uni0131" unicode="&#x0131;" d="M270 538L47 538L47 0L270 0Z"  horiz-adv-x="317" vert-adv-y="1000"  />

      
      <glyph glyph-name="uni0152" unicode="&#x0152;" d="M568 576C816 576 865 470 865 382L865 368C865 280 813 169 568 169C320 169 271 282 271 370L271 382C271 470 317 576 568 576ZM886 0L1649 0L1649 173L1095 173L1095 295L1626 295L1626 465L1095 465L1095 575L1639 575L1639 744L886 744L886 682C841 711 737 757 563 757L524 757C84 757 27 524 27 389L27 359C27 226 86-13 524-13L563-13C735-13 845 38 886 74Z"  horiz-adv-x="1689" vert-adv-y="1000"  />

      
      <glyph glyph-name="uni0153" unicode="&#x0153;" d="M1046 428C1158 428 1209 394 1224 337L867 337C884 394 934 428 1045 428ZM441 130C291 130 250 206 250 269L250 274C250 342 290 410 441 410L443 410C592 410 633 341 633 274L633 269C633 206 594 130 441 130ZM756 74C808 21 895-15 1043-15L1080-15C1402-15 1443 116 1443 189L1443 190L1226 190C1223 177 1199 121 1052 121L1051 121C931 121 876 163 863 226L1445 226L1445 263C1445 392 1394 553 1079 553L1037 553C888 553 804 518 753 466C702 517 615 553 454 553L404 553C94 553 22 405 22 281L22 263C22 139 95-15 405-15L454-15C618-15 708 23 756 74Z"  horiz-adv-x="1466" vert-adv-y="1000"  />

      
      <glyph glyph-name="uni0178" unicode="&#x0178;" d="M376 0L609 0L609 288L996 744L733 744L498 470L267 744L-22 744L376 288ZM745 946L523 946L523 796L745 796ZM471 946L249 946L249 796L471 796Z"  horiz-adv-x="974" vert-adv-y="1000"  />

      
      <glyph glyph-name="uni02C6" unicode="&#x02C6;" d="M475 745L228 745L78 590L290 590L351 654L412 590L627 590Z"  horiz-adv-x="706" vert-adv-y="1000"  />

      
      <glyph glyph-name="uni02C7" unicode="&#x02C7;" d="M230 590L477 590L627 744L415 744L354 681L293 744L78 744Z"  horiz-adv-x="706" vert-adv-y="1000"  />

      
      <glyph glyph-name="uni02D8" unicode="&#x02D8;" d="M370 582C535 582 582 691 582 742L582 744L416 744C416 732 406 695 355 695C303 695 293 732 293 744L123 744L123 742C123 691 156 582 338 582Z"  horiz-adv-x="706" vert-adv-y="1000"  />

      
      <glyph glyph-name="uni02D9" unicode="&#x02D9;" d="M464 744L241 744L241 590L464 590Z"  horiz-adv-x="706" vert-adv-y="1000"  />

      
      <glyph glyph-name="uni02DA" unicode="&#x02DA;" d="M164 699C164 635 207 581 355 581C499 581 542 632 542 699C542 763 499 815 355 815C210 815 164 763 164 699ZM279 699C279 726 302 744 355 744C407 744 428 726 428 699C428 671 407 652 355 652C302 652 279 671 279 699Z"  horiz-adv-x="706" vert-adv-y="1000"  />

      
      <glyph glyph-name="uni02DB" unicode="&#x02DB;" d="M480-188L480-86L459-86C434-86 421-78 421-63C421-43 445-24 480 0L384 0C277-31 215-62 215-115L215-117C215-162 257-188 345-188Z"  horiz-adv-x="706" vert-adv-y="1000"  />

      
      <glyph glyph-name="uni02DC" unicode="&#x02DC;" d="M478 594C559 594 574 650 574 692L574 768L430 768L430 739C430 727 426 717 414 717C399 717 384 723 357 732C293 753 274 760 233 760L228 760C148 760 131 704 131 663L131 587L275 587L275 616C275 628 278 637 291 637C306 637 321 631 348 622C412 601 437 594 472 594Z"  horiz-adv-x="706" vert-adv-y="1000"  />

      
      <glyph glyph-name="uni02DD" unicode="&#x02DD;" d="M343 590L548 590L615 744L403 744ZM92 590L297 590L357 744L145 744Z"  horiz-adv-x="706" vert-adv-y="1000"  />

      
      <glyph glyph-name="uni2013" unicode="&#x2013;" d="M38 364L38 234L853 234L853 364Z"  horiz-adv-x="891" vert-adv-y="1000"  />

      
      <glyph glyph-name="uni2014" unicode="&#x2014;" d="M38 364L38 234L1269 234L1269 364Z"  horiz-adv-x="1307" vert-adv-y="1000"  />

      
      <glyph glyph-name="uni2018" unicode="&#x2018;" d="M80 744C57 713 34 662 34 623L34 498L266 498L266 650L166 650C170 677 185 713 202 744Z"  horiz-adv-x="300" vert-adv-y="1000"  />

      
      <glyph glyph-name="uni2019" unicode="&#x2019;" d="M220 498C243 529 266 580 266 619L266 744L34 744L34 592L134 592C130 565 115 529 98 498Z"  horiz-adv-x="300" vert-adv-y="1000"  />

      
      <glyph glyph-name="uni201A" unicode="&#x201A;" d="M220-94C243-63 266-12 266 27L266 152L34 152L34 0L134 0C130-27 115-63 98-94Z"  horiz-adv-x="300" vert-adv-y="1000"  />

      
      <glyph glyph-name="uni201C" unicode="&#x201C;" d="M80 744C57 713 34 662 34 623L34 498L266 498L266 650L166 650C170 677 185 713 202 744ZM351 744C328 713 305 662 305 623L305 498L537 498L537 650L437 650C441 677 456 713 473 744Z"  horiz-adv-x="571" vert-adv-y="1000"  />

      
      <glyph glyph-name="uni201D" unicode="&#x201D;" d="M220 498C243 529 266 580 266 619L266 744L34 744L34 592L134 592C130 565 115 529 98 498ZM491 498C514 529 537 580 537 619L537 744L305 744L305 592L405 592C401 565 386 529 369 498Z"  horiz-adv-x="571" vert-adv-y="1000"  />

      
      <glyph glyph-name="uni201E" unicode="&#x201E;" d="M491-94C514-63 537-12 537 27L537 152L305 152L305 0L405 0C401-27 386-63 369-94ZM220-94C243-63 266-12 266 27L266 152L34 152L34 0L134 0C130-27 115-63 98-94Z"  horiz-adv-x="571" vert-adv-y="1000"  />

      
      <glyph glyph-name="uni2020" unicode="&#x2020;" d="M183 0L394 0L394 427L551 427L551 582L394 582L394 744L183 744L183 582L27 582L27 427L183 427Z"  horiz-adv-x="578" vert-adv-y="1000"  />

      
      <glyph glyph-name="uni2021" unicode="&#x2021;" d="M190 150L190 0L396 0L396 150L553 150L553 302L396 302L396 446L553 446L553 598L396 598L396 744L190 744L190 598L33 598L33 446L190 446L190 302L33 302L33 150Z"  horiz-adv-x="586" vert-adv-y="1000"  />

      
      <glyph glyph-name="uni2022" unicode="&#x2022;" d="M400 330C400 437 322 509 215 509C108 509 30 437 30 330C30 223 108 150 215 150C322 150 400 223 400 330Z"  horiz-adv-x="430" vert-adv-y="1000"  />

      
      <glyph glyph-name="uni2026" unicode="&#x2026;" d="M276 175L35 175L35 0L276 0ZM575 175L334 175L334 0L575 0ZM874 175L633 175L633 0L874 0Z"  horiz-adv-x="909" vert-adv-y="1000"  />

      
      <glyph glyph-name="uni2030" unicode="&#x2030;" d="M334 321C577 321 615 457 615 530L615 547C615 621 576 753 334 753L310 753C67 753 28 621 28 547L28 530C28 457 67 321 310 321ZM1006 744L205 0L402 0L1204 744ZM321 444C222 444 190 491 190 536L190 542C190 590 221 630 321 630C422 630 454 590 454 542L454 534C454 491 421 444 321 444ZM1101-8C1343-8 1382 129 1382 202L1382 219C1382 293 1342 425 1101 425L1076 425C835 425 794 293 794 219L794 202C794 129 835-8 1076-8ZM1723-8C1966-8 2003 129 2003 202L2003 219C2003 292 1964 425 1723 425L1698 425C1457 425 1416 293 1416 219L1416 202C1416 129 1457-8 1698-8ZM1088 116C988 116 956 163 956 208L956 214C956 259 987 302 1088 302C1189 302 1221 259 1221 214L1221 206C1221 163 1188 116 1088 116ZM1710 116C1610 116 1578 163 1578 208L1578 214C1578 259 1609 302 1710 302C1810 302 1843 259 1843 214L1843 206C1843 163 1809 116 1710 116Z"  horiz-adv-x="2031" vert-adv-y="1000"  />

      
      <glyph glyph-name="uni2039" unicode="&#x2039;" d="M315 117L188 287L320 455L149 455L14 287L147 117Z"  horiz-adv-x="336" vert-adv-y="1000"  />

      
      <glyph glyph-name="uni203A" unicode="&#x203A;" d="M190 117L322 287L187 455L16 455L148 287L21 117Z"  horiz-adv-x="336" vert-adv-y="1000"  />

      
      <glyph glyph-name="uni2044" unicode="&#x2044;" d="M779 744L3 0L170 0L951 744Z"  horiz-adv-x="954" vert-adv-y="1000"  />

      
      <glyph glyph-name="uni20AC" unicode="&#x20AC;" d="M629-13C1028-13 1104 194 1104 289L1104 300L856 300C851 281 821 167 607 167C484 167 417 207 382 262L686 262L686 349L353 349C352 357 352 364 352 372L352 384C352 391 352 397 353 404L686 404L686 492L379 492C412 543 478 578 605 578C816 578 851 473 855 453L1103 453L1103 464C1103 553 1026 757 629 757L586 757C278 757 161 620 124 492L11 492L11 404L109 404L109 349L11 349L11 262L123 262C160 132 281-13 586-13Z"  horiz-adv-x="1128" vert-adv-y="1000"  />

      
      <glyph glyph-name="uni2122" unicode="&#x2122;" d="M441 636L441 744L18 744L18 636L156 636L156 386L303 386L303 636ZM483 386L613 386L613 629L727 386L825 386L939 629L939 386L1070 386L1070 744L869 744L781 555L693 744L483 744Z"  horiz-adv-x="1106" vert-adv-y="1000"  />

      
      <glyph glyph-name="uniFB01" unicode="&#xFB01;" d="M463 744L304 744C149 744 117 669 117 602L117 538L14 538L14 390L117 390L117 0L337 0L337 390L463 390L463 538L337 538L337 568C337 599 344 612 379 612L463 612ZM749 744L526 744L526 590L749 590ZM749 538L526 538L526 0L749 0Z"  horiz-adv-x="796" vert-adv-y="1000"  />

      
      <glyph glyph-name="uniFB02" unicode="&#xFB02;" d="M463 744L304 744C149 744 117 669 117 602L117 538L14 538L14 390L117 390L117 0L337 0L337 390L463 390L463 538L337 538L337 568C337 599 344 612 379 612L463 612ZM749 744L526 744L526 0L749 0Z"  horiz-adv-x="796" vert-adv-y="1000"  />

      
      <glyph glyph-name="uni0192" unicode="&#x0192;" d="M474 329L474 477L351 477L355 552C358 580 361 596 396 596L474 596L474 744L327 744C170 744 142 668 139 602L133 477L24 477L24 329L125 329L98-188L315-188L343 329Z"  horiz-adv-x="509" vert-adv-y="1000"  />

      
      <glyph glyph-name="unia6" unicode="&#xa6;" d="M271 808L110 808L110 386L271 386ZM271 326L110 326L110-131L271-131Z"  horiz-adv-x="381" vert-adv-y="1000"  />

      
      <glyph glyph-name="unibc" unicode="&#xbc;" d="M719 744L-57 0L110 0L891 744ZM110 587L110 376L257 376L257 744L137 744C118 700 83 673 15 669L15 587ZM423 68L688 68L688-1L837-1L837 68L916 68L916 167L837 167L837 368L668 368C623 327 582 291 546 259L462 185C449 173 436 162 423 151ZM560 167L688 279L688 167Z"  horiz-adv-x="931" vert-adv-y="1000"  />

      
      <glyph glyph-name="unibd" unicode="&#xbd;" d="M719 744L-57 0L110 0L891 744ZM110 587L110 376L257 376L257 744L137 744C118 700 83 673 15 669L15 587ZM977 0L977 104L630 104C641 120 693 126 765 137C901 158 977 175 977 252L977 256C977 320 943 374 749 374L730 374C524 374 503 286 503 239L503 235L654 235C654 252 663 282 744 282C813 282 822 271 822 259C822 247 810 237 734 223C521 183 497 111 497 43L497 0Z"  horiz-adv-x="997" vert-adv-y="1000"  />

      
      <glyph glyph-name="unibe" unicode="&#xbe;" d="M916 744L140 0L307 0L1088 744ZM274 372C477 372 518 437 518 499L518 503C518 552 483 582 435 590C478 597 505 621 505 652L505 655C505 696 483 751 268 751L237 751C28 751 14 661 14 628L14 623L163 623C163 629 164 658 255 658C340 658 350 647 350 635L350 633C350 622 342 614 306 614L190 614L190 526L312 526C348 526 357 517 357 504L357 502C357 489 348 471 260 471C169 471 165 507 165 517L9 517L9 512C9 473 27 372 241 372ZM620 68L885 68L885-1L1034-1L1034 68L1113 68L1113 167L1034 167L1034 368L865 368C820 327 779 291 743 259L659 185C646 173 633 162 620 151ZM757 167L885 279L885 167Z"  horiz-adv-x="1128" vert-adv-y="1000"  />

      
      <glyph glyph-name="unid0" unicode="&#xd0;" d="M63 0L557 0C992 0 1081 202 1081 362L1081 392C1081 559 987 744 556 744L63 744L63 449L1 449L1 300L63 300ZM296 568L538 568C806 568 837 453 837 377L837 371C837 295 802 179 538 179L296 179L296 300L627 300L627 449L296 449Z"  horiz-adv-x="1104" vert-adv-y="1000"  />

      
      <glyph glyph-name="unid7" unicode="&#xd7;" d="M418 74L520 182L379 307L519 432L418 540L269 407L119 540L17 432L157 307L17 182L118 74L268 208Z"  horiz-adv-x="537" vert-adv-y="1000"  />

      
      <glyph glyph-name="unidd" unicode="&#xdd;" d="M376 0L609 0L609 288L996 744L733 744L498 470L267 744L-22 744L376 288ZM380 796L605 796L710 946L470 946Z"  horiz-adv-x="974" vert-adv-y="1000"  />

      
      <glyph glyph-name="unide" unicode="&#xde;" d="M617 129C880 129 965 238 965 371L965 381C965 522 880 623 617 623L290 623L290 744L57 744L57 0L290 0L290 129ZM290 456L613 456C682 456 721 430 721 377L721 374C721 323 681 296 613 296L290 296Z"  horiz-adv-x="984" vert-adv-y="1000"  />

      
      <glyph glyph-name="unif0" unicode="&#xf0;" d="M467-15C839-15 864 163 864 282L864 302C864 421 811 517 676 615L775 626L775 716L567 693L495 744L217 744L325 665L161 647L161 557L433 588L577 482C522 513 457 539 354 539L337 539C101 539 22 416 22 277L22 253C22 129 104-15 413-15ZM442 130C290 130 248 200 248 266L248 271C248 340 290 406 442 406L443 406C593 406 637 339 637 271L637 266C637 200 595 130 442 130Z"  horiz-adv-x="886" vert-adv-y="1000"  />

      
      <glyph glyph-name="unifd" unicode="&#xfd;" d="M119-188L314-188C411-188 461-137 512-36L794 538L570 538L402 174L229 538L-11 538L246 46C262 15 271 0 271-11C271-22 266-28 245-28L119-28ZM283 590L496 590L603 744L373 744Z"  horiz-adv-x="783" vert-adv-y="1000"  />

      
      <glyph glyph-name="unife" unicode="&#xfe;" d="M270 273C270 342 330 412 469 412L474 412C618 412 658 342 658 273L658 269C658 204 618 129 474 129L469 129C333 129 270 202 270 269ZM47 744L47-188L270-188L270 76C289 55 379-13 541-13L557-13C802-13 886 120 886 262L886 281C886 429 805 551 561 551L543 551C380 551 294 482 270 461L270 744Z"  horiz-adv-x="908" vert-adv-y="1000"  />

      
      <glyph glyph-name="uni0141" unicode="&#x0141;" d="M70 744L70 345L-2 319L-2 179L70 204L70 0L820 0L820 185L303 185L303 286L614 396L614 544L303 430L303 744Z"  horiz-adv-x="849" vert-adv-y="1000"  />

      
      <glyph glyph-name="uni0142" unicode="&#x0142;" d="M278 375L333 402L333 541L278 514L278 744L55 744L55 403L0 376L0 242L55 268L55 0L278 0Z"  horiz-adv-x="333" vert-adv-y="1000"  />

      
      <glyph glyph-name="uni0160" unicode="&#x0160;" d="M523-13C897-13 959 113 959 236L959 250C959 398 846 466 566 471L441 473C289 476 269 505 269 537C269 569 282 601 462 601L478 601C673 601 688 540 693 512L935 512L935 522C935 634 855 757 503 757L434 757C95 757 29 641 29 530L29 521C29 405 114 311 392 303L520 300C692 295 715 268 715 225C715 185 693 146 497 146L483 146C291 146 265 219 262 264L19 264L19 253C19 155 64-13 454-13ZM351 796L602 796L759 946L542 946L477 888L411 946L191 946Z"  horiz-adv-x="981" vert-adv-y="1000"  />

      
      <glyph glyph-name="uni0161" unicode="&#x0161;" d="M404-15C701-15 759 71 759 170L759 176C759 284 707 340 459 345L363 347C270 350 250 366 250 390L250 392C250 419 271 432 378 432L379 432C499 432 509 397 512 377L739 377L739 384C739 468 674 553 402 553L362 553C66 553 22 468 22 385L22 379C22 300 78 216 312 211L408 209C513 206 526 190 526 162L526 160C526 134 511 109 387 109L385 109C255 109 247 162 247 182L17 182L17 176C17 107 49-15 363-15ZM257 590L504 590L654 744L442 744L381 681L320 744L105 744Z"  horiz-adv-x="779" vert-adv-y="1000"  />

      
      <glyph glyph-name="uni017D" unicode="&#x017D;" d="M42 744L42 572L531 572L34 137L34 0L879 0L879 176L362 176L872 608L872 744ZM332 796L583 796L740 946L523 946L458 888L392 946L172 946Z"  horiz-adv-x="913" vert-adv-y="1000"  />

      
      <glyph glyph-name="uni017E" unicode="&#x017E;" d="M700 0L700 149L316 149L698 413L698 538L24 538L24 393L389 393L24 130L24 0ZM240 590L487 590L637 744L425 744L364 681L303 744L88 744Z"  horiz-adv-x="724" vert-adv-y="1000"  />

      
      <glyph glyph-name="uni2212" unicode="&#x2212;" d="M38 378L38 238L544 238L544 378Z"  horiz-adv-x="582" vert-adv-y="1000"  />

      
      <glyph glyph-name="uni0110" unicode="&#x0110;" d="M63 0L557 0C992 0 1081 202 1081 362L1081 392C1081 559 987 744 556 744L63 744L63 449L1 449L1 300L63 300ZM296 568L538 568C806 568 837 453 837 377L837 371C837 295 802 179 538 179L296 179L296 300L627 300L627 449L296 449Z"  horiz-adv-x="1104" vert-adv-y="1000"  />

      
      <glyph glyph-name="uni014A" unicode="&#x014A;" d="M1022 744L792 744L792 276L317 744L57 744L57 0L287 0L287 493L756 35C780 11 789 4 789-7C789-16 782-21 767-21L687-21L687-188L847-188C948-188 1022-123 1022 25Z"  horiz-adv-x="1079" vert-adv-y="1000"  />

      
      <glyph glyph-name="uni0132" unicode="&#x0132;" d="M290 744L57 744L57 0L290 0ZM799-11C1116-11 1189 198 1189 352L1189 744L955 744L955 358C955 245 899 174 776 174L764 174C603 174 587 284 584 317L348 317L348 311C348 170 433-11 743-11Z"  horiz-adv-x="1237" vert-adv-y="1000"  />

      
      <glyph glyph-name="uni0111" unicode="&#x0111;" d="M352 591L939 591L939 694L352 694ZM638 268C638 199 568 129 436 129L431 129C300 129 250 203 250 268L250 272C250 342 289 410 429 410L434 410C566 410 638 342 638 272ZM638 744L638 466C613 488 536 551 368 551L352 551C111 551 22 427 22 283L22 264C22 113 122-13 361-13L374-13C547-13 625 61 640 82L640 0L862 0L862 744Z"  horiz-adv-x="909" vert-adv-y="1000"  />

      
      <glyph glyph-name="uni014B" unicode="&#x014B;" d="M804 340C804 444 730 550 542 550L535 550C375 550 295 473 268 446L268 538L47 538L47 0L270 0L270 254C270 342 335 400 435 400C534 400 579 349 579 266L579 15C579-17 568-26 544-26L479-26L479-188L702-188C759-188 804-148 804-49Z"  horiz-adv-x="849" vert-adv-y="1000"  />

      
      <glyph glyph-name="uni0133" unicode="&#x0133;" d="M270 744L47 744L47 590L270 590ZM270 538L47 538L47 0L270 0ZM581 744L358 744L358 590L581 590ZM285-31L285-188L479-188C536-188 581-148 581-49L581 538L358 538L358 7C358-24 349-31 326-31Z"  horiz-adv-x="628" vert-adv-y="1000"  />

      
      <glyph glyph-name="uni0102" unicode="&#x0102;" d="M653 304L371 304L509 583ZM809 0L1060 0L662 744L360 744L-16 0L221 0L288 136L739 136ZM530 787C696 787 744 899 744 949L744 951L576 951C576 938 566 903 514 903C460 903 451 938 451 951L279 951L279 949C279 899 315 787 496 787Z"  horiz-adv-x="1044" vert-adv-y="1000"  />

      
      <glyph glyph-name="uni0100" unicode="&#x0100;" d="M653 304L371 304L509 583ZM809 0L1060 0L662 744L360 744L-16 0L221 0L288 136L739 136ZM291 804L732 804L732 930L291 930Z"  horiz-adv-x="1044" vert-adv-y="1000"  />

      
      <glyph glyph-name="uni0104" unicode="&#x0104;" d="M653 304L371 304L509 583ZM809 0L1060 0L662 744L360 744L-16 0L221 0L288 136L739 136ZM1060-188L1060-86L1039-86C1014-86 1001-78 1001-63C1001-43 1025-24 1060 0L964 0C857-31 795-62 795-115L795-117C795-162 837-188 925-188Z"  horiz-adv-x="1044" vert-adv-y="1000"  />

      
      <glyph glyph-name="uni01FA" unicode="&#x01FA;" d="M413 1043L626 1043L733 1197L503 1197ZM653 304L371 304L509 583ZM809 0L1060 0L662 744L360 744L-16 0L221 0L288 136L739 136ZM323 900C323 836 366 782 516 782C662 782 705 833 705 900C705 964 662 1016 516 1016C369 1016 323 964 323 900ZM438 900C438 927 460 945 516 945C571 945 591 927 591 900C591 872 571 853 516 853C460 853 438 872 438 900Z"  horiz-adv-x="1044" vert-adv-y="1000"  />

      
      <glyph glyph-name="uni01FC" unicode="&#x01FC;" d="M649 298L436 298L649 576ZM649 0L1433 0L1433 173L879 173L879 295L1410 295L1410 465L879 465L879 575L1423 575L1423 744L536 744L-31 0L208 0L308 130L649 130ZM867 796L1092 796L1197 946L957 946Z"  horiz-adv-x="1473" vert-adv-y="1000"  />

      
      <glyph glyph-name="uni0106" unicode="&#x0106;" d="M437 796L662 796L767 946L527 946ZM566-13C991-13 1065 195 1065 289L1065 300L818 300C812 283 788 168 547 168C330 168 271 284 271 372L271 384C271 477 322 577 545 577C781 577 811 473 817 453L1064 453L1064 464C1064 551 997 757 566 757L525 757C85 757 27 524 27 389L27 360C27 228 94-13 525-13Z"  horiz-adv-x="1089" vert-adv-y="1000"  />

      
      <glyph glyph-name="uni010C" unicode="&#x010C;" d="M422 796L673 796L830 946L613 946L548 888L482 946L262 946ZM566-13C991-13 1065 195 1065 289L1065 300L818 300C812 283 788 168 547 168C330 168 271 284 271 372L271 384C271 477 322 577 545 577C781 577 811 473 817 453L1064 453L1064 464C1064 551 997 757 566 757L525 757C85 757 27 524 27 389L27 360C27 228 94-13 525-13Z"  horiz-adv-x="1089" vert-adv-y="1000"  />

      
      <glyph glyph-name="uni0108" unicode="&#x0108;" d="M670 946L419 946L262 796L479 796L544 854L610 796L830 796ZM566-13C991-13 1065 195 1065 289L1065 300L818 300C812 283 788 168 547 168C330 168 271 284 271 372L271 384C271 477 322 577 545 577C781 577 811 473 817 453L1064 453L1064 464C1064 551 997 757 566 757L525 757C85 757 27 524 27 389L27 360C27 228 94-13 525-13Z"  horiz-adv-x="1089" vert-adv-y="1000"  />

      
      <glyph glyph-name="uni010A" unicode="&#x010A;" d="M658 950L435 950L435 796L658 796ZM566-13C991-13 1065 195 1065 289L1065 300L818 300C812 283 788 168 547 168C330 168 271 284 271 372L271 384C271 477 322 577 545 577C781 577 811 473 817 453L1064 453L1064 464C1064 551 997 757 566 757L525 757C85 757 27 524 27 389L27 360C27 228 94-13 525-13Z"  horiz-adv-x="1089" vert-adv-y="1000"  />

      
      <glyph glyph-name="uni010E" unicode="&#x010E;" d="M57 0L551 0C986 0 1075 202 1075 362L1075 392C1075 559 981 744 550 744L57 744ZM290 568L532 568C800 568 831 453 831 377L831 371C831 295 796 179 532 179L290 179ZM343 796L594 796L751 946L534 946L469 888L403 946L183 946Z"  horiz-adv-x="1098" vert-adv-y="1000"  />

      
      <glyph glyph-name="uni0114" unicode="&#x0114;" d="M57 744L57 0L851 0L851 173L287 173L287 295L828 295L828 465L287 465L287 575L841 575L841 744ZM478 787C644 787 692 899 692 949L692 951L524 951C524 938 514 903 462 903C408 903 399 938 399 951L227 951L227 949C227 899 263 787 444 787Z"  horiz-adv-x="891" vert-adv-y="1000"  />

      
      <glyph glyph-name="uni011A" unicode="&#x011A;" d="M57 744L57 0L851 0L851 173L287 173L287 295L828 295L828 465L287 465L287 575L841 575L841 744ZM335 796L586 796L743 946L526 946L461 888L395 946L175 946Z"  horiz-adv-x="891" vert-adv-y="1000"  />

      
      <glyph glyph-name="uni0116" unicode="&#x0116;" d="M57 744L57 0L851 0L851 173L287 173L287 295L828 295L828 465L287 465L287 575L841 575L841 744ZM570 950L347 950L347 796L570 796Z"  horiz-adv-x="891" vert-adv-y="1000"  />

      
      <glyph glyph-name="uni0112" unicode="&#x0112;" d="M57 744L57 0L851 0L851 173L287 173L287 295L828 295L828 465L287 465L287 575L841 575L841 744ZM238 804L679 804L679 930L238 930Z"  horiz-adv-x="891" vert-adv-y="1000"  />

      
      <glyph glyph-name="uni0118" unicode="&#x0118;" d="M741-188L741-86L716-86C691-86 678-78 678-63C678-43 702-24 737 0L641 0C534-31 472-62 472-115L472-117C472-162 514-188 602-188ZM57 744L57 0L851 0L851 173L287 173L287 295L828 295L828 465L287 465L287 575L841 575L841 744Z"  horiz-adv-x="891" vert-adv-y="1000"  />

      
      <glyph glyph-name="uni011E" unicode="&#x011E;" d="M544-13C774-13 870 79 902 116C915 85 929 27 932 0L1072 0L1072 417L548 417L548 276L840 276L840 274C840 253 773 168 552 168C347 168 271 271 271 368L271 379C271 482 327 580 554 580C786 580 813 491 819 474L1067 474L1067 475C1063 576 990 757 574 757L531 757C103 757 27 534 27 389L27 361C27 212 120-13 523-13ZM571 787C737 787 785 899 785 949L785 951L617 951C617 938 607 903 555 903C501 903 492 938 492 951L320 951L320 949C320 899 356 787 537 787Z"  horiz-adv-x="1121" vert-adv-y="1000"  />

      
      <glyph glyph-name="uni011C" unicode="&#x011C;" d="M676 946L425 946L268 796L485 796L550 854L616 796L836 796ZM544-13C774-13 870 79 902 116C915 85 929 27 932 0L1072 0L1072 417L548 417L548 276L840 276L840 274C840 253 773 168 552 168C347 168 271 271 271 368L271 379C271 482 327 580 554 580C786 580 813 491 819 474L1067 474L1067 475C1063 576 990 757 574 757L531 757C103 757 27 534 27 389L27 361C27 212 120-13 523-13Z"  horiz-adv-x="1121" vert-adv-y="1000"  />

      
      <glyph glyph-name="uni0122" unicode="&#x0122;" d="M544-13C774-13 870 79 902 116C915 85 929 27 932 0L1072 0L1072 417L548 417L548 276L840 276L840 274C840 253 773 168 552 168C347 168 271 271 271 368L271 379C271 482 327 580 554 580C786 580 813 491 819 474L1067 474L1067 475C1063 576 990 757 574 757L531 757C103 757 27 534 27 389L27 361C27 212 120-13 523-13ZM602-283C618-256 641-209 641-172L641-52L418-52L418-202L518-202C511-229 501-256 489-283Z"  horiz-adv-x="1121" vert-adv-y="1000"  />

      
      <glyph glyph-name="uni0120" unicode="&#x0120;" d="M664 950L441 950L441 796L664 796ZM544-13C774-13 870 79 902 116C915 85 929 27 932 0L1072 0L1072 417L548 417L548 276L840 276L840 274C840 253 773 168 552 168C347 168 271 271 271 368L271 379C271 482 327 580 554 580C786 580 813 491 819 474L1067 474L1067 475C1063 576 990 757 574 757L531 757C103 757 27 534 27 389L27 361C27 212 120-13 523-13Z"  horiz-adv-x="1121" vert-adv-y="1000"  />

      
      <glyph glyph-name="uni0126" unicode="&#x0126;" d="M-5 552L1109 552L1109 674L-5 674ZM69 0L302 0L302 293L802 293L802 0L1035 0L1035 744L802 744L802 473L302 473L302 744L69 744Z"  horiz-adv-x="1104" vert-adv-y="1000"  />

      
      <glyph glyph-name="uni0124" unicode="&#x0124;" d="M57 0L290 0L290 293L790 293L790 0L1023 0L1023 744L790 744L790 473L290 473L290 744L57 744ZM664 946L413 946L256 796L473 796L538 854L604 796L824 796Z"  horiz-adv-x="1080" vert-adv-y="1000"  />

      
      <glyph glyph-name="uni012C" unicode="&#x012C;" d="M290 744L57 744L57 0L290 0ZM192 787C358 787 406 899 406 949L406 951L238 951C238 938 228 903 176 903C122 903 113 938 113 951L-59 951L-59 949C-59 899-23 787 158 787Z"  horiz-adv-x="347" vert-adv-y="1000"  />

      
      <glyph glyph-name="uni0130" unicode="&#x0130;" d="M290 744L57 744L57 0L290 0ZM285 950L62 950L62 796L285 796Z"  horiz-adv-x="347" vert-adv-y="1000"  />

      
      <glyph glyph-name="uni012A" unicode="&#x012A;" d="M-21 804L368 804L368 930L-21 930ZM290 744L57 744L57 0L290 0Z"  horiz-adv-x="347" vert-adv-y="1000"  />

      
      <glyph glyph-name="uni012E" unicode="&#x012E;" d="M290 744L57 744L57 0L290 0ZM290-188L290-86L269-86C244-86 231-78 231-63C231-43 255-24 290 0L194 0C87-31 25-62 25-115L25-117C25-162 67-188 155-188Z"  horiz-adv-x="347" vert-adv-y="1000"  />

      
      <glyph glyph-name="uni0128" unicode="&#x0128;" d="M290 744L57 744L57 0L290 0ZM302 802C386 802 402 858 402 900L402 980L256 980L256 950C256 938 250 929 238 929C222 929 204 935 177 944C118 964 90 973 49 973L43 973C-40 973-57 917-57 875L-57 794L89 794L89 825C89 836 94 846 107 846C122 846 143 840 168 831C232 810 258 802 296 802Z"  horiz-adv-x="347" vert-adv-y="1000"  />

      
      <glyph glyph-name="uni0134" unicode="&#x0134;" d="M458-11C775-11 848 198 848 352L848 744L614 744L614 358C614 245 558 174 435 174L423 174C262 174 246 284 243 317L7 317L7 311C7 170 92-11 402-11ZM854 946L603 946L446 796L663 796L728 854L794 796L1014 796Z"  horiz-adv-x="896" vert-adv-y="1000"  />

      
      <glyph glyph-name="uni0136" unicode="&#x0136;" d="M290 0L290 351L683 0L987 0L539 404L967 744L671 744L290 434L290 744L57 744L57 0ZM542-283C558-256 581-209 581-172L581-52L358-52L358-202L458-202C451-229 441-256 429-283Z"  horiz-adv-x="968" vert-adv-y="1000"  />

      
      <glyph glyph-name="uni0139" unicode="&#x0139;" d="M57 744L57 0L807 0L807 185L290 185L290 744ZM67 796L292 796L397 946L157 946Z"  horiz-adv-x="836" vert-adv-y="1000"  />

      
      <glyph glyph-name="uni013D" unicode="&#x013D;" d="M57 744L57 0L807 0L807 185L290 185L290 744ZM321 578L485 578L515 744L336 744Z"  horiz-adv-x="836" vert-adv-y="1000"  />

      
      <glyph glyph-name="uni013B" unicode="&#x013B;" d="M57 744L57 0L807 0L807 185L290 185L290 744ZM509-283C525-256 548-209 548-172L548-52L325-52L325-202L425-202C418-229 408-256 396-283Z"  horiz-adv-x="836" vert-adv-y="1000"  />

      
      <glyph glyph-name="uni013F" unicode="&#x013F;" d="M57 744L57 0L807 0L807 185L290 185L290 744ZM726 503L485 503L485 328L726 328Z"  horiz-adv-x="831" vert-adv-y="1000"  />

      
      <glyph glyph-name="uni0143" unicode="&#x0143;" d="M57 744L57 0L287 0L287 493L792 0L1022 0L1022 744L792 744L792 276L317 744ZM430 796L655 796L760 946L520 946Z"  horiz-adv-x="1079" vert-adv-y="1000"  />

      
      <glyph glyph-name="uni0147" unicode="&#x0147;" d="M57 744L57 0L287 0L287 493L792 0L1022 0L1022 744L792 744L792 276L317 744ZM415 796L666 796L823 946L606 946L541 888L475 946L255 946Z"  horiz-adv-x="1079" vert-adv-y="1000"  />

      
      <glyph glyph-name="uni0145" unicode="&#x0145;" d="M57 744L57 0L287 0L287 493L792 0L1022 0L1022 744L792 744L792 276L317 744ZM610-283C626-256 649-209 649-172L649-52L426-52L426-202L526-202C519-229 509-256 497-283Z"  horiz-adv-x="1079" vert-adv-y="1000"  />

      
      <glyph glyph-name="uni014E" unicode="&#x014E;" d="M551 757C80 757 27 522 27 389L27 359C27 228 80-13 551-13L594-13C1063-13 1117 228 1117 359L1117 389C1117 522 1062 757 594 757ZM873 368C873 282 822 168 572 168C320 168 271 285 271 370L271 382C271 467 316 577 572 577C824 577 873 467 873 382ZM591 787C757 787 805 899 805 949L805 951L637 951C637 938 627 903 575 903C521 903 512 938 512 951L340 951L340 949C340 899 376 787 557 787Z"  horiz-adv-x="1144" vert-adv-y="1000"  />

      
      <glyph glyph-name="uni0150" unicode="&#x0150;" d="M602 796L814 796L881 946L662 946ZM344 796L556 796L616 946L397 946ZM551 757C80 757 27 522 27 389L27 359C27 228 80-13 551-13L594-13C1063-13 1117 228 1117 359L1117 389C1117 522 1062 757 594 757ZM873 368C873 282 822 168 572 168C320 168 271 285 271 370L271 382C271 467 316 577 572 577C824 577 873 467 873 382Z"  horiz-adv-x="1144" vert-adv-y="1000"  />

      
      <glyph glyph-name="uni014C" unicode="&#x014C;" d="M551 757C80 757 27 522 27 389L27 359C27 228 80-13 551-13L594-13C1063-13 1117 228 1117 359L1117 389C1117 522 1062 757 594 757ZM873 368C873 282 822 168 572 168C320 168 271 285 271 370L271 382C271 467 316 577 572 577C824 577 873 467 873 382ZM352 804L793 804L793 930L352 930Z"  horiz-adv-x="1144" vert-adv-y="1000"  />

      
      <glyph glyph-name="uni01FE" unicode="&#x01FE;" d="M462 796L687 796L792 946L552 946ZM595-13C1062-13 1117 226 1117 359L1117 389C1117 481 1086 567 1010 635L1149 744L935 744L888 708C815 739 720 757 595 757L551 757C80 757 27 524 27 389L27 359C27 268 56 179 133 110C90 77 56 49 32 30L-6 0L207 0L254 37C329 6 426-13 551-13ZM271 382C271 470 316 576 572 576C627 576 671 573 708 566L310 251C279 288 271 331 271 370ZM572 169C516 169 472 173 435 180L836 497C867 462 873 421 873 382L873 368C873 280 822 169 572 169Z"  horiz-adv-x="1144" vert-adv-y="1000"  />

      
      <glyph glyph-name="uni0154" unicode="&#x0154;" d="M290 575L643 575C711 575 737 542 737 503L737 502C737 461 710 429 643 429L290 429ZM290 264L594 264C709 264 749 224 749 133L749 47C749 20 753 9 760 0L997 0L997 5C990 17 983 36 983 96L983 205C983 301 918 354 842 376C891 392 980 432 980 539L980 551C980 658 905 744 657 744L57 744L57 0L290 0ZM386 796L611 796L716 946L476 946Z"  horiz-adv-x="1018" vert-adv-y="1000"  />

      
      <glyph glyph-name="uni0158" unicode="&#x0158;" d="M290 575L643 575C711 575 737 542 737 503L737 502C737 461 710 429 643 429L290 429ZM290 264L594 264C709 264 749 224 749 133L749 47C749 20 753 9 760 0L997 0L997 5C990 17 983 36 983 96L983 205C983 301 918 354 842 376C891 392 980 432 980 539L980 551C980 658 905 744 657 744L57 744L57 0L290 0ZM372 796L623 796L780 946L563 946L498 888L432 946L212 946Z"  horiz-adv-x="1018" vert-adv-y="1000"  />

      
      <glyph glyph-name="uni0156" unicode="&#x0156;" d="M290 575L643 575C711 575 737 542 737 503L737 502C737 461 710 429 643 429L290 429ZM290 264L594 264C709 264 749 224 749 133L749 47C749 20 753 9 760 0L997 0L997 5C990 17 983 36 983 96L983 205C983 301 918 354 842 376C891 392 980 432 980 539L980 551C980 658 905 744 657 744L57 744L57 0L290 0ZM594-283C610-256 633-209 633-172L633-52L410-52L410-202L510-202C503-229 493-256 481-283Z"  horiz-adv-x="1018" vert-adv-y="1000"  />

      
      <glyph glyph-name="uni015A" unicode="&#x015A;" d="M369 796L594 796L699 946L459 946ZM523-13C897-13 959 113 959 236L959 250C959 398 846 466 566 471L441 473C289 476 269 505 269 537C269 569 282 601 462 601L478 601C673 601 688 540 693 512L935 512L935 522C935 634 855 757 503 757L434 757C95 757 29 641 29 530L29 521C29 405 114 311 392 303L520 300C692 295 715 268 715 225C715 185 693 146 497 146L483 146C291 146 265 219 262 264L19 264L19 253C19 155 64-13 454-13Z"  horiz-adv-x="981" vert-adv-y="1000"  />

      
      <glyph glyph-name="uni015E" unicode="&#x015E;" d="M523-13C897-13 959 113 959 236L959 250C959 398 846 466 566 471L441 473C289 476 269 505 269 537C269 569 282 601 462 601L478 601C673 601 688 540 693 512L935 512L935 522C935 634 855 757 503 757L434 757C95 757 29 641 29 530L29 521C29 405 114 311 392 303L520 300C692 295 715 268 715 225C715 185 693 146 497 146L483 146C291 146 265 219 262 264L19 264L19 253C19 155 64-13 454-13ZM345-258L506-258C657-258 689-209 689-154L689-151C689-89 656-50 507-50L507 0L380 0L380-123L451-123C483-123 491-133 491-146C491-159 483-168 451-168L345-168Z"  horiz-adv-x="981" vert-adv-y="1000"  />

      
      <glyph glyph-name="uni015C" unicode="&#x015C;" d="M610 946L359 946L202 796L419 796L484 854L550 796L770 796ZM523-13C897-13 959 113 959 236L959 250C959 398 846 466 566 471L441 473C289 476 269 505 269 537C269 569 282 601 462 601L478 601C673 601 688 540 693 512L935 512L935 522C935 634 855 757 503 757L434 757C95 757 29 641 29 530L29 521C29 405 114 311 392 303L520 300C692 295 715 268 715 225C715 185 693 146 497 146L483 146C291 146 265 219 262 264L19 264L19 253C19 155 64-13 454-13Z"  horiz-adv-x="981" vert-adv-y="1000"  />

      
      <glyph glyph-name="uni0218" unicode="&#x0218;" d="M523-13C897-13 959 113 959 236L959 250C959 398 846 466 566 471L441 473C289 476 269 505 269 537C269 569 282 601 462 601L478 601C673 601 688 540 693 512L935 512L935 522C935 634 855 757 503 757L434 757C95 757 29 641 29 530L29 521C29 405 114 311 392 303L520 300C692 295 715 268 715 225C715 185 693 146 497 146L483 146C291 146 265 219 262 264L19 264L19 253C19 155 64-13 454-13ZM559-283C575-256 598-209 598-172L598-52L375-52L375-202L475-202C468-229 458-256 446-283Z"  horiz-adv-x="981" vert-adv-y="1000"  />

      
      <glyph glyph-name="uni0164" unicode="&#x0164;" d="M348 0L583 0L583 568L904 568L904 744L28 744L28 568L348 568ZM342 796L593 796L750 946L533 946L468 888L402 946L182 946Z"  horiz-adv-x="932" vert-adv-y="1000"  />

      
      <glyph glyph-name="uni0162" unicode="&#x0162;" d="M348 0L583 0L583 568L904 568L904 744L28 744L28 568L348 568ZM539-283C555-256 578-209 578-172L578-52L355-52L355-202L455-202C448-229 438-256 426-283Z"  horiz-adv-x="932" vert-adv-y="1000"  />

      
      <glyph glyph-name="uni021A" unicode="&#x021A;" d="M348 0L583 0L583 568L904 568L904 744L28 744L28 568L348 568ZM539-283C555-256 578-209 578-172L578-52L355-52L355-202L455-202C448-229 438-256 426-283Z"  horiz-adv-x="932" vert-adv-y="1000"  />

      
      <glyph glyph-name="uni0166" unicode="&#x0166;" d="M826 303L826 437L105 437L105 303ZM348 0L583 0L583 568L904 568L904 744L28 744L28 568L348 568Z"  horiz-adv-x="932" vert-adv-y="1000"  />

      
      <glyph glyph-name="uni016C" unicode="&#x016C;" d="M548-11C929-11 1005 243 1005 383L1005 744L772 744L772 397C772 301 728 182 528 182C325 182 282 301 282 397L282 744L48 744L48 383C48 243 113-11 512-11ZM545 787C711 787 759 899 759 949L759 951L591 951C591 938 581 903 529 903C475 903 466 938 466 951L294 951L294 949C294 899 330 787 511 787Z"  horiz-adv-x="1053" vert-adv-y="1000"  />

      
      <glyph glyph-name="uni0170" unicode="&#x0170;" d="M548-11C929-11 1005 243 1005 383L1005 744L772 744L772 397C772 301 728 182 528 182C325 182 282 301 282 397L282 744L48 744L48 383C48 243 113-11 512-11ZM547 796L759 796L826 946L607 946ZM289 796L501 796L561 946L342 946Z"  horiz-adv-x="1053" vert-adv-y="1000"  />

      
      <glyph glyph-name="uni016A" unicode="&#x016A;" d="M548-11C929-11 1005 243 1005 383L1005 744L772 744L772 397C772 301 728 182 528 182C325 182 282 301 282 397L282 744L48 744L48 383C48 243 113-11 512-11ZM306 804L747 804L747 930L306 930Z"  horiz-adv-x="1053" vert-adv-y="1000"  />

      
      <glyph glyph-name="uni0172" unicode="&#x0172;" d="M751-188L751-86L724-86C699-86 686-78 686-63C686-39 717-21 760 3C932 98 1005 231 1005 383L1005 744L772 744L772 397C772 301 728 182 528 182C325 182 282 301 282 397L282 744L48 744L48 383C48 243 113-11 512-11L548-11C577-11 603-10 630-7C535-36 480-64 480-115L480-117C480-162 522-188 610-188Z"  horiz-adv-x="1053" vert-adv-y="1000"  />

      
      <glyph glyph-name="uni016E" unicode="&#x016E;" d="M548-11C929-11 1005 243 1005 383L1005 744L772 744L772 397C772 301 728 182 528 182C325 182 282 301 282 397L282 744L48 744L48 383C48 243 113-11 512-11ZM335 892C335 828 378 774 528 774C674 774 717 825 717 892C717 956 674 1008 528 1008C381 1008 335 956 335 892ZM450 892C450 919 472 937 528 937C583 937 603 919 603 892C603 864 583 845 528 845C472 845 450 864 450 892Z"  horiz-adv-x="1053" vert-adv-y="1000"  />

      
      <glyph glyph-name="uni0168" unicode="&#x0168;" d="M548-11C929-11 1005 243 1005 383L1005 744L772 744L772 397C772 301 728 182 528 182C325 182 282 301 282 397L282 744L48 744L48 383C48 243 113-11 512-11ZM655 802C739 802 755 858 755 900L755 980L609 980L609 950C609 938 603 929 591 929C575 929 557 935 530 944C471 964 443 973 402 973L396 973C313 973 296 917 296 875L296 794L442 794L442 825C442 836 447 846 460 846C475 846 496 840 521 831C585 810 611 802 649 802Z"  horiz-adv-x="1053" vert-adv-y="1000"  />

      
      <glyph glyph-name="uni1E82" unicode="&#x1E82;" d="M551 0L720 498L899 0L1134 0L1435 744L1206 744L1018 247L848 744L600 744L434 232L242 744L-12 744L294 0ZM617 796L842 796L947 946L707 946Z"  horiz-adv-x="1423" vert-adv-y="1000"  />

      
      <glyph glyph-name="uni0174" unicode="&#x0174;" d="M551 0L720 498L899 0L1134 0L1435 744L1206 744L1018 247L848 744L600 744L434 232L242 744L-12 744L294 0ZM846 946L595 946L438 796L655 796L720 854L786 796L1006 796Z"  horiz-adv-x="1423" vert-adv-y="1000"  />

      
      <glyph glyph-name="uni1E84" unicode="&#x1E84;" d="M551 0L720 498L899 0L1134 0L1435 744L1206 744L1018 247L848 744L600 744L434 232L242 744L-12 744L294 0ZM970 946L748 946L748 796L970 796ZM696 946L474 946L474 796L696 796Z"  horiz-adv-x="1423" vert-adv-y="1000"  />

      
      <glyph glyph-name="uni1E80" unicode="&#x1E80;" d="M551 0L720 498L899 0L1134 0L1435 744L1206 744L1018 247L848 744L600 744L434 232L242 744L-12 744L294 0ZM740 946L500 946L605 796L830 796Z"  horiz-adv-x="1423" vert-adv-y="1000"  />

      
      <glyph glyph-name="uni0176" unicode="&#x0176;" d="M376 0L609 0L609 288L996 744L733 744L498 470L267 744L-22 744L376 288ZM618 946L367 946L210 796L427 796L492 854L558 796L778 796Z"  horiz-adv-x="974" vert-adv-y="1000"  />

      
      <glyph glyph-name="uni1EF2" unicode="&#x1EF2;" d="M376 0L609 0L609 288L996 744L733 744L498 470L267 744L-22 744L376 288ZM528 946L288 946L393 796L618 796Z"  horiz-adv-x="974" vert-adv-y="1000"  />

      
      <glyph glyph-name="uni0179" unicode="&#x0179;" d="M42 744L42 572L531 572L34 137L34 0L879 0L879 176L362 176L872 608L872 744ZM316 796L541 796L646 946L406 946Z"  horiz-adv-x="913" vert-adv-y="1000"  />

      
      <glyph glyph-name="uni017B" unicode="&#x017B;" d="M42 744L42 572L531 572L34 137L34 0L879 0L879 176L362 176L872 608L872 744ZM568 950L345 950L345 796L568 796Z"  horiz-adv-x="913" vert-adv-y="1000"  />

      
      <glyph glyph-name="uni0103" unicode="&#x0103;" d="M398 582C563 582 610 691 610 742L610 744L444 744C444 732 434 695 383 695C331 695 321 732 321 744L151 744L151 742C151 691 184 582 366 582ZM522 239C522 175 445 111 326 111C250 111 228 143 228 172L228 173C228 204 252 214 309 223L522 256ZM528 74C536 23 570 0 613 0L794 0L794 146L765 146C742 146 737 157 737 173L737 379C737 457 717 553 405 553L350 553C50 553 29 442 29 371L29 369L236 369C239 387 244 429 377 429L382 429C513 429 522 405 522 385C522 368 513 360 488 357L242 334C81 319 16 272 16 173L16 166C16 74 85-10 266-10L279-10C437-10 505 45 528 74Z"  horiz-adv-x="800" vert-adv-y="1000"  />

      
      <glyph glyph-name="uni0101" unicode="&#x0101;" d="M522 239C522 175 445 111 326 111C250 111 228 143 228 172L228 173C228 204 252 214 309 223L522 256ZM528 74C536 23 570 0 613 0L794 0L794 146L765 146C742 146 737 157 737 173L737 379C737 457 717 553 405 553L350 553C50 553 29 442 29 371L29 369L236 369C239 387 244 429 377 429L382 429C513 429 522 405 522 385C522 368 513 360 488 357L242 334C81 319 16 272 16 173L16 166C16 74 85-10 266-10L279-10C437-10 505 45 528 74ZM167 601L589 601L589 723L167 723Z"  horiz-adv-x="800" vert-adv-y="1000"  />

      
      <glyph glyph-name="uni0105" unicode="&#x0105;" d="M522 239C522 175 445 111 326 111C250 111 228 143 228 172L228 173C228 204 252 214 309 223L522 256ZM528 74C536 23 570 0 613 0L794 0L794 146L765 146C742 146 737 157 737 173L737 379C737 457 717 553 405 553L350 553C50 553 29 442 29 371L29 369L236 369C239 387 244 429 377 429L382 429C513 429 522 405 522 385C522 368 513 360 488 357L242 334C81 319 16 272 16 173L16 166C16 74 85-10 266-10L279-10C437-10 505 45 528 74ZM794-188L794-86L773-86C748-86 735-78 735-63C735-43 759-24 794 0L698 0C591-31 529-62 529-115L529-117C529-162 571-188 659-188Z"  horiz-adv-x="800" vert-adv-y="1000"  />

      
      <glyph glyph-name="uni01FB" unicode="&#x01FB;" d="M522 239C522 175 445 111 326 111C250 111 228 143 228 172L228 173C228 204 252 214 309 223L522 256ZM528 74C536 23 570 0 613 0L794 0L794 146L765 146C742 146 737 157 737 173L737 379C737 457 717 553 405 553L350 553C50 553 29 442 29 371L29 369L236 369C239 387 244 429 377 429L382 429C513 429 522 405 522 385C522 368 513 360 488 357L242 334C81 319 16 272 16 173L16 166C16 74 85-10 266-10L279-10C437-10 505 45 528 74ZM188 699C188 635 231 581 379 581C523 581 566 632 566 699C566 763 523 815 379 815C234 815 188 763 188 699ZM303 699C303 726 326 744 379 744C431 744 452 726 452 699C452 671 431 652 379 652C326 652 303 671 303 699ZM277 842L490 842L597 996L367 996Z"  horiz-adv-x="800" vert-adv-y="1000"  />

      
      <glyph glyph-name="uni01FD" unicode="&#x01FD;" d="M916 428C1029 428 1081 394 1094 337L736 337C753 394 802 428 914 428ZM325 110C251 110 227 145 227 174L227 175C227 204 249 216 305 224L516 256L516 239C516 175 441 110 325 110ZM1314 190L1096 190C1096 177 1070 121 922 121L921 121C798 121 744 163 732 226L1316 226L1316 263C1316 392 1264 553 948 553L884 553C745 553 678 519 653 502C629 521 565 553 401 553L346 553C45 553 29 442 29 371L29 369L235 369C238 388 240 428 371 428L378 428C506 428 516 407 516 387C516 370 508 361 493 359L240 336C84 321 16 272 16 173L16 166C16 74 83-10 282-10L295-10C464-10 542 77 563 106C614 39 710-15 890-15L949-15C1273-15 1314 117 1314 189ZM549 590L762 590L869 744L639 744Z"  horiz-adv-x="1337" vert-adv-y="1000"  />

      
      <glyph glyph-name="uni0107" unicode="&#x0107;" d="M320 590L533 590L640 744L410 744ZM452-15C796-15 831 150 831 225L831 227L602 227C597 206 575 128 424 128L421 128C292 128 250 200 250 272L250 279C250 347 291 412 421 412L424 412C577 412 597 336 602 315L831 315L831 318C831 390 789 553 453 553L396 553C89 553 22 402 22 282L22 262C22 142 90-15 397-15Z"  horiz-adv-x="850" vert-adv-y="1000"  />

      
      <glyph glyph-name="uni010D" unicode="&#x010D;" d="M304 590L551 590L701 744L489 744L428 681L367 744L152 744ZM452-15C796-15 831 150 831 225L831 227L602 227C597 206 575 128 424 128L421 128C292 128 250 200 250 272L250 279C250 347 291 412 421 412L424 412C577 412 597 336 602 315L831 315L831 318C831 390 789 553 453 553L396 553C89 553 22 402 22 282L22 262C22 142 90-15 397-15Z"  horiz-adv-x="850" vert-adv-y="1000"  />

      
      <glyph glyph-name="uni0109" unicode="&#x0109;" d="M549 744L302 744L152 589L364 589L425 653L486 589L701 589ZM452-15C796-15 831 150 831 225L831 227L602 227C597 206 575 128 424 128L421 128C292 128 250 200 250 272L250 279C250 347 291 412 421 412L424 412C577 412 597 336 602 315L831 315L831 318C831 390 789 553 453 553L396 553C89 553 22 402 22 282L22 262C22 142 90-15 397-15Z"  horiz-adv-x="850" vert-adv-y="1000"  />

      
      <glyph glyph-name="uni010B" unicode="&#x010B;" d="M538 744L315 744L315 590L538 590ZM452-15C796-15 831 150 831 225L831 227L602 227C597 206 575 128 424 128L421 128C292 128 250 200 250 272L250 279C250 347 291 412 421 412L424 412C577 412 597 336 602 315L831 315L831 318C831 390 789 553 453 553L396 553C89 553 22 402 22 282L22 262C22 142 90-15 397-15Z"  horiz-adv-x="850" vert-adv-y="1000"  />

      
      <glyph glyph-name="uni010F" unicode="&#x010F;" d="M638 268C638 199 568 129 436 129L431 129C300 129 250 203 250 268L250 272C250 342 289 410 429 410L434 410C566 410 638 342 638 272ZM638 744L638 466C613 488 536 551 368 551L352 551C111 551 22 427 22 283L22 264C22 113 122-13 361-13L374-13C547-13 625 61 640 82L640 0L862 0L862 744ZM893 578L1057 578L1087 744L908 744Z"  horiz-adv-x="909" vert-adv-y="1000"  />

      
      <glyph glyph-name="uni0115" unicode="&#x0115;" d="M444 582C609 582 656 691 656 742L656 744L490 744C490 732 480 695 429 695C377 695 367 732 367 744L197 744L197 742C197 691 230 582 412 582ZM425 428C538 428 590 394 605 337L245 337C262 394 312 428 424 428ZM827 190L607 190C604 177 580 121 432 121L431 121C308 121 254 163 241 226L830 226L830 263C830 394 772 553 456 553L395 553C104 553 22 420 22 282L22 260C22 119 114-15 401-15L458-15C779-15 827 116 827 189Z"  horiz-adv-x="851" vert-adv-y="1000"  />

      
      <glyph glyph-name="uni011B" unicode="&#x011B;" d="M304 590L551 590L701 744L489 744L428 681L367 744L152 744ZM425 428C538 428 590 394 605 337L245 337C262 394 312 428 424 428ZM827 190L607 190C604 177 580 121 432 121L431 121C308 121 254 163 241 226L830 226L830 263C830 394 772 553 456 553L395 553C104 553 22 420 22 282L22 260C22 119 114-15 401-15L458-15C779-15 827 116 827 189Z"  horiz-adv-x="851" vert-adv-y="1000"  />

      
      <glyph glyph-name="uni0117" unicode="&#x0117;" d="M538 744L315 744L315 590L538 590ZM425 428C538 428 590 394 605 337L245 337C262 394 312 428 424 428ZM827 190L607 190C604 177 580 121 432 121L431 121C308 121 254 163 241 226L830 226L830 263C830 394 772 553 456 553L395 553C104 553 22 420 22 282L22 260C22 119 114-15 401-15L458-15C779-15 827 116 827 189Z"  horiz-adv-x="851" vert-adv-y="1000"  />

      
      <glyph glyph-name="uni0113" unicode="&#x0113;" d="M425 428C538 428 590 394 605 337L245 337C262 394 312 428 424 428ZM827 190L607 190C604 177 580 121 432 121L431 121C308 121 254 163 241 226L830 226L830 263C830 394 772 553 456 553L395 553C104 553 22 420 22 282L22 260C22 119 114-15 401-15L458-15C779-15 827 116 827 189ZM215 601L637 601L637 723L215 723Z"  horiz-adv-x="851" vert-adv-y="1000"  />

      
      <glyph glyph-name="uni0119" unicode="&#x0119;" d="M425 428C538 428 590 394 605 337L245 337C262 394 312 428 424 428ZM696-86L671-86C646-86 633-78 633-63C633-43 657-24 692 0C775 56 827 111 827 189L827 190L607 190C604 177 580 121 432 121L431 121C308 121 254 163 241 226L830 226L830 263C830 394 772 553 456 553L395 553C104 553 22 420 22 282L22 260C22 119 114-15 401-15L458-15C505-15 544-12 579-7C482-38 427-64 427-115L427-117C427-162 469-188 557-188L696-188Z"  horiz-adv-x="851" vert-adv-y="1000"  />

      
      </font>
</defs>
</svg>
